<svg aria-hidden="true" xmlns="http://www.w3.org/2000/svg" xmlns:xlink="http://www.w3.org/1999/xlink"><symbol viewBox="0 0 101 100" fill="none" id="bolt" xmlns="http://www.w3.org/2000/svg">
<path fill-rule="evenodd" clip-rule="evenodd" d="M13.5639 3.11152C14.0053 2.67467 14.6662 2.68617 15.0982 3.03294L20.5531 4.67873C20.8113 4.75665 21.0466 4.8966 21.2383 5.08636L29.2138 12.9803C29.4175 13.182 29.5653 13.4331 29.6426 13.7091L31.2584 19.4773C31.4623 19.8697 31.4125 20.3763 31.0643 20.721L27.3174 24.4297C26.8677 24.8747 26.2034 25.024 25.6065 24.8142L20.6805 23.0821L13.37 30.3179C12.726 30.9553 11.6888 30.9553 11.0448 30.3179L3.76792 23.1154C3.11447 22.4686 3.11447 21.4129 3.76792 20.7661L11.084 13.5248L9.50954 8.36795C9.33026 7.78077 9.49124 7.14259 9.92759 6.71071L13.5639 3.11152ZM13.9805 5.48961L11.4647 7.97979L12.6764 11.9487L15.1923 9.45848L13.9805 5.48961ZM16.3157 11.1371L13.617 13.8082L20.424 20.5455L23.1226 17.8745L16.3157 11.1371ZM24.7897 19.0149L22.2477 21.5309L26.0692 22.8746L28.6172 20.3527L24.7897 19.0149ZM28.8814 18.3441L25.0707 17.0122L17.191 9.21304L16.0217 5.38311L19.9016 6.55371L27.7565 14.3283L28.8814 18.3441ZM19.0143 21.9408L12.2074 15.2034L11.5629 15.8413L18.3698 22.5787L19.0143 21.9408ZM16.9602 23.9739L10.1532 17.2365L9.5087 17.8745L16.3157 24.6118L16.9602 23.9739ZM14.906 26.0071L8.09908 19.2697L7.45456 19.9076L14.2615 26.645L14.906 26.0071ZM12.8519 28.0402L6.04493 21.3028L5.40041 21.9408L12.2074 28.6782L12.8519 28.0402Z" fill="currentColor"/>
<path fill-rule="evenodd" clip-rule="evenodd" d="M47.0941 16.4707C47.856 15.7165 49.0361 15.8163 49.692 16.5326L66.7361 21.6749C67.046 21.7684 67.3283 21.9363 67.5583 22.164L91.967 46.3232C92.2115 46.5652 92.3888 46.8665 92.4816 47.1978L97.4791 65.0382C97.8511 65.6165 97.8078 66.4174 97.2699 66.9499L85.441 78.6579C84.9014 79.192 84.1042 79.3711 83.388 79.1193L66.8535 73.3055L43.2569 96.661C42.484 97.4259 41.2394 97.4259 40.4666 96.661L16.7566 73.1933C15.9724 72.4172 15.9724 71.1503 16.7566 70.3742L40.3639 47.0081L35.1156 29.8188C34.9005 29.1142 35.0937 28.3484 35.6173 27.8301L47.0941 16.4707ZM47.963 19.3312L37.7613 29.4286L42.4871 44.9066L52.6888 34.8092L47.963 19.3312ZM54.1866 37.0473L43.7412 47.386L66.5115 69.9235L76.9568 59.5849L54.1866 37.0473ZM79.1796 61.1054L68.9431 71.2373L83.8748 76.4875L94.1346 66.3326L79.1796 61.1054ZM94.3301 63.5997L79.5543 58.4352L55.3537 34.482L50.8207 19.6351L65.8149 24.159L89.9825 48.0795L94.3301 63.5997ZM64.632 71.7838L41.8617 49.2462L37.5788 53.4854L60.349 76.0229L64.632 71.7838ZM58.4695 77.8832L35.6993 55.3457L31.4163 59.5849L54.1866 82.1224L58.4695 77.8832ZM52.3071 83.9827L29.5368 61.4452L25.2539 65.6843L48.0241 88.2218L52.3071 83.9827ZM46.1447 90.0821L23.3744 67.5446L19.0915 71.7838L41.8617 94.3213L46.1447 90.0821Z" fill="currentColor"/>
<path d="M17.9031 31.0126C17.5104 30.631 16.8827 30.64 16.5011 31.0327C16.1194 31.4254 16.1285 32.0532 16.5212 32.4348L24.5878 40.2729L21.2895 43.6673L32.3898 46.4714L29.268 35.4562L25.9697 38.8507L17.9031 31.0126Z" fill="currentColor"/>
</symbol><symbol viewBox="0 0 80 80" fill="none" id="danger" xmlns="http://www.w3.org/2000/svg">
<g clip-path="url(#bclip0_1_2950)">
<rect x="-3.84082" y="17.3726" width="30" height="94" rx="12" transform="rotate(-45 -3.84082 17.3726)" fill="currentColor"/>
<path d="M76 40C76 59.8822 59.8822 76 40 76C20.1178 76 4 59.8822 4 40C4 20.1178 20.1178 4 40 4C59.8822 4 76 20.1178 76 40Z" stroke="currentColor" stroke-width="2" stroke-miterlimit="10" stroke-linecap="round" stroke-linejoin="round"/>
<path d="M44.0975 40.0001C44.0975 42.2631 42.2629 44.0977 39.9999 44.0977C37.7369 44.0977 35.9023 42.2631 35.9023 40.0001C35.9023 37.7371 37.7369 35.9025 39.9999 35.9025C42.2629 35.9025 44.0975 37.7371 44.0975 40.0001Z" stroke="currentColor" stroke-width="2" stroke-miterlimit="10" stroke-linecap="round" stroke-linejoin="round"/>
<path d="M44.0975 40.0001C44.0975 42.2631 42.2629 44.0977 39.9999 44.0977C37.7369 44.0977 35.9023 42.2631 35.9023 40.0001C35.9023 37.7371 37.7369 35.9025 39.9999 35.9025C42.2629 35.9025 44.0975 37.7371 44.0975 40.0001Z" stroke="currentColor" stroke-width="2" stroke-miterlimit="10" stroke-linecap="round" stroke-linejoin="round"/>
<path d="M27.8517 18.962L35.023 31.3831C36.5346 30.5072 38.251 30.0469 39.998 30.0489C41.745 30.0469 43.4614 30.5072 44.973 31.3831L52.1443 18.962L52.1464 18.9585C48.5727 16.8909 44.4237 15.7074 39.998 15.7074C35.5723 15.7074 31.4233 16.8909 27.8496 18.9585L27.8517 18.962Z" stroke="currentColor" stroke-width="2" stroke-miterlimit="10" stroke-linecap="round" stroke-linejoin="round"/>
<path d="M27.8555 61.038L35.0268 48.6168C33.5126 47.7456 32.2557 46.4894 31.3838 44.9756C30.5087 43.4636 30.0491 41.7469 30.0518 39.9999H15.7051C15.7013 44.1285 16.751 48.3136 18.9638 52.1463C21.1765 55.979 24.2762 58.9804 27.8535 61.0415L27.8555 61.038Z" stroke="currentColor" stroke-width="2" stroke-miterlimit="10" stroke-linecap="round" stroke-linejoin="round"/>
<path d="M64.2962 39.9999H49.9535C49.9562 41.7469 49.4967 43.4636 48.6215 44.9756C47.7497 46.4894 46.4928 47.7457 44.9785 48.6168L52.1498 61.038L52.1519 61.0415C55.7292 58.9806 58.8289 55.979 61.0415 52.1463C63.2544 48.3136 64.3041 44.1285 64.3003 39.9999H64.2962Z" stroke="currentColor" stroke-width="2" stroke-miterlimit="10" stroke-linecap="round" stroke-linejoin="round"/>
<path fill-rule="evenodd" clip-rule="evenodd" d="M21.8563 65.2404C24.868 67.4092 28.2837 69.0522 31.9688 70.0351C35.6376 71.0186 39.4018 71.3014 43.0801 70.9321C47.5915 70.4883 51.8198 69.08 55.5558 66.9162C59.2791 64.7691 62.5973 61.8254 65.2287 58.1607C67.4104 55.1352 69.0614 51.7015 70.045 47.9961C71.0213 44.337 71.3009 40.5835 70.9321 36.9157C70.4909 32.4381 69.0993 28.2384 66.9616 24.5224C64.543 20.3001 61.1025 16.5947 56.7496 13.815C56.7288 13.7991 56.7071 13.7839 56.6845 13.7696C54.0453 12.0875 51.135 10.7927 48.0343 9.96533C44.9433 9.13651 41.7841 8.8049 38.6658 8.94176C38.6395 8.94291 38.6136 8.94514 38.5879 8.94839C33.4444 9.17841 28.6262 10.6585 24.4297 13.0921C20.7115 15.2392 17.3979 18.1812 14.77 21.8414C12.6092 24.8385 10.9693 28.236 9.98287 31.9015C8.97901 35.6128 8.69299 39.4231 9.07446 43.1442C9.52349 47.6139 10.9195 51.8043 13.0588 55.5119C15.2113 59.2585 18.1694 62.5968 21.8563 65.2404ZM26.5463 14.0662C30.5729 11.973 35.1485 10.7901 40.0003 10.7901C42.6111 10.7901 45.1413 11.1324 47.5488 11.7745C49.9642 12.4221 52.3357 13.3931 54.6051 14.7034C58.8063 17.1289 62.177 20.4405 64.6174 24.2658C64.6277 24.2848 64.6387 24.3035 64.6505 24.3219C64.8584 24.648 65.0599 24.9785 65.255 25.3132C67.3642 28.9479 68.6638 32.9965 69.0739 37.161C69.164 38.095 69.2101 39.042 69.2101 39.9998C69.2101 42.5968 68.8712 45.1146 68.2351 47.5114C67.5875 49.9399 66.6133 52.3241 65.2966 54.6046C64.8027 55.4602 64.272 56.2813 63.7077 57.0671C61.2979 60.4085 58.1991 63.22 54.6195 65.2935C51.0179 67.3706 47.0129 68.6546 42.8931 69.0681C41.9415 69.1617 40.9765 69.2096 40.0003 69.2096C37.3906 69.2096 34.8608 68.8673 32.4533 68.2252C30.0371 67.5776 27.6648 66.6064 25.3954 65.2962C24.5464 64.806 23.7314 64.2797 22.9511 63.7203C19.5882 61.2989 16.7611 58.1801 14.6816 54.5757C12.6298 51.004 11.357 47.0374 10.9384 42.9567C10.8406 41.9843 10.7906 40.9979 10.7906 39.9998C10.7906 37.366 11.1391 34.8136 11.7927 32.3862C12.4403 29.993 13.4056 27.6435 14.7039 25.3949C15.187 24.5581 15.7051 23.7544 16.2555 22.9844C18.6996 19.5796 21.8579 16.7222 25.5113 14.6311C25.8347 14.4468 26.1613 14.2689 26.4909 14.0974C26.5099 14.0875 26.5283 14.0771 26.5463 14.0662Z" fill="currentColor"/>
</g>
<defs>
<clipPath id="bclip0_1_2950">
<rect width="80" height="80" fill="currentColor"/>
</clipPath>
</defs>
</symbol><symbol viewBox="0 0 80 80" fill="none" id="flanged" xmlns="http://www.w3.org/2000/svg">
<g clip-path="url(#cclip0_1_3001)">
<rect x="-3.84082" y="17.3726" width="30" height="94" rx="12" transform="rotate(-45 -3.84082 17.3726)" fill="currentColor"/>
<path d="M75.5469 12.9844H58.9062C58.4957 12.9832 58.089 13.0636 57.7097 13.2207C57.3304 13.3778 56.986 13.6086 56.6966 13.8997L48.6003 21.9959C47.8676 22.7327 46.996 23.3168 46.036 23.7144C45.076 24.1121 44.0467 24.3154 43.0077 24.3125H42.1094V21.3438C42.1094 21.0951 42.0106 20.8567 41.8348 20.6809C41.659 20.505 41.4205 20.4063 41.1719 20.4063H39.7395V16.6039C39.7395 16.3553 39.6408 16.1168 39.4649 15.941C39.2891 15.7652 39.0507 15.6664 38.802 15.6664H34.1667C33.9181 15.6664 33.6796 15.7652 33.5038 15.941C33.328 16.1168 33.2292 16.3553 33.2292 16.6039V20.4063H31.7969C31.5482 20.4063 31.3098 20.505 31.134 20.6809C30.9581 20.8567 30.8594 21.0951 30.8594 21.3438V24.3125H25.3906C25.142 24.3125 24.9035 24.4113 24.7277 24.5871C24.5519 24.7629 24.4531 25.0014 24.4531 25.25V29.625C24.4531 29.8737 24.5519 30.1121 24.7277 30.2879C24.9035 30.4637 25.142 30.5625 25.3906 30.5625H30.8594V33.375H25.3125C25.0639 33.375 24.8254 33.4738 24.6496 33.6496C24.4738 33.8254 24.375 34.0639 24.375 34.3125V39.7813H14.7656V38.8438C14.7648 38.181 14.5012 37.5455 14.0325 37.0769C13.5639 36.6082 12.9284 36.3445 12.2656 36.3438H3.82812C3.16532 36.3445 2.5299 36.6082 2.06123 37.0769C1.59256 37.5455 1.32891 38.181 1.32812 38.8438V64.4688C1.32891 65.1316 1.59256 65.767 2.06123 66.2357C2.5299 66.7043 3.16532 66.968 3.82812 66.9688H12.2656C12.9284 66.968 13.5639 66.7043 14.0325 66.2357C14.5012 65.767 14.7648 65.1316 14.7656 64.4688V63.5313H58.2031V64.4763C58.2045 65.1368 58.4667 65.7701 58.9327 66.2383C59.3987 66.7065 60.0307 66.9717 60.6913 66.9763L69.1288 67.0164H69.1409C69.804 67.0164 70.4399 66.753 70.9087 66.2842C71.3775 65.8153 71.6409 65.1795 71.6409 64.5164V38.8985C71.6402 38.2356 71.3766 37.6002 70.9079 37.1315C70.4392 36.6628 69.8037 36.3992 69.1409 36.3985H60.7034C60.0406 36.3992 59.4052 36.6628 58.9365 37.1315C58.4678 37.6002 58.2042 38.2356 58.2034 38.8985V39.7813H48.5938V34.3125C48.5938 34.0639 48.495 33.8254 48.3192 33.6496C48.1433 33.4738 47.9049 33.375 47.6562 33.375H42.1094V30.5625H43.0077C44.8678 30.5676 46.7105 30.2037 48.4291 29.4918C50.1476 28.78 51.7079 27.7344 53.0197 26.4155L60.2006 19.2344H75.5469C76.3757 19.2344 77.1705 18.9051 77.7566 18.3191C78.3426 17.733 78.6719 16.9382 78.6719 16.1094C78.6719 15.2806 78.3426 14.4857 77.7566 13.8997C77.1705 13.3136 76.3757 12.9844 75.5469 12.9844ZM12.8906 64.4688C12.8906 64.6345 12.8248 64.7935 12.7076 64.9107C12.5904 65.0279 12.4314 65.0938 12.2656 65.0938H3.82812C3.66236 65.0938 3.50339 65.0279 3.38618 64.9107C3.26897 64.7935 3.20312 64.6345 3.20312 64.4688V57.9063H12.8906V64.4688ZM12.8906 56.0313H3.20312V47.2813H12.8906V56.0313ZM12.8906 45.4063H3.20312V38.8438C3.20312 38.678 3.26897 38.519 3.38618 38.4018C3.50339 38.2846 3.66236 38.2188 3.82812 38.2188H12.2656C12.4314 38.2188 12.5904 38.2846 12.7076 38.4018C12.8248 38.519 12.8906 38.678 12.8906 38.8438V45.4063ZM60.0781 38.8988C60.0781 38.733 60.144 38.574 60.2612 38.4568C60.3784 38.3396 60.5374 38.2738 60.7031 38.2738H69.1406C69.3064 38.2738 69.4654 38.3396 69.5826 38.4568C69.6998 38.574 69.7656 38.733 69.7656 38.8988V45.4063H60.0781V38.8988ZM60.0781 47.2813H69.7656V56.0313H60.0781V47.2813ZM60.0781 57.9063H69.7656V64.5156C69.7656 64.6814 69.6998 64.8404 69.5826 64.9576C69.4654 65.0748 69.3064 65.1406 69.1406 65.1406H69.1375L60.7 65.1005C60.5349 65.0994 60.3768 65.0331 60.2603 64.916C60.1438 64.799 60.0783 64.6406 60.078 64.4755L60.0781 57.9063ZM35.1042 17.5414H37.8645V20.4063H35.1042V17.5414ZM32.7344 22.2813H40.2344V24.3125H32.7344V22.2813ZM26.25 35.25H29.375V39.7813H26.25V35.25ZM43.5938 35.25H46.7188V39.7813H43.5938V35.25ZM58.2031 41.6563V61.6563H14.7656V41.6563H58.2031ZM40.2344 33.375H32.7344V30.5625H40.2344V33.375ZM41.7188 35.25V39.7813H37.5V35.25H41.7188ZM35.625 35.25V39.7813H31.25V35.25H35.625ZM75.5469 17.3594H59.8125C59.6894 17.3594 59.5675 17.3836 59.4537 17.4307C59.34 17.4778 59.2366 17.5469 59.1495 17.6339L51.6941 25.0895C50.556 26.2338 49.2023 27.141 47.7112 27.7586C46.2202 28.3762 44.6215 28.6919 43.0077 28.6875H26.3281V26.1875H43.0077C44.293 26.191 45.5664 25.9396 46.7539 25.4477C47.9415 24.9558 49.0197 24.2333 49.9261 23.3219L58.0223 15.2255C58.1382 15.109 58.2759 15.0167 58.4276 14.9539C58.5794 14.8911 58.742 14.8589 58.9062 14.8594H75.5469C75.8784 14.8594 76.1963 14.9911 76.4308 15.2255C76.6652 15.4599 76.7969 15.7779 76.7969 16.1094C76.7969 16.4409 76.6652 16.7588 76.4308 16.9933C76.1963 17.2277 75.8784 17.3594 75.5469 17.3594Z" fill="currentColor"/>
</g>
<defs>
<clipPath id="cclip0_1_3001">
<rect width="80" height="80" fill="currentColor"/>
</clipPath>
</defs>
</symbol><symbol viewBox="0 0 80 80" fill="none" id="humidity" xmlns="http://www.w3.org/2000/svg">
<g clip-path="url(#dclip0_1_3010)">
<rect x="-3.84082" y="17.3726" width="30" height="94" rx="12" transform="rotate(-45 -3.84082 17.3726)" fill="currentColor"/>
<path d="M29.3875 15.5625C28.65 16.8 11.4375 46.0625 11.4375 56.075C11.45 66.5125 19.9375 75 30.3625 75C40.7875 75 49.275 66.5125 49.275 56.0875C49.275 46.075 32.0625 16.8125 31.325 15.575C30.925 14.8875 29.8 14.8875 29.3875 15.5625ZM30.3625 72.7375C21.175 72.7375 13.7 65.2625 13.7 56.075C13.7 47.975 26.6625 24.825 30.3625 18.3875C34.0625 24.825 47.025 47.975 47.025 56.075C47.025 65.2625 39.55 72.7375 30.3625 72.7375ZM53.5625 5.55C53.3625 5.2125 53 5 52.6 5C52.2 5 51.825 5.2125 51.625 5.55C51.5625 5.6625 45.2375 16.4125 40.8625 26.0625C40.6 26.625 40.8625 27.3 41.425 27.5625C42 27.8125 42.6625 27.5625 42.925 27C46.225 19.7125 50.6625 11.7625 52.6 8.375C55.875 14.1 66.3 32.8125 66.3 39.4C66.3 46.8625 60.4625 52.875 53.0125 53.0875C51.5625 53.1375 51.5875 55.325 53.0375 55.35C61.7375 55.125 68.5625 48.1125 68.55 39.4C68.55 31.025 54.175 6.5875 53.5625 5.55Z" fill="currentColor"/>
<path d="M19.6377 56.0874C19.6377 55.4624 19.1377 54.9624 18.5127 54.9624C17.8877 54.9624 17.3877 55.4624 17.3877 56.0874C17.3877 63.2499 23.2127 69.0749 30.3752 69.0749C31.8502 69.0749 31.8502 66.8249 30.3752 66.8124C24.4502 66.8124 19.6377 61.9999 19.6377 56.0874Z" fill="currentColor"/>
</g>
<defs>
<clipPath id="dclip0_1_3010">
<rect width="80" height="80" fill="currentColor"/>
</clipPath>
</defs>
</symbol><symbol viewBox="0 0 64 78" fill="none" id="minTemperature" xmlns="http://www.w3.org/2000/svg">
<path d="M47.809 50.461C47.4215 50.1876 47.2168 49.7907 47.2168 49.3142V8.52979C47.2168 4.13603 43.6402 0.561035 39.2449 0.561035C34.8512 0.561035 31.2762 4.13603 31.2762 8.52979V49.3126C31.2762 49.7954 31.0762 50.1813 30.6809 50.4595C26.7465 53.2438 24.398 57.7782 24.398 62.5907C24.398 70.7767 31.059 77.4376 39.2449 77.4376C47.434 77.4376 54.0965 70.7782 54.0965 62.5907C54.0965 57.7813 51.7465 53.247 47.809 50.461ZM39.2449 75.561C32.0934 75.561 26.2762 69.7439 26.2762 62.5923C26.2762 58.3892 28.3277 54.4267 31.7637 51.9954C32.6605 51.3642 33.1543 50.4126 33.1543 49.3142V8.52979C33.1543 5.17197 35.8855 2.43916 39.2449 2.43916C42.6059 2.43916 45.3387 5.17041 45.3387 8.52979V49.3126C45.3387 50.4079 45.8309 51.3595 46.723 51.9923C50.1637 54.4267 52.2168 58.3892 52.2168 62.5907C52.2184 69.7423 46.3996 75.561 39.2449 75.561ZM44.3793 53.8188L43.223 53.1423C42.773 52.8782 42.5262 52.4485 42.5262 51.9329V39.536C42.5262 37.7267 41.0543 36.2548 39.2449 36.2548C37.4355 36.2548 35.9637 37.7267 35.9637 39.536V51.9329C35.9637 52.4501 35.7168 52.8798 35.273 53.1423L34.1105 53.822C31.0105 55.6438 29.0855 59.0048 29.0855 62.5954C29.0855 68.1985 33.6434 72.7563 39.2465 72.7563C44.8496 72.7563 49.4074 68.1985 49.4074 62.5954C49.4059 59.0017 47.4809 55.6407 44.3793 53.8188ZM39.2449 70.8751C34.6777 70.8751 30.9621 67.1595 30.9621 62.5923C30.9621 59.6657 32.5324 56.9235 35.059 55.4392L36.223 54.7595C37.2512 54.1532 37.8402 53.122 37.8402 51.9314V39.5345C37.8402 38.7735 38.4824 38.1298 39.2449 38.1298C40.0074 38.1298 40.6496 38.7735 40.6496 39.5345V51.9314C40.6496 53.1235 41.2418 54.1548 42.2746 54.761L43.4293 55.4376C45.9574 56.9235 47.5277 59.6642 47.5277 62.5923C47.5277 67.1595 43.8121 70.8751 39.2449 70.8751ZM52.8652 11.4313C52.8652 10.9126 53.2855 10.4923 53.8043 10.4923H58.9074C59.4262 10.4923 59.8465 10.9126 59.8465 11.4313C59.8465 11.9501 59.4262 12.3704 58.9074 12.3704H53.8043C53.2855 12.3704 52.8652 11.9501 52.8652 11.4313ZM52.8652 16.3954C52.8652 15.8767 53.2855 15.4563 53.8043 15.4563H62.0949C62.6137 15.4563 63.034 15.8767 63.034 16.3954C63.034 16.9142 62.6137 17.3345 62.0949 17.3345H53.8043C53.2855 17.3345 52.8652 16.9142 52.8652 16.3954ZM52.8652 21.361C52.8652 20.8423 53.2855 20.422 53.8043 20.422H58.9074C59.4262 20.422 59.8465 20.8423 59.8465 21.361C59.8465 21.8798 59.4262 22.3001 58.9074 22.3001H53.8043C53.2855 22.3001 52.8652 21.8798 52.8652 21.361ZM63.034 26.322C63.034 26.8407 62.6137 27.261 62.0949 27.261H53.8043C53.2855 27.261 52.8652 26.8407 52.8652 26.322C52.8652 25.8032 53.2855 25.3829 53.8043 25.3829H62.0949C62.6137 25.3829 63.034 25.8032 63.034 26.322ZM52.8652 31.286C52.8652 30.7673 53.2855 30.347 53.8043 30.347H58.9074C59.4262 30.347 59.8465 30.7673 59.8465 31.286C59.8465 31.8048 59.4262 32.2251 58.9074 32.2251H53.8043C53.2855 32.2251 52.8652 31.8048 52.8652 31.286ZM63.034 36.2517C63.034 36.7704 62.6137 37.1907 62.0949 37.1907H53.8043C53.2855 37.1907 52.8652 36.7704 52.8652 36.2517C52.8652 35.7329 53.2855 35.3126 53.8043 35.3126H62.0949C62.6137 35.3126 63.034 35.7329 63.034 36.2517ZM52.8652 41.2173C52.8652 40.6985 53.2855 40.2782 53.8043 40.2782H58.9074C59.4262 40.2782 59.8465 40.6985 59.8465 41.2173C59.8465 41.736 59.4262 42.1563 58.9074 42.1563H53.8043C53.2855 42.1563 52.8652 41.736 52.8652 41.2173ZM63.034 46.1813C63.034 46.7001 62.6137 47.1204 62.0949 47.1204H53.8043C53.2855 47.1204 52.8652 46.7001 52.8652 46.1813C52.8652 45.6626 53.2855 45.2423 53.8043 45.2423H62.0949C62.6137 45.2423 63.034 45.6642 63.034 46.1813ZM25.4043 22.686C25.923 22.686 26.3434 22.2657 26.3434 21.747C26.3434 21.2282 25.923 20.8079 25.4043 20.8079H22.5371L18.4043 16.6751C18.6793 16.247 18.8824 15.7673 18.9949 15.2548H24.8387L26.8621 17.2782C27.0449 17.461 27.2855 17.5532 27.5262 17.5532C27.7668 17.5532 28.0074 17.461 28.1902 17.2782C28.2775 17.1911 28.3468 17.0876 28.3941 16.9736C28.4413 16.8597 28.4656 16.7375 28.4656 16.6142C28.4656 16.4908 28.4413 16.3687 28.3941 16.2547C28.3468 16.1408 28.2775 16.0372 28.1902 15.9501L26.5543 14.3142L28.1902 12.6751C28.366 12.4987 28.4646 12.2597 28.4643 12.0107C28.464 11.7617 28.3649 11.523 28.1887 11.347C28.0123 11.1712 27.7733 11.0726 27.5243 11.0729C27.2753 11.0732 27.0365 11.1723 26.8605 11.3485L24.8387 13.3751H18.9965C18.884 12.861 18.6809 12.3813 18.4043 11.9517L22.5387 7.82041H25.4059C25.9246 7.82041 26.3449 7.4001 26.3449 6.88135C26.3449 6.3626 25.9246 5.94229 25.4059 5.94229H23.0887V3.62666C23.0887 3.10791 22.6684 2.6876 22.1496 2.6876C21.6309 2.6876 21.2105 3.10791 21.2105 3.62666V6.49228L17.0746 10.6251C16.6465 10.3501 16.1684 10.1485 15.6559 10.036V4.19229L17.6809 2.16416C17.8566 1.98776 17.9552 1.7488 17.9549 1.49977C17.9546 1.25075 17.8555 1.01202 17.6793 0.836035C17.5029 0.660259 17.2639 0.561692 17.0149 0.561985C16.7659 0.562278 16.5272 0.661407 16.3512 0.837598L14.7168 2.4751L13.0777 0.837598C12.7105 0.47041 12.1168 0.47041 11.7496 0.837598C11.3824 1.20479 11.3824 1.79854 11.7496 2.16572L13.7777 4.19385V10.0376C13.2652 10.1501 12.7855 10.3532 12.3574 10.6282L8.22461 6.49541V3.62666C8.22461 3.10791 7.8043 2.6876 7.28555 2.6876C6.7668 2.6876 6.34648 3.10791 6.34648 3.62666V5.94385H4.0293C3.51055 5.94385 3.09023 6.36416 3.09023 6.88291C3.09023 7.40166 3.51055 7.82197 4.0293 7.82197H6.89492L11.0277 11.9548C10.7482 12.3894 10.5482 12.8704 10.4371 13.3751H4.59336L2.56836 11.347C2.20117 10.9798 1.60742 10.9798 1.24023 11.347C0.873047 11.7142 0.873047 12.3079 1.24023 12.6751L2.8793 14.3142L1.2418 15.9485C0.87461 16.3142 0.874609 16.9095 1.24023 17.2767C1.42305 17.461 1.66367 17.5517 1.9043 17.5517C2.14492 17.5517 2.38398 17.461 2.56836 17.2767L4.59649 15.2517H10.4402C10.5527 15.7642 10.7543 16.2423 11.0293 16.6704L6.89648 20.8063H4.0293C3.51055 20.8063 3.09023 21.2267 3.09023 21.7454C3.09023 22.2642 3.51055 22.6845 4.0293 22.6845H6.34648V25.0017C6.34648 25.5204 6.7668 25.9407 7.28555 25.9407C7.8043 25.9407 8.22461 25.5204 8.22461 25.0017V22.1345L12.3559 18.0001C12.7855 18.2767 13.2652 18.4798 13.7793 18.5923V24.4345L11.7512 26.4579C11.384 26.8235 11.384 27.4188 11.7496 27.786C11.9324 27.9704 12.173 28.061 12.4137 28.061C12.6543 28.061 12.8934 27.9704 13.0777 27.786L14.7168 26.1501L16.3527 27.786C16.5355 27.9688 16.7762 28.061 17.0168 28.061C17.2574 28.061 17.498 27.9688 17.6809 27.786C17.7682 27.6989 17.8374 27.5954 17.8847 27.4814C17.9319 27.3675 17.9563 27.2453 17.9563 27.122C17.9563 26.9986 17.9319 26.8765 17.8847 26.7625C17.8374 26.6486 17.7682 26.5451 17.6809 26.4579L15.6574 24.4345V18.5907C16.1699 18.4782 16.6496 18.2751 17.0777 18.0001L21.2105 22.1329V25.0001C21.2105 25.5188 21.6309 25.9392 22.1496 25.9392C22.6684 25.9392 23.0887 25.5188 23.0887 25.0001V22.6829H25.4043V22.686ZM16.484 16.0813C16.4809 16.0845 16.4793 16.0876 16.4777 16.0892C16.0246 16.5376 15.4027 16.8157 14.7168 16.8157C13.3371 16.8157 12.2137 15.6938 12.2137 14.3126C12.2137 12.9313 13.3371 11.8126 14.7168 11.8126C16.0965 11.8126 17.2199 12.936 17.2199 14.3157C17.2199 15.0017 16.9418 15.6235 16.4934 16.0767L16.484 16.0813Z" fill="currentColor"/>
</symbol><symbol viewBox="0 0 10 10" fill="none" id="plus-klep" xmlns="http://www.w3.org/2000/svg">
<path d="M9.99992 3.57088V6.42912C9.99795 6.53755 9.95455 6.64111 9.87861 6.71854C9.80267 6.79596 9.69996 6.84138 9.59159 6.84545H8.31058C7.92519 6.85557 7.55839 7.01318 7.28578 7.28579C7.01317 7.5584 6.85556 7.92521 6.84544 8.3106V9.59161C6.84335 9.70063 6.79856 9.80448 6.72071 9.88083C6.64286 9.95719 6.53817 9.99995 6.42913 9.99993H3.57088C3.46245 9.99796 3.35889 9.95455 3.28146 9.87861C3.20404 9.80268 3.15863 9.69998 3.15456 9.59161V8.3106C3.14242 7.92449 2.98306 7.55764 2.70916 7.28523C2.43527 7.01282 2.06755 6.85548 1.68138 6.84545H0.408384C0.299361 6.84335 0.195521 6.79857 0.119168 6.72072C0.0428146 6.64287 6.00065e-05 6.53817 8.01717e-05 6.42912V3.57088C-0.000981594 3.51726 0.00851132 3.46395 0.0280562 3.414C0.0476011 3.36405 0.0768133 3.31845 0.113988 3.27979C0.151163 3.24112 0.195588 3.21017 0.24473 3.18868C0.293872 3.16719 0.34677 3.15559 0.400394 3.15455H1.68939C2.07478 3.14443 2.44159 2.98682 2.7142 2.71421C2.9868 2.44161 3.14444 2.0748 3.15456 1.68941V0.408398C3.15666 0.299374 3.20144 0.195525 3.27929 0.119172C3.35714 0.0428191 3.46183 5.83502e-05 3.57088 7.85154e-05H6.42913C6.48342 -0.000986227 6.53738 0.00878754 6.58784 0.0288303C6.63831 0.0488731 6.68426 0.0787827 6.72303 0.116805C6.7618 0.154828 6.79259 0.2002 6.81361 0.250269C6.83463 0.300338 6.84545 0.354096 6.84544 0.408398V1.68941C6.85354 2.07407 7.00941 2.44086 7.28072 2.71366C7.55204 2.98647 7.91798 3.14435 8.30259 3.15455H9.59159C9.6459 3.15454 9.69966 3.16537 9.74973 3.18638C9.79979 3.2074 9.84518 3.2382 9.8832 3.27696C9.92123 3.31573 9.95112 3.3617 9.97116 3.41216C9.99121 3.46263 10.001 3.51659 9.99992 3.57088Z" fill="currentColor"/>
</symbol><symbol viewBox="0 0 80 80" fill="none" id="pressure" xmlns="http://www.w3.org/2000/svg">
<g clip-path="url(#gclip0_1_2980)">
<rect x="-3.84082" y="17.3726" width="30" height="94" rx="12" transform="rotate(-45 -3.84082 17.3726)" fill="currentColor"/>
<path d="M74.528 60.0336H71.1459V58.2523C71.1457 57.8564 70.9883 57.4767 70.7084 57.1965C70.4285 56.9164 70.049 56.7587 69.653 56.7581H63.237C62.841 56.7587 62.4615 56.9164 62.1816 57.1965C61.9017 57.4767 61.7444 57.8564 61.7441 58.2523V63.0805H58.9042V62.7473C58.9037 62.312 58.7305 61.8946 58.4226 61.5868C58.1148 61.279 57.6974 61.1058 57.262 61.1053H45.0495V51.3739C50.8204 50.1923 56.0065 47.055 59.7318 42.4921C63.4572 37.9292 65.4935 32.2202 65.4967 26.3297C65.4967 12.2422 54.0591 0.78125 40.0003 0.78125C25.9416 0.78125 14.5039 12.2422 14.5039 26.3297C14.5072 32.1919 16.524 37.8751 20.2166 42.428C23.9093 46.981 29.0538 50.1275 34.7891 51.3408V61.1055H22.6781C22.2428 61.106 21.8254 61.2791 21.5175 61.5869C21.2097 61.8948 21.0365 62.3121 21.0359 62.7475V63.0806H18.3128V58.2525C18.3125 57.8565 18.1552 57.4768 17.8753 57.1967C17.5954 56.9166 17.2158 56.7589 16.8198 56.7583H10.4047C10.0087 56.7589 9.62913 56.9166 9.34924 57.1967C9.06936 57.4768 8.91201 57.8565 8.91172 58.2525V60.0338H5.47266C5.22402 60.0337 4.98556 60.1325 4.80974 60.3083C4.63393 60.4842 4.53516 60.7226 4.53516 60.9713V75.1623C4.53516 75.411 4.63393 75.6494 4.80974 75.8253C4.98556 76.0011 5.22402 76.0998 5.47266 76.0998H8.91172V77.7248C8.91205 78.1208 9.06942 78.5004 9.34931 78.7805C9.6292 79.0606 10.0087 79.2182 10.4047 79.2188H16.8205C17.2164 79.2182 17.596 79.0605 17.8759 78.7804C18.1558 78.5003 18.3131 78.1207 18.3134 77.7247V72.8966H21.0359V73.2295C21.0364 73.6649 21.2095 74.0824 21.5174 74.3903C21.8253 74.6982 22.2427 74.8714 22.6781 74.8719H57.262C57.6974 74.8714 58.1149 74.6982 58.4227 74.3903C58.7306 74.0824 58.9038 73.6649 58.9042 73.2295V72.8966H61.7441V77.7247C61.7444 78.1207 61.9017 78.5003 62.1816 78.7804C62.4615 79.0605 62.8411 79.2182 63.237 79.2188H69.653C70.0489 79.2181 70.4285 79.0605 70.7084 78.7804C70.9882 78.5003 71.1456 78.1206 71.1459 77.7247V76.0997H74.528C74.7766 76.0997 75.0151 76.0009 75.1909 75.8251C75.3667 75.6493 75.4655 75.4108 75.4655 75.1622V60.9711C75.4655 60.7225 75.3667 60.484 75.1909 60.3082C75.0151 60.1324 74.7766 60.0336 74.528 60.0336ZM8.91172 74.2247H6.41016V61.9086H8.91172V74.2247ZM16.4378 77.3438H10.7867V72.6544H16.4378V77.3438ZM16.4378 70.7794H10.7867V65.2705H16.4378V70.7794ZM16.4378 63.3955H10.7867V58.6331H16.4378V63.3955ZM21.0353 71.0213H18.3128V64.9556H21.0353V71.0213ZM16.3791 26.3297C16.3789 13.2761 26.9755 2.65625 40.0003 2.65625C53.0252 2.65625 63.6217 13.2761 63.6217 26.3297C63.6217 39.3833 53.0252 50.0031 40.0003 50.0031C26.9755 50.0031 16.3791 39.3833 16.3791 26.3297ZM43.1745 51.6803V61.1055H36.6641V51.6592C38.8244 51.9439 41.0124 51.9509 43.1745 51.6803ZM57.0292 72.9966H22.9109V62.9809H57.0292V72.9966ZM61.7441 71.0213H58.9042V64.9556H61.7441V71.0213ZM69.2709 77.3438H63.6191V72.6544H69.2709V77.3438ZM69.2709 70.7794H63.6191V65.2705H69.2709V70.7794ZM69.2709 63.3955H63.6191V58.6331H69.2709V63.3955ZM73.5905 74.2247H71.1459V61.9086H73.5905V74.2247Z" fill="currentColor"/>
<path d="M25.0003 67.1875H25.3128C25.5615 67.1875 25.7999 67.0887 25.9757 66.9129C26.1515 66.7371 26.2503 66.4986 26.2503 66.25C26.2503 66.0013 26.1515 65.7629 25.9757 65.587C25.7999 65.4112 25.5615 65.3125 25.3128 65.3125H25.0003C24.7517 65.3125 24.5132 65.4112 24.3374 65.587C24.1616 65.7629 24.0628 66.0013 24.0628 66.25C24.0628 66.4986 24.1616 66.7371 24.3374 66.9129C24.5132 67.0887 24.7517 67.1875 25.0003 67.1875ZM28.4378 67.1875H42.8128C43.0614 67.1875 43.2999 67.0887 43.4757 66.9129C43.6515 66.7371 43.7503 66.4986 43.7503 66.25C43.7503 66.0013 43.6515 65.7629 43.4757 65.587C43.2999 65.4112 43.0614 65.3125 42.8128 65.3125H28.4378C28.1892 65.3125 27.9507 65.4112 27.7749 65.587C27.5991 65.7629 27.5003 66.0013 27.5003 66.25C27.5003 66.4986 27.5991 66.7371 27.7749 66.9129C27.9507 67.0887 28.1892 67.1875 28.4378 67.1875ZM34.1342 38.4707V41.0998C34.1347 41.5141 34.2994 41.9112 34.5924 42.2041C34.8853 42.4971 35.2825 42.6618 35.6967 42.6623H44.3039C44.7182 42.6618 45.1153 42.4971 45.4083 42.2041C45.7012 41.9112 45.8659 41.5141 45.8664 41.0998V38.4707C45.8659 38.0565 45.7012 37.6593 45.4083 37.3664C45.1153 37.0735 44.7182 36.9087 44.3039 36.9082H35.6967C35.2825 36.9087 34.8853 37.0735 34.5924 37.3664C34.2994 37.6593 34.1347 38.0565 34.1342 38.4707ZM40.9378 38.7832H43.9914V40.7873H40.9378V38.7832ZM36.0092 38.7832H39.0628V40.7873H36.0092V38.7832ZM48.5667 26.355C48.5667 26.6036 48.6655 26.8421 48.8413 27.0179C49.0171 27.1937 49.2556 27.2925 49.5042 27.2925H55.2681C55.5168 27.2925 55.7552 27.1937 55.931 27.0179C56.1068 26.8421 56.2056 26.6036 56.2056 26.355C56.2056 17.3351 48.882 9.99683 39.8802 9.99683C30.8783 9.99683 23.5547 17.3351 23.5547 26.355C23.5547 26.6036 23.6535 26.8421 23.8293 27.0179C24.0051 27.1937 24.2435 27.2925 24.4922 27.2925H30.0472C30.2958 27.2925 30.5343 27.1937 30.7101 27.0179C30.8859 26.8421 30.9847 26.6036 30.9847 26.355C30.9847 24.0233 31.9109 21.7872 33.5596 20.1385C35.2083 18.4898 37.4445 17.5635 39.7761 17.5635C42.1077 17.5635 44.3438 18.4898 45.9926 20.1385C47.6413 21.7872 48.5675 24.0233 48.5675 26.355H48.5667ZM52.0941 18.6282C53.3878 20.6703 54.1468 23.005 54.3014 25.4175H50.4011C50.2611 23.8144 49.7589 22.2641 48.9323 20.8835L52.0941 18.6282ZM29.1503 25.4175H25.4595C25.619 22.9136 26.4294 20.4948 27.8105 18.4003L30.8261 20.5512C29.877 22.0114 29.3013 23.6825 29.1497 25.4175H29.1503ZM31.9805 19.0714L28.9428 16.9045C30.4212 15.1854 32.2817 13.8365 34.3753 12.9659L35.5808 16.5321C34.2174 17.1198 32.9912 17.9845 31.9798 19.0714H31.9805ZM42.5995 16.0509C40.89 15.5786 39.0894 15.5425 37.3623 15.946L36.1519 12.3648C38.6677 11.6881 41.3203 11.7084 43.8255 12.4237L42.5995 16.0509ZM45.5912 13.0553C47.6854 13.9639 49.5358 15.3534 50.9925 17.111L47.8341 19.3642C46.8697 18.2493 45.686 17.345 44.3567 16.7079L45.5912 13.0553Z" fill="currentColor"/>
<path d="M46.1671 24.0021C45.9913 23.8263 45.7528 23.7275 45.5042 23.7275C45.2556 23.7275 45.0171 23.8263 44.8413 24.0021L41.1627 27.6807C40.6338 27.4267 40.039 27.3433 39.4606 27.4419C38.8823 27.5405 38.3488 27.8163 37.9339 28.2312C37.519 28.646 37.2432 29.1795 37.1446 29.7579C37.046 30.3363 37.1294 30.931 37.3834 31.46L36.0023 32.841C35.8265 33.0168 35.7278 33.2553 35.7278 33.5039C35.7278 33.7526 35.8265 33.991 36.0023 34.1668C36.1782 34.3427 36.4166 34.4414 36.6653 34.4414C36.9139 34.4414 37.1524 34.3427 37.3282 34.1668L38.7092 32.7858C39.2382 33.0398 39.8329 33.1232 40.4113 33.0246C40.9897 32.926 41.5231 32.6502 41.938 32.2353C42.3529 31.8204 42.6287 31.2869 42.7273 30.7085C42.8259 30.1302 42.7425 29.5354 42.4885 29.0065L46.1671 25.3279C46.3429 25.1521 46.4417 24.9136 46.4417 24.665C46.4417 24.4163 46.3429 24.1779 46.1671 24.0021ZM40.612 30.9097C40.4778 31.0427 40.3072 31.133 40.1217 31.1691C39.9362 31.2053 39.7441 31.1856 39.5698 31.1127C39.3955 31.0398 39.2466 30.9169 39.1421 30.7594C39.0376 30.602 38.982 30.4172 38.9824 30.2282C38.9829 30.0392 39.0393 29.8546 39.1445 29.6977C39.2498 29.5407 39.3992 29.4185 39.5738 29.3463C39.7485 29.2742 39.9406 29.2555 40.1259 29.2924C40.3113 29.3294 40.4815 29.4205 40.6151 29.5541C40.7942 29.7343 40.8945 29.9783 40.8939 30.2324C40.8934 30.4865 40.7919 30.7302 40.612 30.9097Z" fill="currentColor"/>
<path d="M61.1898 26.3297C61.1898 14.6223 51.6845 5.09766 40.0007 5.09766C29.5709 5.09766 20.8779 12.688 19.1321 22.6445C19.0891 22.8895 19.1452 23.1414 19.288 23.345C19.4308 23.5486 19.6486 23.6872 19.8935 23.7302C20.1385 23.7731 20.3905 23.7171 20.594 23.5743C20.7976 23.4315 20.9362 23.2137 20.9792 22.9687C22.5715 13.8916 30.4946 6.97266 40.0007 6.97266C50.6506 6.97266 59.3148 15.6562 59.3148 26.3297C59.3148 37.0031 50.6506 45.6875 40.0007 45.6875C30.2351 45.6875 22.1414 38.3859 20.8634 28.9442C20.8342 28.7182 20.724 28.5105 20.5531 28.3598C20.3822 28.2091 20.1623 28.1257 19.9345 28.125C19.8005 28.1251 19.6682 28.1539 19.5462 28.2094C19.4243 28.2649 19.3157 28.3459 19.2276 28.4468C19.1396 28.5477 19.0741 28.6664 19.0356 28.7947C18.9972 28.923 18.9866 29.058 19.0046 29.1908C20.4034 39.55 29.2853 47.5625 40.0007 47.5625C51.6845 47.5625 61.1898 38.037 61.1898 26.3297Z" fill="currentColor"/>
</g>
<defs>
<clipPath id="gclip0_1_2980">
<rect width="80" height="80" fill="currentColor"/>
</clipPath>
</defs>
</symbol><symbol viewBox="0 0 101 100" fill="none" id="puli" xmlns="http://www.w3.org/2000/svg">
<path fill-rule="evenodd" clip-rule="evenodd" d="M18.866 6.42907C19.3668 5.93344 20.1289 5.9717 20.592 6.4025L29.0453 8.9529C29.3063 9.03166 29.5441 9.17312 29.7379 9.36494L41.9523 21.4545C42.1582 21.6583 42.3076 21.9122 42.3858 22.1912L44.8752 31.078C45.1136 31.4925 45.0708 32.0448 44.6953 32.4165L38.8655 38.1867C38.411 38.6366 37.7395 38.7875 37.1362 38.5754L29.174 35.7758L17.6318 47.2C16.9808 47.8443 15.9324 47.8443 15.2814 47.2L3.77321 35.8094C3.1127 35.1557 3.1127 34.0885 3.77321 33.4348L15.3211 22.0049L12.7865 13.7034C12.6053 13.1098 12.768 12.4648 13.2091 12.0282L18.866 6.42907ZM40.4793 22.8171L42.4799 29.959L35.6881 27.5851L23.5705 15.5914L21.4867 8.76636L28.3867 10.8481L40.4793 22.8171ZM22.6857 17.5362L33.719 28.4567L28.9148 33.2118L17.8815 22.2913L22.6857 17.5362ZM37.6039 36.6148L30.7582 34.2078L35.404 29.6094L42.2604 32.0059L37.6039 36.6148ZM16.4566 23.7016L27.4899 34.6221L25.8002 36.2945L14.767 25.374L16.4566 23.7016ZM13.3421 26.7843L24.3754 37.7048L22.6857 39.3772L11.6524 28.4567L13.3421 26.7843ZM10.2276 29.867L21.2608 40.7875L19.5712 42.4599L8.53789 31.5394L10.2276 29.867ZM7.11303 32.9497L18.1463 43.8702L16.4566 45.5426L5.42336 34.6221L7.11303 32.9497ZM21.5502 15.8395L16.9308 20.4117L14.7628 13.311L19.3822 8.73877L21.5502 15.8395Z" fill="currentColor"/>
<path fill-rule="evenodd" clip-rule="evenodd" d="M18.866 53.2044C19.3668 52.7087 20.1289 52.747 20.592 53.1778L29.0453 55.7282C29.3063 55.807 29.5441 55.9484 29.7379 56.1402L41.9523 68.2298C42.1582 68.4336 42.3076 68.6875 42.3858 68.9665L44.8752 77.8533C45.1136 78.2678 45.0708 78.8201 44.6953 79.1918L38.8655 84.962C38.411 85.4119 37.7395 85.5628 37.1362 85.3507L29.174 82.5511L17.6318 93.9753C16.9808 94.6197 15.9324 94.6197 15.2814 93.9753L3.77321 82.5847C3.1127 81.931 3.1127 80.8638 3.77321 80.2101L15.3211 68.7802L12.7865 60.4787C12.6053 59.8851 12.768 59.2401 13.2091 58.8035L18.866 53.2044ZM40.4793 69.5924L42.4799 76.7343L35.6881 74.3604L23.5705 62.3667L21.4867 55.5417L28.3867 57.6235L40.4793 69.5924ZM22.6857 64.3115L33.719 75.232L28.9148 79.9871L17.8815 69.0666L22.6857 64.3115ZM37.6039 83.3901L30.7582 80.9831L35.404 76.3848L42.2604 78.7812L37.6039 83.3901ZM16.4566 70.4769L27.4899 81.3974L25.8002 83.0698L14.767 72.1493L16.4566 70.4769ZM13.3421 73.5596L24.3754 84.4801L22.6857 86.1525L11.6524 75.232L13.3421 73.5596ZM10.2276 76.6423L21.2608 87.5628L19.5712 89.2352L8.53789 78.3147L10.2276 76.6423ZM7.11303 79.725L18.1463 90.6455L16.4566 92.3179L5.42336 81.3974L7.11303 79.725ZM21.5502 62.6148L16.9308 67.187L14.7628 60.0863L19.3822 55.5141L21.5502 62.6148Z" fill="currentColor"/>
<path fill-rule="evenodd" clip-rule="evenodd" d="M77.3939 31.4813C76.826 32.8745 77.4947 34.4643 78.8878 35.0325C80.2812 35.6008 81.8715 34.9318 82.4396 33.5383L85.4281 26.2077C85.9961 24.8145 85.3273 23.2247 83.9342 22.6565C82.5408 22.0882 80.9506 22.7572 80.3824 24.1507L77.3939 31.4813ZM82.2389 24.9075L79.2503 32.2381C79.1003 32.6061 79.277 33.0261 79.6449 33.1762C80.013 33.3263 80.4331 33.1496 80.5832 32.7815L83.5717 25.4509C83.7217 25.0829 83.5451 24.6629 83.1771 24.5128C82.809 24.3627 82.3889 24.5394 82.2389 24.9075Z" fill="currentColor"/>
<path fill-rule="evenodd" clip-rule="evenodd" d="M59.7955 61.3192H54.1161C53.7803 61.3192 53.4831 61.154 53.3012 60.9006C53.1005 60.8826 52.8976 60.8269 52.7008 60.7286L47.355 58.0557C46.789 57.7727 46.4315 57.1942 46.4315 56.5615V54.6356H44.761C43.8383 54.6356 43.0904 53.8877 43.0904 52.9651V50.9604C43.0904 50.0378 43.8383 49.2898 44.761 49.2898H46.4315V47.364C46.4315 46.7312 46.789 46.1528 47.355 45.8698L52.7008 43.1969C52.8982 43.0982 53.1017 43.0426 53.303 43.0247C53.4851 42.7727 53.7814 42.6087 54.1161 42.6087H57.5317C58.0163 39.3949 60.7899 36.9311 64.139 36.9311C65.936 36.9311 67.5673 37.6404 68.7682 38.7944L69.9047 36.5214L69.4174 36.3214C66.0032 34.9203 64.3712 31.0167 65.7722 27.6025L71.2343 14.2921C69.5094 13.3073 68.7378 11.1734 69.5066 9.28327C70.344 7.22457 72.6917 6.23449 74.7504 7.07187L94.4142 15.0701C96.4729 15.9075 97.463 18.2552 96.6256 20.3139C95.8515 22.2171 93.7865 23.2071 91.8524 22.6841L86.3662 36.0534C85.5287 38.0943 83.7971 39.4983 81.8104 39.9984C81.8347 40.0849 81.8477 40.1762 81.8477 40.2704V42.6087H83.5181C84.4407 42.6087 85.1887 43.3567 85.1887 44.2793V45.9499H93.7946L95.7014 44.0431C96.7538 42.9907 98.5533 43.736 98.5533 45.2243V55.3624C98.5533 56.8507 96.7538 57.5961 95.7014 56.5437L93.7946 54.6369H85.1887V55.9733H90.2004C91.123 55.9733 91.871 56.7213 91.871 57.6439V62.9897C91.871 63.9123 91.123 64.6603 90.2004 64.6603H85.4693L88.2915 75.9492C88.2975 75.973 88.3029 75.9969 88.3078 76.0207H90.5917C91.0348 76.0207 91.4597 76.1968 91.773 76.51L94.7227 79.4598C95.036 79.773 95.212 80.198 95.212 80.641V83.0371C95.212 83.9598 94.4641 84.7077 93.5414 84.7077H64.8076C63.885 84.7077 63.137 83.9598 63.137 83.0371V80.7772C63.137 80.1445 63.4946 79.566 64.0605 79.283L70.2323 76.1971C70.4643 76.0811 70.7201 76.0207 70.9794 76.0207H72.8784L70.0383 64.6603H68.1489C67.2262 64.6603 66.4783 63.9123 66.4783 62.9897V61.3192H65.1417V69.9823C65.1417 70.5409 64.8626 71.0625 64.3978 71.3723L54.9614 77.6633C54.5079 77.9656 53.9354 78.0277 53.4276 77.8296L51.6058 77.119C50.3466 76.6278 50.1616 74.9224 51.2862 74.1727L59.7953 68.5L59.7955 61.3192ZM68.483 62.6556V60.985C68.483 60.0624 67.735 59.3145 66.8124 59.3145H65.1417V51.1805C65.4604 51.0127 65.6777 50.6783 65.6777 50.2931C65.6777 50.2345 65.6726 50.177 65.6629 50.1211C68.3018 49.5056 70.3398 47.3264 70.7469 44.6134H80.8139L80.8454 44.6139L80.8769 44.6134H83.184V56.3074C83.184 57.2301 83.9319 57.978 84.8546 57.978H89.8663V62.6556H68.483ZM60.826 49.4179C59.0885 48.4241 57.84 46.6725 57.531 44.6134H55.1168C55.1179 44.6391 55.1185 44.665 55.1185 44.6911V59.2344C55.1185 59.2613 55.1179 59.288 55.1167 59.3145H59.7956L59.7959 50.9613C59.7959 50.2655 60.2212 49.6692 60.826 49.4179ZM63.137 61.3192V69.8035L53.9941 75.8988L52.9323 75.4846L61.056 70.0688C61.5208 69.759 61.7999 69.2374 61.7999 68.6789L61.8002 61.3192H63.137ZM63.137 59.3145H61.8003L61.8005 51.2954H63.137V59.3145ZM79.843 42.6087V40.2704C79.843 40.2441 79.8441 40.218 79.8461 40.1921C79.1101 40.1549 78.3678 39.9943 77.6473 39.6986L71.7596 37.2825C71.7474 37.3145 71.7336 37.3463 71.7179 37.3776L70.1058 40.6019C70.4192 41.2216 70.6389 41.8968 70.7463 42.6087H79.843ZM67.4413 44.6134C67.4668 44.6144 67.4923 44.6144 67.5177 44.6134H68.7095C68.2515 46.7163 66.3791 48.291 64.139 48.291C61.8989 48.291 60.0265 46.7163 59.5685 44.6134H67.4413ZM67.809 40.7129L66.861 42.6087H59.5695C60.0293 40.5082 61.9005 38.9358 64.139 38.9358C65.6267 38.9358 66.9522 39.6304 67.809 40.7129ZM83.4029 64.6603H72.1047L74.9447 76.0202H86.2429L83.4029 64.6603ZM74.3914 77.9992C74.318 78.0164 74.2415 78.0254 74.1628 78.0254H71.0583L65.1417 80.9837V82.703H93.2073V80.7794L90.4533 78.0254H87.5274C87.3959 78.0254 87.2704 78.0001 87.1553 77.9541C87.0028 78 86.8403 78.0249 86.6708 78.0249H74.6838C74.5844 78.0249 74.4867 78.0161 74.3914 77.9992ZM46.4315 51.2945H45.0951V52.631H46.4315V51.2945ZM53.1138 45.2317L48.4362 47.5705V56.355L53.1138 58.6938V45.2317ZM93.2074 52.6322H85.1887V47.9546H93.2074V52.6322ZM95.2121 53.2193V47.3674L96.5486 46.031V54.5558L95.2121 53.2193ZM89.899 22.164L73.0142 15.2351L67.6268 28.3635C66.6461 30.7535 67.7885 33.486 70.1784 34.4668L78.4084 37.844C80.7983 38.8247 83.5308 37.6823 84.5116 35.2924L89.899 22.164ZM73.9951 8.92882L93.6589 16.9271C94.692 17.3473 95.1889 18.5255 94.7687 19.5586C94.3484 20.5918 93.1703 21.0886 92.1371 20.6684L72.4733 12.6701C71.4402 12.2499 70.9433 11.0717 71.3635 10.0386C71.7838 9.00545 72.9619 8.50859 73.9951 8.92882Z" fill="currentColor"/>
<path fill-rule="evenodd" clip-rule="evenodd" d="M32.398 43.6136C33.3206 43.6136 34.0685 42.8657 34.0685 41.943C34.0685 41.0204 33.3206 40.2725 32.398 40.2725C31.4753 40.2725 30.7274 41.0204 30.7274 41.943C30.7274 42.8657 31.4753 43.6136 32.398 43.6136ZM32.398 41.6089C32.2134 41.6089 32.0638 41.7585 32.0638 41.943C32.0638 42.1276 32.2134 42.2771 32.398 42.2771C32.5825 42.2771 32.7321 42.1276 32.7321 41.943C32.7321 41.7585 32.5825 41.6089 32.398 41.6089Z" fill="currentColor"/>
<path fill-rule="evenodd" clip-rule="evenodd" d="M40.7512 48.6257C40.7512 49.5483 40.0033 50.2963 39.0806 50.2963C38.158 50.2963 37.41 49.5483 37.41 48.6257C37.41 47.7031 38.158 46.9551 39.0806 46.9551C40.0033 46.9551 40.7512 47.7031 40.7512 48.6257ZM38.7465 48.6257C38.7465 48.4412 38.8961 48.2916 39.0806 48.2916C39.2651 48.2916 39.4147 48.4412 39.4147 48.6257C39.4147 48.8102 39.2651 48.9598 39.0806 48.9598C38.8961 48.9598 38.7465 48.8102 38.7465 48.6257Z" fill="currentColor"/>
<path fill-rule="evenodd" clip-rule="evenodd" d="M32.398 50.2963C33.3206 50.2963 34.0685 49.5483 34.0685 48.6257C34.0685 47.7031 33.3206 46.9551 32.398 46.9551C31.4753 46.9551 30.7274 47.7031 30.7274 48.6257C30.7274 49.5483 31.4753 50.2963 32.398 50.2963ZM32.398 48.2916C32.2134 48.2916 32.0638 48.4412 32.0638 48.6257C32.0638 48.8102 32.2134 48.9598 32.398 48.9598C32.5825 48.9598 32.7321 48.8102 32.7321 48.6257C32.7321 48.4412 32.5825 48.2916 32.398 48.2916Z" fill="currentColor"/>
<path fill-rule="evenodd" clip-rule="evenodd" d="M34.0685 55.3077C34.0685 56.2303 33.3206 56.9783 32.398 56.9783C31.4753 56.9783 30.7274 56.2303 30.7274 55.3077C30.7274 54.3851 31.4753 53.6371 32.398 53.6371C33.3206 53.6371 34.0685 54.3851 34.0685 55.3077ZM32.0638 55.3077C32.0638 55.1232 32.2134 54.9736 32.398 54.9736C32.5825 54.9736 32.7321 55.1232 32.7321 55.3077C32.7321 55.4922 32.5825 55.6418 32.398 55.6418C32.2134 55.6418 32.0638 55.4922 32.0638 55.3077Z" fill="currentColor"/>
<path fill-rule="evenodd" clip-rule="evenodd" d="M25.7153 50.2963C26.6379 50.2963 27.3858 49.5483 27.3858 48.6257C27.3858 47.7031 26.6379 46.9551 25.7153 46.9551C24.7926 46.9551 24.0447 47.7031 24.0447 48.6257C24.0447 49.5483 24.7926 50.2963 25.7153 50.2963ZM25.7153 48.2916C25.5308 48.2916 25.3812 48.4412 25.3812 48.6257C25.3812 48.8102 25.5308 48.9598 25.7153 48.9598C25.8998 48.9598 26.0494 48.8102 26.0494 48.6257C26.0494 48.4412 25.8998 48.2916 25.7153 48.2916Z" fill="currentColor"/>
<path fill-rule="evenodd" clip-rule="evenodd" d="M14.0219 54.0029C14.0219 54.9255 13.2739 55.6735 12.3513 55.6735C11.4287 55.6735 10.6807 54.9255 10.6807 54.0029C10.6807 53.0803 11.4287 52.3323 12.3513 52.3323C13.2739 52.3323 14.0219 53.0803 14.0219 54.0029ZM12.0172 54.0029C12.0172 53.8184 12.1668 53.6688 12.3513 53.6688C12.5358 53.6688 12.6854 53.8184 12.6854 54.0029C12.6854 54.1874 12.5358 54.337 12.3513 54.337C12.1668 54.337 12.0172 54.1874 12.0172 54.0029Z" fill="currentColor"/>
<path fill-rule="evenodd" clip-rule="evenodd" d="M7.72618 61.6746C8.64881 61.6746 9.39675 60.9266 9.39675 60.004C9.39675 59.0814 8.64881 58.3334 7.72618 58.3334C6.80355 58.3334 6.05561 59.0814 6.05561 60.004C6.05561 60.9266 6.80355 61.6746 7.72618 61.6746ZM7.72618 59.6699C7.54166 59.6699 7.39207 59.8195 7.39207 60.004C7.39207 60.1885 7.54166 60.3381 7.72618 60.3381C7.91071 60.3381 8.0603 60.1885 8.0603 60.004C8.0603 59.8195 7.91071 59.6699 7.72618 59.6699Z" fill="currentColor"/>
<path fill-rule="evenodd" clip-rule="evenodd" d="M40.7512 55.3077C40.7512 56.2303 40.0033 56.9783 39.0806 56.9783C38.158 56.9783 37.41 56.2303 37.41 55.3077C37.41 54.3851 38.158 53.6371 39.0806 53.6371C40.0033 53.6371 40.7512 54.3851 40.7512 55.3077ZM38.7465 55.3077C38.7465 55.1232 38.8961 54.9736 39.0806 54.9736C39.2651 54.9736 39.4147 55.1232 39.4147 55.3077C39.4147 55.4922 39.2651 55.6418 39.0806 55.6418C38.8961 55.6418 38.7465 55.4922 38.7465 55.3077Z" fill="currentColor"/>
</symbol><symbol viewBox="0 0 101 100" fill="none" id="servises" xmlns="http://www.w3.org/2000/svg">
<path fill-rule="evenodd" clip-rule="evenodd" d="M60.6895 11.1111H41.7493L14.9286 14.2242C14.1288 14.317 13.5255 14.9944 13.5255 15.7996V21.3908L10.0518 29.8578C9.62369 30.9014 10.3911 32.0458 11.5191 32.0458H25.5544C26.4303 32.0458 27.1403 31.3357 27.1403 30.4598V22.53H33.7713C34.1299 22.53 34.4969 22.4084 34.7917 22.1533C35.3897 21.6357 35.9298 21.0201 36.443 20.4353L36.663 20.1851C37.2597 19.5091 37.8618 18.856 38.6005 18.2719C40.0368 17.1363 42.0859 16.1862 45.7083 16.1862C49.4259 16.1862 51.8265 17.1881 53.4387 18.3789C54.8241 19.4022 55.6788 20.5999 56.301 21.5812L53.3007 26.4567C52.6504 27.5134 53.4106 28.8739 54.6514 28.8739H60.6895C61.5654 28.8739 62.2755 28.1638 62.2755 27.2879V12.697C62.2755 11.8211 61.5654 11.1111 60.6895 11.1111ZM11.9921 30.1426L15.1152 22.53H25.2372V30.1426H11.9921ZM33.6453 20.6269H15.4286V16.0821L41.8594 13.0142H60.3723V20.6269H57.9496C57.2816 19.5653 56.2621 18.0983 54.5694 16.8481C52.6031 15.3957 49.7985 14.283 45.7083 14.283C41.697 14.283 39.2223 15.3542 37.4202 16.779C36.5397 17.4751 35.844 18.2371 35.2362 18.9256L35.0081 19.1848C34.52 19.7402 34.0987 20.2195 33.6453 20.6269ZM57.9517 22.53H60.3723V26.9707H55.219L57.9517 22.53Z" fill="currentColor"/>
<path fill-rule="evenodd" clip-rule="evenodd" d="M23.2608 50.1243C23.2608 53.6279 20.4205 56.4682 16.9169 56.4682C13.4133 56.4682 10.5731 53.6279 10.5731 50.1243C10.5731 46.6207 13.4133 43.7805 16.9169 43.7805C20.4205 43.7805 23.2608 46.6207 23.2608 50.1243ZM21.3576 50.1243C21.3576 52.5769 19.3694 54.565 16.9169 54.565C14.4644 54.565 12.4762 52.5769 12.4762 50.1243C12.4762 47.6718 14.4644 45.6836 16.9169 45.6836C19.3694 45.6836 21.3576 47.6718 21.3576 50.1243Z" fill="currentColor"/>
<path fill-rule="evenodd" clip-rule="evenodd" d="M16.9168 62.8401C16.9017 64.5788 15.4874 65.9841 13.745 65.9841C11.9932 65.9841 10.5731 64.5638 10.5731 62.8122C10.5731 61.0606 11.9932 59.6401 13.745 59.6401C15.4875 59.6401 16.9018 61.0454 16.9168 62.7841C16.9319 61.0455 18.3461 59.6401 20.0886 59.6401C21.8404 59.6401 23.2605 61.0605 23.2605 62.8121C23.2605 64.5637 21.8404 65.9841 20.0886 65.9841C18.3461 65.9841 16.9318 64.5789 16.9168 62.8401ZM13.745 64.081C14.4455 64.081 15.0138 63.5128 15.0138 62.8121C15.0138 62.1115 14.4456 61.5433 13.745 61.5433C13.0445 61.5433 12.4762 62.1115 12.4762 62.8122C12.4762 63.5128 13.0444 64.081 13.745 64.081ZM21.3574 62.8121C21.3574 63.5128 20.7891 64.081 20.0886 64.081C19.388 64.081 18.8198 63.5128 18.8198 62.8122C18.8198 62.1115 19.388 61.5433 20.0886 61.5433C20.7892 61.5433 21.3574 62.1115 21.3574 62.8121Z" fill="currentColor"/>
<path fill-rule="evenodd" clip-rule="evenodd" d="M51.8073 59.6403C51.8073 61.3921 50.3873 62.8122 48.6354 62.8122C46.8835 62.8122 45.4635 61.3921 45.4635 59.6403C45.4635 57.8885 46.8835 56.4683 48.6354 56.4683C50.3873 56.4683 51.8073 57.8885 51.8073 59.6403ZM49.9042 59.6403C49.9042 60.341 49.3362 60.909 48.6354 60.909C47.9346 60.909 47.3666 60.341 47.3666 59.6403C47.3666 58.9395 47.9346 58.3715 48.6354 58.3715C49.3362 58.3715 49.9042 58.9395 49.9042 59.6403Z" fill="currentColor"/>
<path fill-rule="evenodd" clip-rule="evenodd" d="M48.6362 65.9842C52.1401 65.9842 54.9801 63.144 54.9801 59.6404C54.9801 56.1368 52.1401 53.2966 48.6362 53.2966C45.1324 53.2966 42.2924 56.1368 42.2924 59.6404C42.2924 63.144 45.1324 65.9842 48.6362 65.9842ZM48.6362 64.0811C51.0889 64.0811 53.0769 62.093 53.0769 59.6404C53.0769 57.1878 51.0889 55.1997 48.6362 55.1997C46.1835 55.1997 44.1955 57.1878 44.1955 59.6404C44.1955 62.093 46.1835 64.0811 48.6362 64.0811Z" fill="currentColor"/>
<path fill-rule="evenodd" clip-rule="evenodd" d="M4.22949 37.437C4.22949 35.6852 5.64961 34.2651 7.40141 34.2651H26.4329C27.9179 34.2651 29.1645 35.2855 29.5098 36.6633C29.7281 36.5501 29.9761 36.4861 30.239 36.4861H32.1422C33.0181 36.4861 33.7281 37.1962 33.7281 38.0721V39.658H35.3141C36.19 39.658 36.9 40.3681 36.9 41.244V49.491C36.9 50.3669 36.19 51.077 35.3141 51.077H33.7281V52.6629C33.7281 53.5388 33.0181 54.2489 32.1422 54.2489H30.239C30.0135 54.2489 29.7991 54.2018 29.6049 54.117V55.6487C29.7991 55.5639 30.0135 55.5169 30.239 55.5169H35.3141C35.5398 55.5169 35.7544 55.564 35.9488 55.649V53.2967C35.9488 51.5449 37.3689 50.1248 39.1207 50.1248H58.1522C59.904 50.1248 61.3242 51.5449 61.3242 53.2967V55.6487C61.5184 55.5639 61.7328 55.5169 61.9583 55.5169H67.0334C67.1566 55.5169 67.2766 55.5309 67.3918 55.5575C67.479 55.5312 67.5715 55.517 67.6674 55.517H79.4035V54.2482H67.6674C67.1418 54.2482 66.7158 53.8222 66.7158 53.2967C66.7158 52.7711 67.1418 52.3451 67.6674 52.3451H89.2364C90.1123 52.3451 90.8224 53.0551 90.8224 53.931V68.5219C90.8224 69.3978 90.1123 70.1079 89.2364 70.1079H80.9894C80.1135 70.1079 79.4035 69.3978 79.4035 68.5219V66.9359H67.6674C67.5713 66.9359 67.4787 66.9217 67.3913 66.8952C67.2763 66.9218 67.1565 66.9358 67.0334 66.9358H61.9583C61.6953 66.9358 61.4473 66.8718 61.229 66.7585C60.8835 68.1362 59.637 69.1563 58.1522 69.1563H39.1207C37.6358 69.1563 36.3893 68.136 36.0439 66.7583C35.8254 66.8717 35.5772 66.9358 35.3141 66.9358H30.239C29.9761 66.9358 29.7281 66.8718 29.5097 66.7585C29.1642 68.1361 27.9177 69.1563 26.4329 69.1563H7.40141C5.64961 69.1563 4.22949 67.7361 4.22949 65.9843V37.437ZM7.40141 36.1683H26.4329C27.1337 36.1683 27.7017 36.7363 27.7017 37.437V65.9843C27.7017 66.6851 27.1337 67.2531 26.4329 67.2531H7.40141C6.70069 67.2531 6.13265 66.6851 6.13265 65.9843V37.437C6.13265 36.7363 6.70069 36.1683 7.40141 36.1683ZM68.6193 58.6889V57.4202H79.4035V58.6889H68.6193ZM67.0334 60.592C67.1565 60.592 67.2763 60.5779 67.3913 60.5514C67.4787 60.5779 67.5713 60.5921 67.6674 60.5921H79.4035V61.8609H67.6674C67.5715 61.8609 67.479 61.875 67.3918 61.9014C67.2766 61.8748 67.1566 61.8607 67.0334 61.8607H61.9583C61.7328 61.8607 61.5184 61.9078 61.3242 61.9926V60.4601C61.5184 60.5449 61.7328 60.592 61.9583 60.592H67.0334ZM68.6193 65.0328V63.764H79.4035V65.0328H68.6193ZM35.3141 60.592C35.5398 60.592 35.7544 60.5448 35.9488 60.4598V61.9928C35.7544 61.9079 35.5398 61.8607 35.3141 61.8607H30.239C30.0135 61.8607 29.7991 61.9078 29.6049 61.9926V60.4601C29.7991 60.5449 30.0135 60.592 30.239 60.592H35.3141ZM30.5562 38.3893V52.3457H31.825V50.7598C31.825 49.8839 32.535 49.1738 33.4109 49.1738H34.9969V41.5612H33.4109C32.535 41.5612 31.825 40.8511 31.825 39.9752V38.3893H30.5562ZM30.5562 57.42V58.6888H34.9969V57.42H30.5562ZM30.5562 63.7639V65.0326H34.9969V63.7639H30.5562ZM62.2755 58.6888V57.42H66.7162V58.6888H62.2755ZM62.2755 65.0326V63.7639H66.7162V65.0326H62.2755ZM58.1522 52.0279H39.1207C38.42 52.0279 37.8519 52.596 37.8519 53.2967V65.9844C37.8519 66.6851 38.42 67.2531 39.1207 67.2531H58.1522C58.853 67.2531 59.421 66.6851 59.421 65.9844V53.2967C59.421 52.596 58.853 52.0279 58.1522 52.0279ZM81.3066 54.2482V68.2047H88.9192V54.2482H81.3066Z" fill="currentColor"/>
<path fill-rule="evenodd" clip-rule="evenodd" d="M48.6362 24.7499C48.6362 26.5017 47.2162 27.9218 45.4643 27.9218C43.7124 27.9218 42.2924 26.5017 42.2924 24.7499C42.2924 22.9981 43.7124 21.5779 45.4643 21.5779C47.2162 21.5779 48.6362 22.9981 48.6362 24.7499ZM46.7331 24.7499C46.7331 25.4506 46.1651 26.0186 45.4643 26.0186C44.7635 26.0186 44.1955 25.4506 44.1955 24.7499C44.1955 24.0491 44.7635 23.4811 45.4643 23.4811C46.1651 23.4811 46.7331 24.0491 46.7331 24.7499Z" fill="currentColor"/>
<path fill-rule="evenodd" clip-rule="evenodd" d="M41.3402 31.0934C41.3402 30.6195 41.6866 30.2265 42.14 30.1539C40.3278 29.0371 39.1199 27.0343 39.1199 24.7493C39.1199 21.2457 41.9599 18.4055 45.4637 18.4055C48.9676 18.4055 51.8076 21.2457 51.8076 24.7493C51.8076 27.0343 50.5996 29.0371 48.7874 30.1539C49.2408 30.2266 49.5872 30.6195 49.5872 31.0934V34.9831C49.5872 35.5134 49.3222 36.0086 48.881 36.3027L46.3435 37.9944C45.8107 38.3496 45.1167 38.3496 44.584 37.9944L42.0464 36.3027C41.6052 36.0086 41.3402 35.5134 41.3402 34.9831V31.0934ZM45.4637 29.19C47.9165 29.19 49.9044 27.2019 49.9044 24.7493C49.9044 22.2967 47.9165 20.3086 45.4637 20.3086C43.011 20.3086 41.0231 22.2967 41.0231 24.7493C41.0231 27.2019 43.011 29.19 45.4637 29.19ZM47.6841 32.045H43.2434V33.3138H47.6841V32.045ZM43.8487 35.2169L45.4637 36.2936L47.0788 35.2169H43.8487Z" fill="currentColor"/>
<path fill-rule="evenodd" clip-rule="evenodd" d="M74.6455 39.6579C73.7696 39.6579 73.0595 40.368 73.0595 41.2439V49.4909C73.0595 50.3668 73.7696 51.0768 74.6455 51.0768H89.2363C90.1122 51.0768 90.8223 50.3668 90.8223 49.4909V47.9049H92.091V49.4909C92.091 50.3668 92.8011 51.0768 93.677 51.0768H95.5802C96.4561 51.0768 97.1661 50.3668 97.1661 49.4909V41.2439C97.1661 40.368 96.4561 39.6579 95.5802 39.6579H93.677C92.8011 39.6579 92.091 40.368 92.091 41.2439V42.8298H90.8223V41.2439C90.8223 40.368 90.1122 39.6579 89.2363 39.6579H74.6455ZM74.9627 49.1737V41.5611H88.9191V43.147C88.9191 44.0229 89.6292 44.733 90.5051 44.733H92.4082C93.2841 44.733 93.9942 44.0229 93.9942 43.147V41.5611H95.263V49.1737H93.9942V47.5877C93.9942 46.7118 93.2841 46.0018 92.4082 46.0018H90.5051C89.6292 46.0018 88.9191 46.7118 88.9191 47.5877V49.1737H74.9627Z" fill="currentColor"/>
<path fill-rule="evenodd" clip-rule="evenodd" d="M9.62119 76.1345C9.62119 75.2586 10.3312 74.5485 11.2071 74.5485H25.798C26.6739 74.5485 27.384 75.2586 27.384 76.1345V78.0377C27.384 78.9136 26.6739 79.6236 25.798 79.6236H11.2071C10.3312 79.6236 9.62119 78.9136 9.62119 78.0377V76.1345ZM11.5243 76.4517V77.7205H25.4808V76.4517H11.5243Z" fill="currentColor"/>
<path fill-rule="evenodd" clip-rule="evenodd" d="M9.62119 82.4783C9.62119 81.6024 10.3312 80.8924 11.2071 80.8924H25.798C26.6739 80.8924 27.384 81.6024 27.384 82.4783V84.3815C27.384 85.2574 26.6739 85.9675 25.798 85.9675H11.2071C10.3312 85.9675 9.62119 85.2574 9.62119 84.3815V82.4783ZM11.5243 82.7955V84.0643H25.4808V82.7955H11.5243Z" fill="currentColor"/>
<path fill-rule="evenodd" clip-rule="evenodd" d="M28.6527 69.7907C28.6527 68.9148 29.3628 68.2047 30.2387 68.2047H35.3138C36.1897 68.2047 36.8997 68.9148 36.8997 69.7907V71.3766H60.3719V69.7907C60.3719 68.9148 61.082 68.2047 61.9579 68.2047H76.5487C77.4246 68.2047 78.1347 68.9148 78.1347 69.7907V71.3766H89.2364C90.1123 71.3766 90.8224 72.0867 90.8224 72.9626V87.5534C90.8224 88.4293 90.1123 89.1394 89.2364 89.1394H77.5752C76.9745 89.1394 76.4253 88.8 76.1567 88.2627L70.2512 76.4517H36.5362L30.6308 88.2627C30.3621 88.8 29.8129 89.1394 29.2122 89.1394H4.8633C3.9874 89.1394 3.27734 88.4293 3.27734 87.5534V72.9626C3.27734 72.0867 3.9874 71.3766 4.8633 71.3766H28.6527V69.7907ZM30.5559 70.1079V71.6938C30.5559 72.5697 29.8458 73.2798 28.9699 73.2798H5.1805V87.2362H29.0162L34.9217 75.4252C35.1903 74.8879 35.7395 74.5485 36.3402 74.5485H70.4472C71.0479 74.5485 71.5971 74.8879 71.8657 75.4252L77.7712 87.2362H88.9192V73.2798H77.8175C76.9416 73.2798 76.2316 72.5697 76.2316 71.6938V70.1079H62.2751V71.6938C62.2751 72.5697 61.565 73.2798 60.6891 73.2798H36.5825C35.7066 73.2798 34.9966 72.5697 34.9966 71.6938V70.1079H30.5559Z" fill="currentColor"/>
<path fill-rule="evenodd" clip-rule="evenodd" d="M72.55 48.0279V44.3768C72.55 44.0116 72.3622 43.6465 71.9867 43.8291H70.109C69.9213 43.8291 69.9213 43.8291 69.7336 44.0115L67.8559 45.8372C67.6681 45.8372 67.6681 46.0198 67.6681 46.2023C67.6681 46.3848 67.6681 46.3849 67.8557 46.5673L69.7335 48.393C69.7335 48.5755 69.9212 48.5755 70.109 48.5755H71.9867C72.3622 48.5755 72.55 48.393 72.55 48.0279ZM71.4234 44.9244V47.4802H70.4846L69.1702 46.2023L70.4846 44.9244H71.4234Z" fill="currentColor"/>
</symbol><symbol viewBox="0 0 80 80" fill="none" id="temperature" xmlns="http://www.w3.org/2000/svg">
<g clip-path="url(#jclip0_1_2971)">
<rect x="-3.84082" y="17.3726" width="30" height="94" rx="12" transform="rotate(-45 -3.84082 17.3726)" fill="currentColor"/>
<path d="M54.9824 51.4624L54.9808 51.4608C54.587 51.1827 54.387 50.7968 54.387 50.3139V9.52957C54.387 5.13739 50.812 1.56395 46.4167 1.56395C42.0245 1.56395 38.4511 5.13739 38.4511 9.52957V50.3124C38.4511 50.7968 38.2511 51.1827 37.8542 51.4608C33.9214 54.2452 31.573 58.7796 31.573 63.5905C31.573 71.7749 38.2324 78.4343 46.4167 78.4343C54.6042 78.4343 61.2652 71.7749 61.2652 63.5905C61.2636 58.7796 58.9167 54.2452 54.9824 51.4624ZM46.4152 76.5624C39.2636 76.5624 33.4449 70.7436 33.4449 63.5921C33.4449 59.3874 35.498 55.4249 38.9339 52.9936C39.8308 52.3624 40.3245 51.4108 40.3245 50.3139V9.52957C40.3245 6.1702 43.0574 3.43739 46.4167 3.43739C49.7792 3.43739 52.5136 6.1702 52.5136 9.52957V50.3124C52.5136 51.4093 53.0074 52.3608 53.9027 52.9921C57.3402 55.4249 59.3917 59.3874 59.3917 63.5921C59.3902 70.7436 53.5699 76.5624 46.4152 76.5624ZM51.5495 54.8202L50.3933 54.1421C49.9464 53.8796 49.6995 53.4499 49.6995 52.9296V16.1733C49.6995 14.3655 48.2261 12.8936 46.4152 12.8936C44.6074 12.8936 43.1355 14.3655 43.1355 16.1733V52.9311C43.1355 53.4483 42.8886 53.8796 42.4417 54.1421L41.2855 54.8202C38.1839 56.6436 36.2574 60.0046 36.2574 63.5921C36.2574 69.1936 40.8136 73.7499 46.4152 73.7499C52.0183 73.7499 56.5777 69.1936 56.5777 63.5921C56.5777 60.0046 54.6511 56.6436 51.5495 54.8202ZM46.4152 71.8764C41.8464 71.8764 38.1308 68.1593 38.1308 63.5921C38.1308 60.6655 39.7042 57.9249 42.2339 56.4374L43.3917 55.7577C44.4199 55.1514 45.0089 54.1218 45.0089 52.9311V16.1733C45.0089 15.4108 45.6527 14.7671 46.4152 14.7671C47.1792 14.7671 47.8261 15.4108 47.8261 16.1733V52.9311C47.8261 54.1249 48.4167 55.1546 49.4449 55.7593L50.5995 56.4358C53.1308 57.9233 54.7042 60.6655 54.7042 63.5921C54.7042 68.1593 50.987 71.8764 46.4152 71.8764ZM29.7058 11.903C29.462 11.1983 29.2167 10.4952 28.9792 9.7952C28.9132 9.60093 28.7853 9.43367 28.6151 9.31908C28.445 9.20449 28.2419 9.14889 28.037 9.16082C27.8323 9.17308 27.6372 9.25216 27.4817 9.38594C27.3262 9.51972 27.2188 9.70081 27.1761 9.90145C26.9058 11.1749 26.4199 12.4483 25.9042 13.7968C25.612 14.5624 25.3136 15.3436 25.0558 16.1327C24.262 14.7655 23.7136 12.9124 23.1417 10.9811C22.2136 7.8452 21.1605 4.29051 18.7417 1.84207C18.605 1.70335 18.4283 1.61084 18.2364 1.57751C18.0445 1.54417 17.8469 1.57166 17.6714 1.65614C17.4955 1.74014 17.3502 1.87699 17.2557 2.04759C17.1613 2.21818 17.1226 2.414 17.1449 2.6077C17.7011 7.48426 15.5152 11.4561 13.3995 15.2968C11.3027 19.1061 9.32142 22.703 9.90111 26.9999C10.8355 33.9155 17.0824 37.6405 22.4933 37.6405H22.5089C25.0808 37.6374 27.398 36.8561 29.2136 35.3796C31.2292 33.7421 32.5011 31.3108 32.8933 28.3468C33.587 23.0921 31.6136 17.403 29.7058 11.903ZM22.5058 35.7671H22.4917C20.7683 35.7671 18.9449 35.3265 17.2949 34.4686C17.148 33.3202 17.2808 32.1296 17.687 31.0124C18.473 28.8561 19.948 26.2452 21.1324 24.1483C21.2542 23.9327 21.373 23.7233 21.4855 23.5233C21.6152 23.7514 21.7511 23.9905 21.8917 24.2389C23.0949 26.353 24.5917 28.9843 25.3855 31.1139C25.8761 32.4171 25.9714 33.8093 25.6636 35.1389C25.6558 35.1702 25.6511 35.2015 25.6464 35.2327C24.6199 35.5999 23.5417 35.7655 22.5058 35.7671ZM31.0355 28.1014C30.6495 31.0155 29.3558 32.9608 27.6964 34.1624C27.7777 32.9139 27.5933 31.653 27.1417 30.4561C26.2964 28.1874 24.7574 25.4827 23.5214 23.3108C23.0339 22.453 22.612 21.7124 22.3167 21.1436C22.2379 20.9913 22.1186 20.8637 21.9719 20.7746C21.8253 20.6856 21.657 20.6387 21.4855 20.6389C21.3138 20.639 21.1455 20.6862 20.9989 20.7755C20.8523 20.8648 20.733 20.9927 20.6542 21.1452C20.3667 21.7014 19.9667 22.4077 19.5042 23.2264C18.2855 25.3843 16.7683 28.0686 15.9292 30.3718C15.5985 31.2807 15.4098 32.2351 15.3699 33.2014C13.5214 31.6874 12.1324 29.5202 11.7574 26.7499C11.2605 23.0671 13.0964 19.7311 15.0402 16.2014C16.7839 13.0343 18.7167 9.52489 19.0542 5.39832C20.0777 7.2327 20.7199 9.39832 21.3464 11.5155C22.2152 14.4483 23.0355 17.2171 24.837 18.8608C24.9589 18.9718 25.1078 19.0487 25.2688 19.0838C25.4298 19.1189 25.5973 19.111 25.7542 19.0608C25.9112 19.0103 26.0521 18.9193 26.1627 18.7969C26.2732 18.6746 26.3495 18.5252 26.3839 18.3639C26.6542 17.0905 27.1402 15.8171 27.6558 14.4686C27.823 14.0311 27.9917 13.5905 28.1542 13.1452C29.9183 18.2405 31.6464 23.4749 31.0355 28.1014ZM60.037 12.4311C60.037 11.9139 60.4558 11.4936 60.9745 11.4936H66.0777C66.5949 11.4936 67.0152 11.9124 67.0152 12.4311C67.0152 12.9499 66.5964 13.3686 66.0777 13.3686H60.9745C60.4574 13.3671 60.037 12.9483 60.037 12.4311ZM60.037 17.3952C60.037 16.878 60.4558 16.4577 60.9745 16.4577H69.2652C69.7824 16.4577 70.2027 16.8764 70.2027 17.3952C70.2027 17.9139 69.7839 18.3327 69.2652 18.3327H60.9745C60.4574 18.3327 60.037 17.9139 60.037 17.3952ZM60.037 22.3608C60.037 21.8436 60.4558 21.4233 60.9745 21.4233H66.0777C66.5949 21.4233 67.0152 21.8421 67.0152 22.3608C67.0152 22.8796 66.5964 23.2983 66.0777 23.2983H60.9745C60.4574 23.2983 60.037 22.878 60.037 22.3608ZM70.2027 27.3218C70.2027 27.8389 69.7839 28.2593 69.2652 28.2593H60.9745C60.4574 28.2593 60.037 27.8405 60.037 27.3218C60.037 26.803 60.4558 26.3843 60.9745 26.3843H69.2652C69.7824 26.3843 70.2027 26.8046 70.2027 27.3218ZM60.037 32.2858C60.037 31.7686 60.4558 31.3483 60.9745 31.3483H66.0777C66.5949 31.3483 67.0152 31.7671 67.0152 32.2858C67.0152 32.8046 66.5964 33.2233 66.0777 33.2233H60.9745C60.4574 33.2233 60.037 32.8046 60.037 32.2858ZM70.2027 37.2514C70.2027 37.7686 69.7839 38.1889 69.2652 38.1889H60.9745C60.4574 38.1889 60.037 37.7702 60.037 37.2514C60.037 36.7327 60.4558 36.3139 60.9745 36.3139H69.2652C69.7824 36.3155 70.2027 36.7343 70.2027 37.2514ZM60.037 42.2171C60.037 41.6999 60.4558 41.2796 60.9745 41.2796H66.0777C66.5949 41.2796 67.0152 41.6983 67.0152 42.2171C67.0152 42.7358 66.5964 43.1546 66.0777 43.1546H60.9745C60.4574 43.153 60.037 42.7343 60.037 42.2171ZM70.2027 47.1811C70.2027 47.6983 69.7839 48.1186 69.2652 48.1186H60.9745C60.4574 48.1186 60.037 47.6999 60.037 47.1811C60.037 46.6624 60.4558 46.2436 60.9745 46.2436H69.2652C69.7824 46.2452 70.2027 46.6639 70.2027 47.1811Z" fill="currentColor"/>
</g>
<defs>
<clipPath id="jclip0_1_2971">
<rect width="80" height="80" fill="currentColor"/>
</clipPath>
</defs>
</symbol></svg>