<svg width="280" height="240" viewBox="0 0 280 240" fill="none" xmlns="http://www.w3.org/2000/svg">
<g clip-path="url(#clip0_1_2724)">
<path d="M54.4828 195.888V264.757C54.4828 266.431 53.3102 268.089 50.9696 269.362C46.2972 271.905 38.6967 271.905 34.011 269.362C31.6703 268.089 30.5 266.431 30.5 264.757L30.5 195.888C30.5 197.562 31.6703 199.222 34.011 200.493C38.6967 203.036 46.2883 203.036 50.9696 200.493C53.3102 199.222 54.4828 197.556 54.4828 195.888Z" fill="#D4D4D4"/>
<path d="M54.4867 195.886C54.4867 197.561 53.3141 199.221 50.9735 200.492C46.3011 203.035 38.7006 203.035 34.0149 200.492C31.6742 199.221 30.5039 197.561 30.5039 195.886C30.5039 194.212 31.6742 192.552 34.0149 191.281C38.6873 188.738 46.2922 188.738 50.9735 191.281C53.3141 192.552 54.4867 194.218 54.4867 195.886Z" fill="#EEEEEE"/>
<path d="M55.873 238.545L55.6906 240.509C55.5215 242.357 54.053 244.097 51.3275 245.296C45.8785 247.691 37.4638 247.004 32.5333 243.76C30.068 242.137 28.9422 240.184 29.1113 238.336L29.2937 236.373C29.1224 238.221 30.2505 240.174 32.7135 241.794C37.6462 245.039 46.0632 245.725 51.5099 243.331C54.2332 242.135 55.7017 240.394 55.873 238.545Z" fill="#E1E1E1"/>
<path d="M55.8726 238.544C55.7013 240.392 54.235 242.136 51.5095 243.331C46.0606 245.728 37.6458 245.039 32.7131 241.795C30.25 240.174 29.122 238.221 29.2933 236.373C29.3971 235.404 29.8194 234.489 30.5014 233.756V236.978C30.5014 238.653 31.6718 240.31 34.0124 241.583C38.6982 244.126 46.2897 244.126 50.971 241.583C53.3117 240.31 54.4842 238.653 54.4842 236.978V234.849C55.5255 236.042 55.9861 237.315 55.8726 238.544Z" fill="#EEEEEE"/>
<path d="M55.8691 231.078L55.6867 233.043C55.5176 234.892 54.0491 236.631 51.3235 237.831C45.8746 240.225 37.4599 239.537 32.5294 236.294C30.0641 234.672 28.9383 232.719 29.1074 230.871L29.2898 228.907C29.1185 230.753 30.2465 232.708 32.7096 234.329C37.6423 237.573 46.0593 238.26 51.506 235.865C54.2293 234.67 55.6978 232.926 55.8691 231.078Z" fill="#E1E1E1"/>
<path d="M55.8726 231.078C55.7013 232.926 54.235 234.67 51.5095 235.865C46.0606 238.26 37.6458 237.571 32.7131 234.328C30.25 232.708 29.122 230.755 29.2933 228.907C29.3974 227.937 29.8196 227.022 30.5014 226.288V229.51C30.5014 231.184 31.6718 232.844 34.0124 234.115C38.6982 236.658 46.2897 236.658 50.971 234.115C53.3117 232.842 54.4842 231.184 54.4842 229.51V227.374C55.5255 228.576 55.9861 229.849 55.8726 231.078Z" fill="#EEEEEE"/>
<path d="M55.8711 223.606L55.6886 225.572C55.5195 227.42 54.0511 229.16 51.3255 230.359C45.8766 232.754 37.4618 232.065 32.5313 228.823C30.0661 227.198 28.9402 225.247 29.1093 223.399L29.2918 221.433C29.1204 223.282 30.2485 225.237 32.7115 226.857C37.6442 230.1 46.0613 230.788 51.5079 228.394C54.2313 227.2 55.6998 225.459 55.8711 223.606Z" fill="#E1E1E1"/>
<path d="M55.8755 223.605C55.7042 225.453 54.238 227.197 51.5124 228.39C46.0635 230.787 37.6487 230.098 32.716 226.856C30.253 225.234 29.1249 223.281 29.2962 221.434C29.4003 220.465 29.8225 219.549 30.5044 218.816V222.037C30.5044 223.712 31.6747 225.37 34.0154 226.642C38.7011 229.188 46.2927 229.188 50.974 226.642C53.3146 225.37 54.4872 223.712 54.4872 222.037V219.915C55.5284 221.108 55.989 222.381 55.8755 223.605Z" fill="#EEEEEE"/>
<path d="M55.8691 216.145L55.6867 218.11C55.5176 219.959 54.0491 221.698 51.3235 222.896C45.8746 225.292 37.4599 224.604 32.5294 221.359C30.0641 219.737 28.9383 217.786 29.1074 215.938L29.2898 213.972C29.1185 215.82 30.2465 217.775 32.7096 219.396C37.6423 222.638 46.0593 223.327 51.506 220.932C54.2293 219.735 55.6978 217.993 55.8691 216.145Z" fill="#E1E1E1"/>
<path d="M55.8716 216.145C55.7003 217.993 54.2341 219.735 51.5085 220.93C46.0596 223.327 37.6448 222.638 32.7121 219.393C30.2491 217.773 29.121 215.82 29.2923 213.972C29.397 213.003 29.8192 212.088 30.5005 211.355V214.577C30.5005 216.251 31.6708 217.909 34.0114 219.182C38.6972 221.725 46.2888 221.725 50.9701 219.182C53.3107 217.909 54.4833 216.251 54.4833 214.577V212.45C55.5245 213.643 55.9851 214.916 55.8716 216.145Z" fill="#EEEEEE"/>
<path d="M55.8701 208.678L55.6877 210.643C55.5186 212.492 54.0501 214.231 51.3245 215.429C45.8756 217.823 37.4608 217.137 32.5303 213.892C30.0651 212.27 28.9392 210.319 29.1083 208.47L29.2908 206.505C29.1195 208.353 30.2475 210.306 32.7105 211.926C37.6433 215.171 46.0603 215.86 51.507 213.463C54.2303 212.268 55.6988 210.526 55.8701 208.678Z" fill="#E1E1E1"/>
<path d="M55.8726 208.676C55.7013 210.524 54.235 212.268 51.5095 213.463C46.0606 215.86 37.6458 215.171 32.7131 211.926C30.25 210.306 29.122 208.353 29.2933 206.505C29.3975 205.536 29.8198 204.621 30.5014 203.888V207.11C30.5014 208.784 31.6718 210.442 34.0124 211.715C38.6982 214.258 46.2897 214.258 50.971 211.715C53.3117 210.442 54.4842 208.784 54.4842 207.11V204.977C55.5255 206.176 55.9861 207.449 55.8726 208.676Z" fill="#EEEEEE"/>
<path d="M55.8721 201.208L55.6896 203.173C55.5205 205.019 54.052 206.759 51.3265 207.958C45.8776 210.353 37.4628 209.667 32.5323 206.422C30.067 204.8 28.9412 202.847 29.1103 201L29.2927 199.035C29.1214 200.883 30.2495 202.836 32.7125 204.456C37.6452 207.701 46.0622 208.388 51.5089 205.993C54.2323 204.8 55.7007 203.058 55.8721 201.208Z" fill="#E1E1E1"/>
<path d="M55.8726 201.209C55.7013 203.057 54.235 204.801 51.5095 205.996C46.0606 208.393 37.6458 207.704 32.7131 204.459C30.25 202.839 29.122 200.886 29.2933 199.038C29.3971 198.069 29.8194 197.154 30.5014 196.421V199.643C30.5014 201.317 31.6718 202.975 34.0124 204.248C38.6982 206.791 46.2897 206.791 50.971 204.248C53.3117 202.975 54.4842 201.317 54.4842 199.643V197.516C55.5255 198.707 55.9861 199.98 55.8726 201.209Z" fill="#EEEEEE"/>
<path d="M64 180.714L63.96 194.052L58.2686 205.768L58.3086 192.427L64 180.714Z" fill="#D4D4D4"/>
<path d="M58.3037 192.429L58.2636 205.77L36.7861 208.91L36.8262 195.569L58.3037 192.429Z" fill="#EEEEEE"/>
<path d="M36.8283 195.568L36.7883 208.908L21 200.33L21.04 186.992L36.8283 195.568Z" fill="#E1E1E1"/>
<path d="M63.9933 180.716L58.3019 192.43L36.8244 195.57L21.0361 186.993L26.7253 175.279L48.2028 172.14L63.9933 180.716Z" fill="white"/>
<path d="M117.462 164.208V264.705C117.462 266.37 116.332 268.036 114.07 269.309C109.547 271.853 102.209 271.853 97.6842 269.309C95.4216 268.036 94.2891 266.37 94.2891 264.705V164.208H117.462Z" fill="#F58515"/>
<path d="M105.88 170.72C112.279 170.72 117.466 167.804 117.466 164.206C117.466 160.609 112.279 157.693 105.88 157.693C99.4805 157.693 94.293 160.609 94.293 164.206C94.293 167.804 99.4805 170.72 105.88 170.72Z" fill="#F79F47"/>
<path d="M119.491 245.15C119.136 247.066 117.478 248.739 114.616 249.732C108.893 251.713 100.493 250.22 95.8476 246.389C93.5226 244.471 92.5964 242.342 92.9683 240.427C93.1519 239.493 93.6133 238.633 94.2951 237.953V242.109C94.2951 243.77 95.4277 245.44 97.6951 246.711C102.216 249.25 109.55 249.25 114.083 246.711C116.338 245.44 117.471 243.77 117.471 242.109V239.981C119.148 241.674 119.813 243.501 119.491 245.15Z" fill="#F79F47"/>
<path d="M119.492 236.965L118.796 240.682C118.436 242.597 116.781 244.265 113.913 245.258C108.188 247.258 99.7881 245.763 95.1477 241.915C92.8395 240.002 91.8989 237.869 92.2684 235.956L92.9667 232.244C92.6068 234.157 93.5329 236.287 95.8459 238.203C100.489 242.037 108.887 243.532 114.612 241.546C117.479 240.549 119.132 238.878 119.492 236.965Z" fill="#F79533"/>
<path d="M119.487 236.965C119.132 238.881 117.474 240.551 114.612 241.544C108.889 243.527 100.489 242.035 95.8437 238.201C93.5186 236.283 92.5925 234.157 92.9644 232.239C93.1485 231.306 93.6099 230.446 94.2912 229.765V233.921C94.2912 235.582 95.4238 237.253 97.6912 238.523C102.212 241.065 109.547 241.065 114.079 238.523C116.334 237.253 117.467 235.582 117.467 233.921V231.805C119.144 233.487 119.809 235.309 119.487 236.965Z" fill="#F79F47"/>
<path d="M119.491 228.768L118.795 232.482C118.435 234.396 116.78 236.066 113.912 237.056C108.187 239.056 99.7871 237.561 95.1467 233.716C92.8385 231.8 91.898 229.67 92.2675 227.754L92.9657 224.042C92.6058 225.955 93.5319 228.086 95.845 230.001C100.488 233.835 108.886 235.332 114.611 233.344C117.478 232.361 119.131 230.693 119.491 228.768Z" fill="#F79533"/>
<path d="M119.487 228.768C119.132 230.684 117.474 232.356 114.612 233.347C108.889 235.33 100.489 233.837 95.8437 230.004C93.5186 228.088 92.5925 225.96 92.9644 224.042C93.148 223.109 93.6095 222.249 94.2912 221.57V225.731C94.2912 227.39 95.4238 229.062 97.6912 230.333C102.212 232.873 109.547 232.873 114.079 230.333C116.334 229.062 117.467 227.39 117.467 225.731V223.603C119.144 225.301 119.809 227.133 119.487 228.768Z" fill="#F79F47"/>
<path d="M119.495 220.59L118.799 224.302C118.439 226.215 116.784 227.886 113.916 228.879C108.191 230.878 99.7911 229.381 95.1506 225.536C92.8424 223.62 91.9019 221.489 92.2714 219.576L92.9696 215.862C92.6097 217.775 93.5358 219.905 95.8489 221.823C100.492 225.657 108.89 227.152 114.614 225.164C117.482 224.174 119.135 222.503 119.495 220.59Z" fill="#F79533"/>
<path d="M119.487 220.591C119.132 222.507 117.474 224.179 114.612 225.17C108.889 227.153 100.489 225.661 95.8437 221.827C93.5186 219.911 92.5925 217.783 92.9644 215.867C93.148 214.934 93.6094 214.074 94.2912 213.393V217.554C94.2912 219.215 95.4238 220.885 97.6912 222.156C102.212 224.696 109.547 224.696 114.079 222.156C116.334 220.885 117.467 219.215 117.467 217.554V215.426C119.144 217.113 119.809 218.939 119.487 220.591Z" fill="#F79F47"/>
<path d="M119.49 212.415L118.794 216.127C118.434 218.04 116.779 219.71 113.911 220.703C108.186 222.703 99.7862 221.208 95.1457 217.36C92.8375 215.447 91.897 213.314 92.2665 211.401L92.9647 207.689C92.6048 209.602 93.531 211.732 95.844 213.648C100.487 217.47 108.885 218.956 114.61 216.98C117.477 215.987 119.13 214.316 119.49 212.415Z" fill="#F79533"/>
<path d="M119.487 212.4C119.132 214.318 117.474 215.988 114.612 216.981C108.887 218.955 100.489 217.47 95.8437 213.638C93.5186 211.72 92.5925 209.592 92.9644 207.676C93.148 206.743 93.6094 205.883 94.2912 205.202V209.358C94.2912 211.019 95.4238 212.69 97.6912 213.961C102.212 216.5 109.547 216.5 114.079 213.961C116.334 212.69 117.467 211.019 117.467 209.358V207.23C119.144 208.924 119.809 210.751 119.487 212.4Z" fill="#F79F47"/>
<path d="M119.495 204.215L118.799 207.929C118.439 209.843 116.784 211.511 113.916 212.504C108.191 214.503 99.7911 213.008 95.1506 209.16C92.8424 207.247 91.9019 205.114 92.2714 203.201L92.9696 199.489C92.6097 201.402 93.5358 203.533 95.8489 205.448C100.492 209.282 108.89 210.779 114.614 208.791C117.482 207.798 119.135 206.128 119.495 204.215Z" fill="#F79533"/>
<path d="M119.488 204.214C119.133 206.13 117.475 207.8 114.613 208.793C108.888 210.779 100.49 209.283 95.8446 205.45C93.5196 203.534 92.5935 201.406 92.9654 199.488C93.1495 198.555 93.6109 197.694 94.2922 197.014V201.172C94.2922 202.831 95.4247 204.504 97.6922 205.772C102.213 208.314 109.548 208.314 114.08 205.772C116.335 204.504 117.468 202.831 117.468 201.172V199.042C119.145 200.733 119.81 202.565 119.488 204.214Z" fill="#F79F47"/>
<path d="M119.49 196.027L118.794 199.742C118.434 201.655 116.779 203.325 113.911 204.318C108.186 206.318 99.7862 204.82 95.1457 200.975C92.8375 199.059 91.897 196.929 92.2665 195.016L92.9647 191.301C92.6048 193.214 93.531 195.345 95.844 197.261C100.487 201.094 108.885 202.603 114.61 200.604C117.477 199.613 119.13 197.943 119.49 196.027Z" fill="#F79533"/>
<path d="M119.487 196.027C119.132 197.943 117.474 199.615 114.612 200.606C108.889 202.589 100.489 201.097 95.8437 197.263C93.5186 195.347 92.5925 193.219 92.9644 191.301C93.1449 190.365 93.6048 189.503 94.2865 188.82V192.976C94.2865 194.635 95.419 196.307 97.6864 197.578C102.207 200.118 109.542 200.118 114.074 197.578C116.33 196.307 117.462 194.635 117.462 192.976V190.848C119.144 192.558 119.809 194.378 119.487 196.027Z" fill="#F79F47"/>
<path d="M119.495 187.84L118.799 191.552C118.439 193.466 116.784 195.136 113.916 196.129C108.191 198.129 99.7911 196.631 95.1506 192.786C92.8424 190.872 91.9019 188.739 92.2714 186.826L92.9696 183.112C92.6097 185.027 93.5358 187.156 95.8489 189.074C100.492 192.907 108.89 194.402 114.614 192.414C117.482 191.424 119.135 189.753 119.495 187.84Z" fill="#F79533"/>
<path d="M119.487 187.839C119.132 189.755 117.474 191.427 114.612 192.42C108.887 194.401 100.489 192.909 95.8437 189.077C93.5186 187.159 92.5925 185.031 92.9644 183.115C93.1471 182.183 93.6068 181.324 94.2865 180.644V184.8C94.2865 186.461 95.419 188.131 97.6864 189.402C102.207 191.941 109.542 191.941 114.074 189.402C116.33 188.131 117.462 186.461 117.462 184.8V182.671C119.144 184.363 119.809 186.19 119.487 187.839Z" fill="#F79F47"/>
<path d="M119.495 179.652L118.799 183.364C118.439 185.28 116.784 186.948 113.916 187.941C108.191 189.94 99.7911 188.445 95.1506 184.597C92.8424 182.684 91.9019 180.551 92.2714 178.638L92.9696 174.926C92.6097 176.839 93.5358 178.97 95.8489 180.885C100.492 184.719 108.89 186.214 114.614 184.228C117.482 183.235 119.135 181.577 119.495 179.652Z" fill="#F79533"/>
<path d="M119.486 179.652C119.131 181.568 117.473 183.238 114.611 184.231C108.888 186.214 100.488 184.722 95.8427 180.888C93.5177 178.97 92.5915 176.844 92.9634 174.926C93.1476 173.993 93.6089 173.133 94.2903 172.452V176.608C94.2903 178.269 95.4228 179.94 97.6902 181.21C102.211 183.752 109.546 183.752 114.078 181.21C116.333 179.94 117.466 178.269 117.466 176.608V174.48C119.143 176.174 119.808 178.003 119.486 179.652Z" fill="#F79F47"/>
<path d="M119.49 171.464L118.794 175.179C118.434 177.092 116.779 178.762 113.911 179.753C108.186 181.753 99.7862 180.257 95.1457 176.412C92.8375 174.496 91.897 172.366 92.2665 170.45L92.9647 166.738C92.6048 168.651 93.531 170.782 95.844 172.698C100.487 176.531 108.885 178.029 114.61 176.041C117.477 175.048 119.13 173.38 119.49 171.464Z" fill="#F79533"/>
<path d="M119.487 171.464C119.132 173.38 117.474 175.053 114.612 176.043C108.887 178.026 100.489 176.534 95.8437 172.7C93.5186 170.784 92.5925 168.656 92.9644 166.738C93.148 165.805 93.6095 164.946 94.2912 164.266V168.423C94.2912 170.081 95.4238 171.754 97.6912 173.025C102.212 175.564 109.547 175.564 114.079 173.025C116.334 171.754 117.467 170.081 117.467 168.423V166.294C119.144 167.988 119.809 169.815 119.487 171.464Z" fill="#F79F47"/>
<path d="M126.999 155.611L126.96 162.85L121.461 174.566L121.499 167.324L126.999 155.611Z" fill="#F58515"/>
<path d="M121.498 167.324L121.459 174.566L100.707 177.704L100.745 170.464L121.498 167.324Z" fill="#F79F47"/>
<path d="M100.743 170.466L100.705 177.706L85.4473 169.13L85.4881 161.89L100.743 170.466Z" fill="#F6922E"/>
<path d="M127 155.612L121.501 167.325L100.748 170.465L85.4932 161.889L90.9902 150.175L111.742 147.036L127 155.612Z" fill="#F9B067"/>
<path d="M184.325 161.212V264.705C184.325 266.371 183.135 268.036 180.751 269.311C175.988 271.855 168.264 271.855 163.497 269.311C161.114 268.036 159.924 266.365 159.924 264.705V161.212H184.325Z" fill="#D4D4D4"/>
<path d="M172.123 167.725C178.862 167.725 184.324 164.809 184.324 161.213C184.324 157.616 178.862 154.7 172.123 154.7C165.385 154.7 159.923 157.616 159.923 161.213C159.923 164.809 165.385 167.725 172.123 167.725Z" fill="#EEEEEE"/>
<path d="M187.105 246.774C186.732 248.801 184.913 250.574 181.756 251.656C175.403 253.798 166.063 252.301 160.906 248.311C158.299 246.306 157.242 244.078 157.616 242.051C157.856 240.814 158.629 239.654 159.933 238.706V244.346C159.933 246.017 161.126 247.677 163.512 248.949C168.273 251.498 175.996 251.498 180.769 248.949C183.144 247.677 184.337 246.017 184.337 244.346V240.902C186.552 242.795 187.467 244.892 187.105 246.774Z" fill="#F5F5F5"/>
<path d="M187.111 240.217L186.633 242.764C186.256 244.77 184.435 246.561 181.278 247.635C174.933 249.777 165.597 248.286 160.427 244.293C157.821 242.295 156.767 240.043 157.14 238.038L157.618 235.491C157.239 237.513 158.307 239.749 160.902 241.746C166.08 245.742 175.42 247.239 181.753 245.091C184.913 244.015 186.731 242.239 187.111 240.217Z" fill="#E6E6E6"/>
<path d="M187.106 240.212C186.733 242.241 184.914 244.011 181.757 245.093C175.404 247.235 166.064 245.739 160.907 241.749C158.3 239.743 157.243 237.515 157.617 235.488C157.913 234.147 158.739 232.955 159.934 232.146V237.783C159.934 239.454 161.127 241.114 163.513 242.386C168.274 244.938 175.997 244.938 180.77 242.386C183.145 241.114 184.338 239.454 184.338 237.783V234.339C186.553 236.235 187.468 238.329 187.106 240.212Z" fill="#F5F5F5"/>
<path d="M187.113 233.652L186.636 236.198C186.259 238.207 184.438 239.995 181.281 241.072C174.936 243.214 165.6 241.723 160.43 237.727C157.824 235.73 156.77 233.478 157.143 231.472L157.621 228.926C157.242 230.947 158.31 233.186 160.905 235.184C166.083 239.176 175.423 240.673 181.756 238.525C184.915 237.46 186.734 235.674 187.113 233.652Z" fill="#E6E6E6"/>
<path d="M187.106 233.647C186.733 235.677 184.914 237.447 181.757 238.529C175.404 240.671 166.064 239.174 160.907 235.187C158.3 233.181 157.243 230.951 157.617 228.924C157.913 227.582 158.739 226.391 159.934 225.582V231.219C159.934 232.892 161.127 234.552 163.513 235.822C168.274 238.374 175.997 238.374 180.77 235.822C183.145 234.552 184.338 232.892 184.338 231.219V227.775C186.553 229.671 187.468 231.765 187.106 233.647Z" fill="#F5F5F5"/>
<path d="M187.108 227.094L186.63 229.638C186.253 231.646 184.432 233.435 181.275 234.511C174.93 236.653 165.594 235.162 160.424 231.169C157.818 229.169 156.764 226.92 157.137 224.911L157.615 222.365C157.236 224.386 158.305 226.625 160.899 228.623C166.077 232.615 175.417 234.112 181.75 231.965C184.91 230.891 186.728 229.113 187.108 227.094Z" fill="#E6E6E6"/>
<path d="M187.105 227.087C186.732 229.114 184.913 230.887 181.756 231.966C175.403 234.108 166.063 232.614 160.906 228.624C158.299 226.618 157.242 224.39 157.616 222.361C157.856 221.123 158.629 219.967 159.933 219.019V224.658C159.933 226.329 161.126 227.989 163.512 229.258C168.273 231.81 175.996 231.81 180.769 229.258C183.144 227.989 184.337 226.329 184.337 224.658V221.214C186.552 223.108 187.467 225.202 187.105 227.087Z" fill="#F5F5F5"/>
<path d="M187.11 220.53L186.632 223.077C186.255 225.082 184.434 226.871 181.277 227.947C174.932 230.09 165.596 228.598 160.426 224.606C157.82 222.608 156.766 220.356 157.139 218.348L157.617 215.804C157.238 217.823 158.307 220.061 160.901 222.059C166.079 226.052 175.419 227.548 181.752 225.401C184.912 224.34 186.73 222.549 187.11 220.53Z" fill="#E6E6E6"/>
<path d="M187.107 220.524C186.734 222.551 184.915 224.324 181.758 225.403C175.405 227.545 166.065 226.051 160.908 222.061C158.301 220.055 157.244 217.827 157.618 215.8C157.858 214.563 158.631 213.404 159.935 212.456V218.095C159.935 219.766 161.128 221.426 163.514 222.696C168.275 225.248 175.998 225.248 180.771 222.696C183.146 221.426 184.339 219.766 184.339 218.095V214.652C186.554 216.545 187.469 218.641 187.107 220.524Z" fill="#F5F5F5"/>
<path d="M187.109 213.967L186.631 216.513C186.254 218.519 184.433 220.31 181.276 221.384C174.931 223.526 165.595 222.035 160.425 218.042C157.819 216.044 156.765 213.792 157.138 211.787L157.616 209.24C157.237 211.259 158.306 213.498 160.9 215.496C166.078 219.491 175.418 220.985 181.751 218.84C184.911 217.764 186.729 215.988 187.109 213.967Z" fill="#E6E6E6"/>
<path d="M187.105 213.961C186.732 215.991 184.913 217.761 181.756 218.843C175.403 220.985 166.063 219.488 160.906 215.498C158.299 213.492 157.242 211.264 157.616 209.237C157.856 208 158.629 206.827 159.933 205.893V211.532C159.933 213.203 161.126 214.863 163.512 216.135C168.273 218.687 175.996 218.687 180.769 216.135C183.144 214.863 184.337 213.203 184.337 211.532V208.089C186.552 209.984 187.467 212.078 187.105 213.961Z" fill="#F5F5F5"/>
<path d="M187.108 207.403L186.63 209.95C186.253 211.956 184.432 213.747 181.275 214.824C174.93 216.966 165.594 215.472 160.424 211.479C157.818 209.481 156.764 207.229 157.137 205.224L157.615 202.677C157.236 204.699 158.305 206.937 160.899 208.932C166.077 212.928 175.417 214.425 181.75 212.277C184.91 211.2 186.728 209.425 187.108 207.403Z" fill="#E6E6E6"/>
<path d="M187.106 207.398C186.733 209.428 184.914 211.198 181.757 212.28C175.404 214.422 166.064 212.925 160.907 208.938C158.3 206.932 157.243 204.702 157.617 202.675C157.913 201.333 158.739 200.142 159.934 199.333V204.969C159.934 206.64 161.127 208.301 163.513 209.572C168.274 212.124 175.997 212.124 180.77 209.572C183.145 208.301 184.338 206.627 184.338 204.969V201.526C186.553 203.422 187.468 205.516 187.106 207.398Z" fill="#F5F5F5"/>
<path d="M187.112 200.84L186.634 203.386C186.257 205.395 184.436 207.183 181.279 208.26C174.934 210.402 165.598 208.911 160.428 204.915C157.822 202.918 156.768 200.666 157.141 198.66L157.619 196.113C157.24 198.135 158.308 200.374 160.903 202.371C166.081 206.364 175.421 207.861 181.754 205.713C184.914 204.637 186.732 202.861 187.112 200.84Z" fill="#E6E6E6"/>
<path d="M187.107 200.836C186.734 202.864 184.915 204.636 181.758 205.715C175.405 207.858 166.065 206.363 160.908 202.373C158.301 200.368 157.244 198.14 157.618 196.11C157.858 194.873 158.631 193.716 159.935 192.768V198.392C159.935 200.065 161.128 201.725 163.514 202.995C168.275 205.547 175.998 205.547 180.771 202.995C183.146 201.725 184.339 200.065 184.339 198.392V194.964C186.554 196.857 187.469 198.951 187.107 200.836Z" fill="#F5F5F5"/>
<path d="M193.999 143.689L193.956 161.317L188.167 173.032L188.208 155.404L193.999 143.689Z" fill="#D4D4D4"/>
<path d="M188.208 155.404L188.167 173.031L166.314 176.17L166.355 158.542L188.208 155.404Z" fill="#EEEEEE"/>
<path d="M166.354 158.543L166.314 176.171L150.25 167.594L150.291 149.966L166.354 158.543Z" fill="#E1E1E1"/>
<path d="M194 143.688L188.209 155.403L166.356 158.542L150.292 149.965L156.081 138.252L177.934 135.111L194 143.688Z" fill="white"/>
<path d="M253.052 146.1V249.593C253.052 251.259 251.829 252.924 249.379 254.199C244.482 256.743 236.542 256.743 231.641 254.199C229.191 252.924 227.968 251.254 227.968 249.593V146.1H253.052Z" fill="#F58515"/>
<path d="M240.511 152.612C247.438 152.612 253.053 149.696 253.053 146.099C253.053 142.503 247.438 139.587 240.511 139.587C233.584 139.587 227.969 142.503 227.969 146.099C227.969 149.696 233.584 152.612 240.511 152.612Z" fill="#F79F47"/>
<path d="M255.917 244.789C255.533 246.816 253.663 248.588 250.418 249.668C243.886 251.81 234.285 250.316 228.983 246.326C226.304 244.32 225.217 242.092 225.601 240.062C225.848 238.825 226.643 237.668 227.983 236.72V242.36C227.983 244.031 229.21 245.691 231.663 246.96C236.557 249.512 244.497 249.512 249.403 246.96C251.844 245.691 253.071 244.031 253.071 242.36V238.916C255.348 240.809 256.289 242.903 255.917 244.789Z" fill="#F8A654"/>
<path d="M255.921 238.23L255.43 240.777C255.043 242.782 253.17 244.571 249.925 245.647C243.402 247.79 233.804 246.298 228.49 242.306C225.811 240.308 224.727 238.056 225.111 236.048L225.602 233.504C225.212 235.523 226.311 237.761 228.978 239.759C234.301 243.752 243.902 245.248 250.413 243.101C253.661 242.027 255.531 240.249 255.921 238.23Z" fill="#F79737"/>
<path d="M255.916 238.226C255.532 240.253 253.662 242.026 250.417 243.105C243.885 245.247 234.284 243.753 228.982 239.763C226.303 237.758 225.216 235.53 225.6 233.5C225.847 232.263 226.642 231.106 227.982 230.158V235.797C227.982 237.468 229.209 239.129 231.662 240.398C236.556 242.95 244.496 242.95 249.402 240.398C251.843 239.129 253.07 237.468 253.07 235.797V232.354C255.347 234.247 256.288 236.344 255.916 238.226Z" fill="#F8A654"/>
<path d="M255.918 231.67L255.427 234.216C255.04 236.222 253.167 238.011 249.922 239.087C243.399 241.229 233.801 239.738 228.487 235.745C225.808 233.748 224.724 231.496 225.108 229.49L225.6 226.943C225.21 228.962 226.308 231.201 228.975 233.199C234.298 237.194 243.899 238.688 250.41 236.541C253.658 235.472 255.528 233.691 255.918 231.67Z" fill="#F79737"/>
<path d="M255.92 231.661C255.536 233.688 253.666 235.461 250.421 236.543C243.889 238.685 234.288 237.188 228.986 233.198C226.307 231.193 225.22 228.965 225.604 226.938C225.851 225.701 226.646 224.541 227.986 223.593V229.233C227.986 230.904 229.212 232.564 231.666 233.836C236.56 236.385 244.5 236.385 249.406 233.836C251.847 232.564 253.074 230.904 253.074 229.233V225.789C255.351 227.682 256.292 229.779 255.92 231.661Z" fill="#F8A654"/>
<path d="M255.919 225.105L255.428 227.652C255.041 229.657 253.168 231.449 249.923 232.523C243.4 234.665 233.802 233.173 228.488 229.181C225.809 227.183 224.725 224.931 225.109 222.925L225.6 220.379C225.21 222.401 226.309 224.637 228.976 226.634C234.299 230.629 243.9 232.126 250.411 229.979C253.659 228.902 255.529 227.127 255.919 225.105Z" fill="#F79737"/>
<path d="M255.917 225.099C255.533 227.129 253.663 228.899 250.418 229.981C243.886 232.123 234.285 230.626 228.983 226.636C226.304 224.63 225.217 222.402 225.601 220.375C225.906 219.034 226.755 217.843 227.983 217.033V222.67C227.983 224.341 229.21 226.001 231.663 227.273C236.557 229.825 244.497 229.825 249.403 227.273C251.844 226.001 253.071 224.341 253.071 222.67V219.227C255.348 221.122 256.289 223.216 255.917 225.099Z" fill="#F8A654"/>
<path d="M255.92 218.541L255.429 221.087C255.042 223.096 253.169 224.885 249.924 225.961C243.401 228.103 233.803 226.612 228.489 222.616C225.81 220.619 224.726 218.367 225.11 216.361L225.601 213.815C225.211 215.836 226.31 218.075 228.977 220.073C234.3 224.065 243.901 225.562 250.412 223.414C253.66 222.349 255.53 220.563 255.92 218.541Z" fill="#F79737"/>
<path d="M255.919 218.536C255.535 220.565 253.665 222.335 250.42 223.417C243.888 225.559 234.287 224.063 228.985 220.075C226.306 218.07 225.219 215.839 225.603 213.812C225.908 212.471 226.757 211.279 227.985 210.47V216.107C227.985 217.781 229.211 219.441 231.665 220.71C236.559 223.262 244.499 223.262 249.405 220.71C251.846 219.441 253.073 217.781 253.073 216.107V212.663C255.35 214.559 256.291 216.653 255.919 218.536Z" fill="#F8A654"/>
<path d="M255.922 211.981L255.431 214.525C255.044 216.533 253.171 218.322 249.926 219.398C243.403 221.54 233.805 220.049 228.491 216.056C225.812 214.056 224.728 211.807 225.112 209.798L225.603 207.252C225.213 209.274 226.312 211.512 228.979 213.51C234.302 217.502 243.903 218.999 250.414 216.852C253.662 215.778 255.532 214 255.922 211.981Z" fill="#F79737"/>
<path d="M255.92 211.974C255.536 214.001 253.666 215.774 250.421 216.853C243.889 218.995 234.288 217.501 228.986 213.511C226.307 211.505 225.22 209.277 225.604 207.248C225.851 206.01 226.646 204.854 227.986 203.906V209.545C227.986 211.216 229.212 212.876 231.666 214.146C236.56 216.698 244.5 216.698 249.406 214.146C251.847 212.876 253.074 211.216 253.074 209.545V206.102C255.351 207.995 256.292 210.089 255.92 211.974Z" fill="#F8A654"/>
<path d="M255.919 205.418L255.428 207.964C255.041 209.97 253.168 211.759 249.923 212.835C243.4 214.977 233.802 213.486 228.488 209.493C225.809 207.496 224.725 205.244 225.109 203.235L225.6 200.692C225.21 202.711 226.309 204.949 228.976 206.947C234.299 210.939 243.9 212.436 250.411 210.289C253.659 209.228 255.529 207.437 255.919 205.418Z" fill="#F79737"/>
<path d="M255.916 205.413C255.532 207.44 253.662 209.213 250.417 210.292C243.885 212.434 234.284 210.94 228.982 206.95C226.303 204.944 225.216 202.716 225.6 200.689C225.847 199.452 226.642 198.293 227.982 197.345V202.984C227.982 204.655 229.209 206.315 231.662 207.584C236.556 210.136 244.496 210.136 249.402 207.584C251.843 206.315 253.07 204.655 253.07 202.984V199.54C255.347 201.434 256.288 203.53 255.916 205.413Z" fill="#F8A654"/>
<path d="M255.92 198.855L255.429 201.401C255.042 203.407 253.169 205.198 249.924 206.272C243.401 208.414 233.803 206.923 228.489 202.93C225.81 200.933 224.726 198.681 225.11 196.675L225.601 194.129C225.211 196.148 226.31 198.386 228.977 200.384C234.3 204.379 243.901 205.873 250.412 203.728C253.66 202.652 255.53 200.877 255.92 198.855Z" fill="#F79737"/>
<path d="M255.92 198.848C255.536 200.878 253.666 202.648 250.421 203.73C243.889 205.872 234.288 204.375 228.986 200.385C226.307 198.379 225.22 196.152 225.604 194.124C225.851 192.887 226.646 191.714 227.986 190.78V196.419C227.986 198.09 229.212 199.75 231.666 201.022C236.56 203.574 244.5 203.574 249.406 201.022C251.847 199.75 253.074 198.09 253.074 196.419V192.976C255.351 194.872 256.292 196.966 255.92 198.848Z" fill="#F8A654"/>
<path d="M255.922 192.29L255.431 194.837C255.044 196.843 253.171 198.634 249.926 199.711C243.403 201.853 233.805 200.359 228.491 196.366C225.812 194.368 224.728 192.116 225.112 190.111L225.603 187.564C225.213 189.586 226.312 191.825 228.979 193.819C234.302 197.815 243.903 199.312 250.414 197.164C253.662 196.088 255.532 194.312 255.922 192.29Z" fill="#F79737"/>
<path d="M255.915 192.287C255.531 194.317 253.661 196.087 250.416 197.168C243.884 199.311 234.283 197.814 228.981 193.827C226.302 191.821 225.215 189.59 225.599 187.563C225.904 186.222 226.753 185.03 227.981 184.221V189.858C227.981 191.529 229.208 193.189 231.661 194.461C236.555 197.013 244.495 197.013 249.401 194.461C251.842 193.189 253.069 191.516 253.069 189.858V186.414C255.346 188.31 256.287 190.404 255.915 192.287Z" fill="#F8A654"/>
<path d="M255.918 185.729L255.427 188.275C255.04 190.284 253.167 192.072 249.922 193.149C243.399 195.291 233.801 193.8 228.487 189.804C225.808 187.807 224.724 185.555 225.108 183.549L225.6 181.002C225.21 183.024 226.308 185.263 228.975 187.26C234.298 191.253 243.899 192.75 250.41 190.602C253.658 189.526 255.528 187.75 255.918 185.729Z" fill="#F79737"/>
<path d="M255.916 185.725C255.532 187.752 253.662 189.525 250.417 190.604C243.885 192.746 234.284 191.252 228.982 187.262C226.303 185.257 225.216 183.029 225.6 180.999C225.847 179.762 226.642 178.605 227.982 177.657V183.28C227.982 184.954 229.209 186.614 231.662 187.883C236.556 190.435 244.496 190.435 249.402 187.883C251.843 186.614 253.07 184.954 253.07 183.28V179.853C255.347 181.746 256.288 183.84 255.916 185.725Z" fill="#F8A654"/>
<path d="M263 128.577L262.955 146.204L257.004 157.92L257.046 140.292L263 128.577Z" fill="#F58515"/>
<path d="M257.046 140.291L257.004 157.919L234.539 161.057L234.581 143.43L257.046 140.291Z" fill="#F79F47"/>
<path d="M234.583 143.429L234.541 161.057L218.027 152.48L218.069 134.852L234.583 143.429Z" fill="#F6922E"/>
<path d="M262.998 128.577L257.044 140.292L234.579 143.431L218.065 134.854L224.017 123.141L246.481 120L262.998 128.577Z" fill="#F9B067"/>
</g>
<defs>
<clipPath id="clip0_1_2724">
<rect width="280" height="240" rx="20" fill="white"/>
</clipPath>
</defs>
</svg>
