<svg width="280" height="240" viewBox="0 0 280 240" fill="none" xmlns="http://www.w3.org/2000/svg">
<rect width="280" height="240" rx="20" fill="#FEBF7F"/>
<g clip-path="url(#clip0_1_5529)">
<mask id="mask0_1_5529" style="mask-type:alpha" maskUnits="userSpaceOnUse" x="23" y="141" width="234" height="108">
<path d="M41.3776 180.539H24V248.188H256.349V152L217.435 142V180.539H173.232V152L129.785 142V180.539H86.3372V152L41.3776 142V180.539Z" fill="#276CD3" stroke="black"/>
</mask>
<g mask="url(#mask0_1_5529)">
<line y1="-0.5" x2="225.698" y2="-0.5" transform="matrix(-0.495671 0.86851 -0.863504 -0.504341 105.5 29.6062)" stroke="white"/>
<line y1="-0.5" x2="225.698" y2="-0.5" transform="matrix(-0.495671 0.86851 -0.863504 -0.504341 112.039 32.8136)" stroke="white"/>
<line y1="-0.5" x2="225.698" y2="-0.5" transform="matrix(-0.495671 0.86851 -0.863504 -0.504341 118.578 36.0209)" stroke="white"/>
<line y1="-0.5" x2="225.698" y2="-0.5" transform="matrix(-0.495671 0.86851 -0.863504 -0.504341 125.117 39.2288)" stroke="white"/>
<line y1="-0.5" x2="225.698" y2="-0.5" transform="matrix(-0.495671 0.86851 -0.863504 -0.504341 131.656 42.436)" stroke="white"/>
<line y1="-0.5" x2="225.698" y2="-0.5" transform="matrix(-0.495671 0.86851 -0.863504 -0.504341 138.195 45.6433)" stroke="white"/>
<line y1="-0.5" x2="225.698" y2="-0.5" transform="matrix(-0.495671 0.86851 -0.863504 -0.504341 144.734 48.8507)" stroke="white"/>
<line y1="-0.5" x2="225.698" y2="-0.5" transform="matrix(-0.495671 0.86851 -0.863504 -0.504341 151.273 52.0586)" stroke="white"/>
<line y1="-0.5" x2="225.698" y2="-0.5" transform="matrix(-0.495671 0.86851 -0.863504 -0.504341 157.812 55.2659)" stroke="white"/>
<line y1="-0.5" x2="225.698" y2="-0.5" transform="matrix(-0.495671 0.86851 -0.863504 -0.504341 164.352 58.4731)" stroke="white"/>
<line y1="-0.5" x2="225.698" y2="-0.5" transform="matrix(-0.495671 0.86851 -0.863504 -0.504341 170.891 61.6805)" stroke="white"/>
<line y1="-0.5" x2="225.698" y2="-0.5" transform="matrix(-0.495671 0.86851 -0.863504 -0.504341 177.43 64.8883)" stroke="white"/>
<line y1="-0.5" x2="225.698" y2="-0.5" transform="matrix(-0.495671 0.86851 -0.863504 -0.504341 183.969 68.0957)" stroke="white"/>
<line y1="-0.5" x2="225.698" y2="-0.5" transform="matrix(-0.495671 0.86851 -0.863504 -0.504341 190.508 71.303)" stroke="white"/>
<line y1="-0.5" x2="225.698" y2="-0.5" transform="matrix(-0.495671 0.86851 -0.863504 -0.504341 197.047 74.5103)" stroke="white"/>
<line y1="-0.5" x2="225.698" y2="-0.5" transform="matrix(-0.495671 0.86851 -0.863504 -0.504341 203.586 77.7177)" stroke="white"/>
<line y1="-0.5" x2="225.698" y2="-0.5" transform="matrix(-0.495671 0.86851 -0.863504 -0.504341 210.125 80.9254)" stroke="white"/>
<line y1="-0.5" x2="225.698" y2="-0.5" transform="matrix(-0.495671 0.86851 -0.863504 -0.504341 216.664 84.1328)" stroke="white"/>
<line y1="-0.5" x2="225.698" y2="-0.5" transform="matrix(-0.495671 0.86851 -0.863504 -0.504341 223.203 87.3401)" stroke="white"/>
<line y1="-0.5" x2="225.698" y2="-0.5" transform="matrix(-0.495671 0.86851 -0.863504 -0.504341 229.742 90.5475)" stroke="white"/>
<line y1="-0.5" x2="225.698" y2="-0.5" transform="matrix(-0.495671 0.86851 -0.863504 -0.504341 236.281 93.7552)" stroke="white"/>
<line y1="-0.5" x2="225.698" y2="-0.5" transform="matrix(-0.495671 0.86851 -0.863504 -0.504341 242.82 96.9625)" stroke="white"/>
<line y1="-0.5" x2="225.698" y2="-0.5" transform="matrix(-0.495671 0.86851 -0.863504 -0.504341 249.359 100.17)" stroke="white"/>
<line y1="-0.5" x2="225.698" y2="-0.5" transform="matrix(-0.495671 0.86851 -0.863504 -0.504341 255.898 103.377)" stroke="white"/>
<line y1="-0.5" x2="225.698" y2="-0.5" transform="matrix(-0.495671 0.86851 -0.863504 -0.504341 262.438 106.585)" stroke="white"/>
<line y1="-0.5" x2="225.698" y2="-0.5" transform="matrix(-0.495671 0.86851 -0.863504 -0.504341 268.977 109.792)" stroke="white"/>
<line y1="-0.5" x2="225.698" y2="-0.5" transform="matrix(-0.495671 0.86851 -0.863504 -0.504341 275.516 113)" stroke="white"/>
<line y1="-0.5" x2="225.698" y2="-0.5" transform="matrix(-0.495671 0.86851 -0.863504 -0.504341 282.055 116.207)" stroke="white"/>
<line y1="-0.5" x2="225.698" y2="-0.5" transform="matrix(-0.495671 0.86851 -0.863504 -0.504341 288.594 119.414)" stroke="white"/>
<line y1="-0.5" x2="225.698" y2="-0.5" transform="matrix(-0.495671 0.86851 -0.863504 -0.504341 295.133 122.622)" stroke="white"/>
<line y1="-0.5" x2="225.698" y2="-0.5" transform="matrix(-0.495671 0.86851 -0.863504 -0.504341 301.672 125.83)" stroke="white"/>
<line y1="-0.5" x2="225.698" y2="-0.5" transform="matrix(-0.495671 0.86851 -0.863504 -0.504341 308.211 129.037)" stroke="white"/>
<line y1="-0.5" x2="225.698" y2="-0.5" transform="matrix(-0.495671 0.86851 -0.863504 -0.504341 314.75 132.244)" stroke="white"/>
<line y1="-0.5" x2="225.698" y2="-0.5" transform="matrix(-0.495671 0.86851 -0.863504 -0.504341 321.289 135.452)" stroke="white"/>
<path d="M24 180.539H41.3776V142L86.3372 152V180.539H129.785V142L173.232 152V180.539H217.435V142L256.349 152" stroke="white" stroke-width="2"/>
</g>
</g>
<defs>
<clipPath id="clip0_1_5529">
<rect width="232" height="84" fill="white" transform="translate(24 132)"/>
</clipPath>
</defs>
</svg>
