<svg width="232" height="84" viewBox="0 0 232 84" fill="none" xmlns="http://www.w3.org/2000/svg">
<g clip-path="url(#clip0_1_5531)">
<mask id="mask0_1_5531" style="mask-type:alpha" maskUnits="userSpaceOnUse" x="-1" y="9" width="234" height="108">
<path d="M17.3776 48.5391H0V116.188H232.349V20L193.435 10V48.5391H149.232V20L105.785 10V48.5391H62.3372V20L17.3776 10V48.5391Z" fill="#276CD3" stroke="black"/>
</mask>
<g mask="url(#mask0_1_5531)">
<line y1="-0.5" x2="225.698" y2="-0.5" transform="matrix(-0.495671 0.86851 -0.863504 -0.504341 81.5 -102.394)" stroke="white"/>
<line y1="-0.5" x2="225.698" y2="-0.5" transform="matrix(-0.495671 0.86851 -0.863504 -0.504341 88.0391 -99.1864)" stroke="white"/>
<line y1="-0.5" x2="225.698" y2="-0.5" transform="matrix(-0.495671 0.86851 -0.863504 -0.504341 94.5781 -95.9791)" stroke="white"/>
<line y1="-0.5" x2="225.698" y2="-0.5" transform="matrix(-0.495671 0.86851 -0.863504 -0.504341 101.117 -92.7712)" stroke="white"/>
<line y1="-0.5" x2="225.698" y2="-0.5" transform="matrix(-0.495671 0.86851 -0.863504 -0.504341 107.656 -89.564)" stroke="white"/>
<line y1="-0.5" x2="225.698" y2="-0.5" transform="matrix(-0.495671 0.86851 -0.863504 -0.504341 114.195 -86.3567)" stroke="white"/>
<line y1="-0.5" x2="225.698" y2="-0.5" transform="matrix(-0.495671 0.86851 -0.863504 -0.504341 120.734 -83.1493)" stroke="white"/>
<line y1="-0.5" x2="225.698" y2="-0.5" transform="matrix(-0.495671 0.86851 -0.863504 -0.504341 127.273 -79.9414)" stroke="white"/>
<line y1="-0.5" x2="225.698" y2="-0.5" transform="matrix(-0.495671 0.86851 -0.863504 -0.504341 133.812 -76.7341)" stroke="white"/>
<line y1="-0.5" x2="225.698" y2="-0.5" transform="matrix(-0.495671 0.86851 -0.863504 -0.504341 140.352 -73.5269)" stroke="white"/>
<line y1="-0.5" x2="225.698" y2="-0.5" transform="matrix(-0.495671 0.86851 -0.863504 -0.504341 146.891 -70.3195)" stroke="white"/>
<line y1="-0.5" x2="225.698" y2="-0.5" transform="matrix(-0.495671 0.86851 -0.863504 -0.504341 153.43 -67.1117)" stroke="white"/>
<line y1="-0.5" x2="225.698" y2="-0.5" transform="matrix(-0.495671 0.86851 -0.863504 -0.504341 159.969 -63.9043)" stroke="white"/>
<line y1="-0.5" x2="225.698" y2="-0.5" transform="matrix(-0.495671 0.86851 -0.863504 -0.504341 166.508 -60.697)" stroke="white"/>
<line y1="-0.5" x2="225.698" y2="-0.5" transform="matrix(-0.495671 0.86851 -0.863504 -0.504341 173.047 -57.4897)" stroke="white"/>
<line y1="-0.5" x2="225.698" y2="-0.5" transform="matrix(-0.495671 0.86851 -0.863504 -0.504341 179.586 -54.2823)" stroke="white"/>
<line y1="-0.5" x2="225.698" y2="-0.5" transform="matrix(-0.495671 0.86851 -0.863504 -0.504341 186.125 -51.0746)" stroke="white"/>
<line y1="-0.5" x2="225.698" y2="-0.5" transform="matrix(-0.495671 0.86851 -0.863504 -0.504341 192.664 -47.8672)" stroke="white"/>
<line y1="-0.5" x2="225.698" y2="-0.5" transform="matrix(-0.495671 0.86851 -0.863504 -0.504341 199.203 -44.6599)" stroke="white"/>
<line y1="-0.5" x2="225.698" y2="-0.5" transform="matrix(-0.495671 0.86851 -0.863504 -0.504341 205.742 -41.4525)" stroke="white"/>
<line y1="-0.5" x2="225.698" y2="-0.5" transform="matrix(-0.495671 0.86851 -0.863504 -0.504341 212.281 -38.2448)" stroke="white"/>
<line y1="-0.5" x2="225.698" y2="-0.5" transform="matrix(-0.495671 0.86851 -0.863504 -0.504341 218.82 -35.0375)" stroke="white"/>
<line y1="-0.5" x2="225.698" y2="-0.5" transform="matrix(-0.495671 0.86851 -0.863504 -0.504341 225.359 -31.8301)" stroke="white"/>
<line y1="-0.5" x2="225.698" y2="-0.5" transform="matrix(-0.495671 0.86851 -0.863504 -0.504341 231.898 -28.6228)" stroke="white"/>
<line y1="-0.5" x2="225.698" y2="-0.5" transform="matrix(-0.495671 0.86851 -0.863504 -0.504341 238.438 -25.4154)" stroke="white"/>
<line y1="-0.5" x2="225.698" y2="-0.5" transform="matrix(-0.495671 0.86851 -0.863504 -0.504341 244.977 -22.2076)" stroke="white"/>
<line y1="-0.5" x2="225.698" y2="-0.5" transform="matrix(-0.495671 0.86851 -0.863504 -0.504341 251.516 -19.0002)" stroke="white"/>
<line y1="-0.5" x2="225.698" y2="-0.5" transform="matrix(-0.495671 0.86851 -0.863504 -0.504341 258.055 -15.793)" stroke="white"/>
<line y1="-0.5" x2="225.698" y2="-0.5" transform="matrix(-0.495671 0.86851 -0.863504 -0.504341 264.594 -12.5856)" stroke="white"/>
<line y1="-0.5" x2="225.698" y2="-0.5" transform="matrix(-0.495671 0.86851 -0.863504 -0.504341 271.133 -9.37781)" stroke="white"/>
<line y1="-0.5" x2="225.698" y2="-0.5" transform="matrix(-0.495671 0.86851 -0.863504 -0.504341 277.672 -6.17041)" stroke="white"/>
<line y1="-0.5" x2="225.698" y2="-0.5" transform="matrix(-0.495671 0.86851 -0.863504 -0.504341 284.211 -2.96313)" stroke="white"/>
<line y1="-0.5" x2="225.698" y2="-0.5" transform="matrix(-0.495671 0.86851 -0.863504 -0.504341 290.75 0.244141)" stroke="white"/>
<line y1="-0.5" x2="225.698" y2="-0.5" transform="matrix(-0.495671 0.86851 -0.863504 -0.504341 297.289 3.45203)" stroke="white"/>
<path d="M0 48.5391H17.3776V10L62.3372 20V48.5391H105.785V10L149.232 20V48.5391H193.435V10L232.349 20" stroke="white" stroke-width="2"/>
</g>
</g>
<defs>
<clipPath id="clip0_1_5531">
<rect width="232" height="84" fill="white"/>
</clipPath>
</defs>
</svg>
