<svg width="500" height="320" viewBox="0 0 500 320" fill="none" xmlns="http://www.w3.org/2000/svg">
<rect width="500" height="320" rx="20" fill="#C9DAF4" fill-opacity="0.3"/>
<path d="M60.5898 181.925L251.238 290.009L452.427 181.925" stroke="#EAF1FB" stroke-width="2" stroke-dasharray="16 16"/>
<path d="M274.229 274.394L289.278 265.847V233.146L274.229 241.693V274.394Z" fill="#1A5EC4"/>
<path d="M264.939 224.227L267.726 225.714L282.59 217.167L279.803 215.495L264.939 224.227Z" fill="#5694F2"/>
<path d="M274.229 274.393L264.939 269.005V224.227L267.726 225.714L274.229 241.692V274.393Z" fill="#276CD3"/>
<path d="M274.231 241.693L267.729 225.714L282.592 217.167L289.281 233.146L274.231 241.693Z" fill="#3F81E3"/>
<path d="M273.486 236.676L269.213 226.271L282.033 218.839L286.306 229.244L273.486 236.676Z" fill="#276CD3"/>
<path d="M286.865 230.545L287.794 232.588L274.788 240.02L274.045 237.977L286.865 230.545Z" fill="#276CD3"/>
<path d="M274.784 234.26L284.074 229.058L280.543 221.069L271.439 226.271L274.784 234.26Z" fill="#F6F6F6"/>
<path d="M280.162 221.999L278.861 222.742L279.233 223.857L280.719 223.113L280.162 221.999Z" fill="#FD8C18"/>
<path d="M278.5 222.928L277.199 223.671L277.571 224.786L279.057 224.043L278.5 222.928Z" fill="#E7E7E9"/>
<path d="M281.471 224.786L279.984 225.529L280.542 226.644L281.842 225.715L281.471 224.786Z" fill="#0F2B55"/>
<path d="M279.793 225.714L278.307 226.458L278.864 227.572L280.165 226.829L279.793 225.714Z" fill="#E7E7E9"/>
<path d="M277.009 224.6L278.124 227.016C278.309 227.387 278.124 227.759 277.938 227.945L274.408 229.988C274.036 230.174 273.85 229.988 273.664 229.617L272.55 227.201C272.364 226.83 272.55 226.458 272.735 226.272L276.266 224.229C276.637 224.229 277.009 224.414 277.009 224.6Z" fill="#C9DAF4"/>
<path d="M282.022 226.086L280.535 226.829L281.093 227.944L282.393 227.201L282.022 226.086Z" fill="#E7E7E9"/>
<path d="M278.678 227.945L275.52 229.803L276.077 230.918L279.05 229.06L278.678 227.945Z" fill="#FD8C18"/>
<path d="M275.342 229.987L273.855 230.73L274.413 231.845L275.713 230.916L275.342 229.987Z" fill="#E7E7E9"/>
<path d="M282.582 227.572L281.281 228.315L281.653 229.43L282.953 228.501L282.582 227.572Z" fill="#FD8C18"/>
<path d="M280.91 228.501L279.609 229.244L279.981 230.359L281.282 229.43L280.91 228.501Z" fill="#C6C6C6"/>
<path d="M277.566 230.359L276.08 231.103L276.637 232.217L277.938 231.474L277.566 230.359Z" fill="#0F2B55"/>
<path d="M275.895 231.288L274.408 232.032L274.966 233.146L276.266 232.403L275.895 231.288Z" fill="#E7E7E9"/>
<g opacity="0.12">
<path d="M285.917 251.354V252.654L277.742 257.299V255.999L285.917 251.354ZM285.917 253.398L277.742 258.043V259.343L285.917 254.698V253.398ZM285.917 255.441L277.742 260.086V261.387L285.917 256.742V255.441ZM285.917 257.299L277.742 261.944V263.245L285.917 258.6V257.299ZM285.917 259.343L277.742 263.988V265.289L285.917 260.644V259.343ZM285.917 261.387L277.742 266.032V267.333L285.917 262.688V261.387Z" fill="white"/>
</g>
<path d="M282.587 282.753L183 271.42V263.059L282.587 274.578V282.753Z" fill="#276CD3"/>
<path d="M185.047 274.208L237.999 304.679C240.6 306.165 245.059 306.165 247.66 304.679L280.546 285.727C283.147 284.241 283.147 281.64 280.546 280.153L227.594 249.682C224.993 248.196 220.534 248.196 217.933 249.682L185.047 268.634C182.445 270.12 182.445 272.536 185.047 274.208Z" fill="#276CD3"/>
<path d="M185.047 265.847L237.999 296.318C240.6 297.805 245.059 297.805 247.66 296.318L280.546 277.367C283.147 275.88 283.147 273.279 280.546 271.793L227.594 241.322C224.993 239.835 220.534 239.835 217.933 241.322L185.047 260.273C182.445 261.76 182.445 264.361 185.047 265.847Z" fill="#3F81E3"/>
<path d="M248.397 260.457L235.02 252.839V167L248.397 174.804V260.457Z" fill="#276CD3"/>
<path d="M218.112 278.11L248.397 260.459V174.805L204.549 184.467L218.112 278.11Z" fill="#2160BE"/>
<path d="M272.537 252.841L276.996 250.24L256.744 238.534L252.285 241.135L272.537 252.841Z" fill="#DADADA"/>
<path d="M239.461 241.134V276.064C239.461 278.108 240.762 280.152 243.548 281.638C248.937 284.797 257.669 284.797 263.057 281.638C265.844 280.152 267.145 278.108 267.145 276.064V241.134H239.461Z" fill="#276CD3"/>
<path d="M248.555 266.59V273.093L228.303 261.388V254.885L248.555 266.59Z" fill="#575756"/>
<path d="M276.978 250.24V256.743L248.551 273.094V266.591L276.978 250.24Z" fill="#3C3C3B"/>
<path d="M253.01 256.741V263.988L232.758 252.282V245.036L253.01 256.741Z" fill="#878787"/>
<path d="M273.633 244.85L253.01 256.742L251.337 255.627L249.48 254.512L247.436 253.397L245.578 252.468L243.72 251.353L241.862 250.239L240.004 249.124L238.146 248.009L236.288 247.08L234.43 245.965L232.758 245.036L253.381 233.145L255.053 234.074L256.726 235.189L258.769 236.304L260.627 237.233L262.485 238.347L264.343 239.462L266.201 240.577L268.059 241.692L269.917 242.807L271.775 243.736L273.633 244.85Z" fill="#DADADA"/>
<path d="M273.627 244.85V252.097L253.004 263.988V256.742L273.627 244.85Z" fill="#B2B2B2"/>
<path d="M271.788 243.736L251.35 255.628L249.492 254.513L269.93 242.807L271.788 243.736Z" fill="#575756"/>
<path d="M268.069 241.692L247.446 253.397L245.588 252.468L266.211 240.577L268.069 241.692Z" fill="#575756"/>
<path d="M264.358 239.462L243.735 251.354L241.877 250.239L262.5 238.348L264.358 239.462Z" fill="#575756"/>
<path d="M260.636 237.234L240.012 249.125L238.154 248.01L258.778 236.305L260.636 237.234Z" fill="#575756"/>
<path d="M256.735 235.189L236.297 247.081L234.439 245.966L255.063 234.075L256.735 235.189Z" fill="#575756"/>
<path d="M251.164 256.928L251.35 255.627L249.492 254.512V255.813L251.164 256.928Z" fill="#3C3C3B"/>
<path d="M247.446 254.697V253.396L245.588 252.467V253.582L247.446 254.697Z" fill="#3C3C3B"/>
<path d="M243.735 252.467V251.352L241.877 250.238V251.538L243.735 252.467Z" fill="#3C3C3B"/>
<path d="M240.012 250.424V249.124L238.154 248.009V249.309L240.012 250.424Z" fill="#3C3C3B"/>
<path d="M236.297 248.194V247.08L234.439 245.965V247.08L236.297 248.194Z" fill="#3C3C3B"/>
<path d="M248.572 266.589L253.031 263.987L232.779 252.282L228.32 254.883L248.572 266.589Z" fill="#DADADA"/>
<path d="M240.788 224.598C240.788 220.511 238.002 219.024 234.471 221.068C230.941 223.112 228.154 227.943 228.154 231.845C228.154 235.932 230.941 237.418 234.471 235.375C238.002 233.331 240.788 228.5 240.788 224.598Z" fill="#DADADA"/>
<path d="M236.793 224.408L232.52 231.809L236.542 234.132L240.815 226.73L236.793 224.408Z" fill="#3C3C3B"/>
<path d="M237.633 226.458C237.633 224.6 236.332 223.671 234.66 224.785C232.988 225.714 231.688 228.13 231.688 229.988C231.688 231.846 232.988 232.775 234.66 231.66C236.332 230.731 237.633 228.316 237.633 226.458Z" fill="#3C3C3B"/>
<path d="M241.719 228.687C241.719 226.829 240.418 225.9 238.746 227.015C237.074 227.944 235.773 230.36 235.773 232.218C235.773 234.076 237.074 235.005 238.746 233.89C242.276 231.846 241.719 232.961 241.719 228.687Z" fill="#DADADA"/>
<path d="M240.673 228.049L237.607 233.359L240.343 234.938L243.408 229.628L240.673 228.049Z" fill="#9D9D9C"/>
<path d="M241.16 229.429C241.16 228.129 240.231 227.571 239.116 228.129C238.001 228.872 237.072 230.544 237.072 231.845C237.072 233.145 238.001 233.703 239.116 233.145C240.231 232.588 241.16 230.916 241.16 229.429Z" fill="#9D9D9C"/>
<path d="M243.949 231.101C243.949 229.8 243.02 229.243 241.905 229.8C240.79 230.544 239.861 232.216 239.861 233.516C239.861 234.817 240.79 235.374 241.905 234.817C243.02 234.074 243.949 232.402 243.949 231.101Z" fill="#DADADA"/>
<path d="M242.702 231.021L241.123 233.757L244.341 235.615L245.92 232.879L242.702 231.021Z" fill="#9D9D9C"/>
<path d="M243.021 231.658C243.021 230.915 242.463 230.544 241.906 230.915C241.348 231.287 240.791 232.216 240.791 232.959C240.791 233.702 241.348 234.074 241.906 233.702C242.463 233.331 243.021 232.402 243.021 231.658Z" fill="#9D9D9C"/>
<path d="M246.175 233.516C246.175 232.773 245.617 232.402 245.06 232.773C244.503 233.145 243.945 234.074 243.945 234.817C243.945 235.56 244.503 235.932 245.06 235.56C245.803 235.189 246.175 234.26 246.175 233.516Z" fill="#DADADA"/>
<path d="M246.736 232.773C246.736 231.472 245.807 230.915 244.692 231.658C243.577 232.401 242.648 233.888 242.648 235.188C242.648 236.489 243.577 237.046 244.692 236.303C245.807 235.746 246.736 234.073 246.736 232.773Z" fill="#706F6F"/>
<path d="M249.751 231.503L245.014 239.709L247.105 240.917L251.843 232.711L249.751 231.503Z" fill="#3C3C3B"/>
<path d="M250.825 233.517C250.825 231.287 249.339 230.544 247.481 231.473C245.623 232.587 244.137 235.189 244.137 237.418C244.137 239.648 245.623 240.391 247.481 239.462C249.153 238.347 250.825 235.746 250.825 233.517Z" fill="#3C3C3B"/>
<path d="M252.681 234.817C252.681 232.587 251.194 231.844 249.337 232.773C247.479 233.888 245.992 236.489 245.992 238.719C245.992 240.948 247.479 241.691 249.337 240.762C251.194 239.462 252.681 236.861 252.681 234.817Z" fill="#706F6F"/>
<path d="M251.572 235.56C251.572 234.259 250.643 233.702 249.528 234.445C248.413 235.188 247.484 236.675 247.484 237.975C247.484 239.276 248.413 239.833 249.528 239.09C250.643 238.347 251.572 236.86 251.572 235.56Z" fill="#DADADA"/>
<path d="M250.452 236.118C250.452 235.561 250.08 235.189 249.523 235.561C248.965 235.932 248.594 236.676 248.594 237.233C248.594 237.79 248.965 238.162 249.523 237.79C249.894 237.419 250.452 236.675 250.452 236.118Z" fill="#3C3C3B"/>
<path d="M243.746 242.619L250.621 246.521V250.794L243.746 246.892V242.619Z" fill="#9D9D9C"/>
<path d="M258.238 234.258L264.927 238.16L250.621 246.521L243.746 242.619L258.238 234.258Z" fill="#DADADA"/>
<path d="M264.927 242.433V238.16L250.621 246.521V250.794L264.927 242.433Z" fill="#878787"/>
<path d="M257.861 235.559H250.615V240.204H257.861V235.559Z" fill="#878787"/>
<path d="M256.747 238.718C258.233 239.461 258.233 240.761 256.747 241.69C255.26 242.434 253.031 242.434 251.73 241.69C250.244 240.947 250.244 239.647 251.73 238.718C253.031 237.974 255.26 237.974 256.747 238.718Z" fill="#878787"/>
<path d="M254.145 237.603C256.095 237.603 257.676 236.688 257.676 235.559C257.676 234.431 256.095 233.516 254.145 233.516C252.196 233.516 250.615 234.431 250.615 235.559C250.615 236.688 252.196 237.603 254.145 237.603Z" fill="#DADADA"/>
<path d="M255.459 234.816C256.203 235.188 256.203 235.931 255.459 236.303C254.716 236.674 253.601 236.674 252.858 236.303C252.115 235.931 252.115 235.188 252.858 234.816C253.601 234.259 254.716 234.259 255.459 234.816Z" fill="#878787"/>
<path d="M254.341 233.33H253.412V236.117H254.341V233.33Z" fill="#3C3C3B"/>
<path d="M254.156 235.932C254.342 236.118 254.342 236.118 254.156 236.304C253.97 236.49 253.599 236.49 253.413 236.304C253.227 236.118 253.227 236.118 253.413 235.932C253.784 235.747 254.156 235.747 254.156 235.932Z" fill="#3C3C3B"/>
<path d="M254.156 233.145C254.342 233.331 254.342 233.331 254.156 233.516C253.97 233.702 253.599 233.702 253.413 233.516C253.227 233.331 253.227 233.331 253.413 233.145C253.784 232.959 254.156 232.959 254.156 233.145Z" fill="#575756"/>
<path d="M255.993 233.145H251.905L251.162 228.5H256.736L255.993 233.145Z" fill="#9D9D9C"/>
<path d="M255.434 232.215C256.178 232.772 256.178 233.516 255.434 233.887C254.691 234.445 253.205 234.445 252.462 233.887C251.719 233.33 251.719 232.587 252.462 232.215C253.205 231.658 254.691 231.658 255.434 232.215Z" fill="#9D9D9C"/>
<path d="M255.992 227.384C257.106 227.941 257.106 229.056 255.992 229.613C254.877 230.171 253.205 230.171 252.09 229.613C250.975 229.056 250.975 227.941 252.09 227.384C253.019 226.826 254.877 226.826 255.992 227.384Z" fill="#3C3C3B"/>
<path d="M256.197 224.04H251.924V227.756H256.197V224.04Z" fill="#DADADA"/>
<path d="M255.454 226.827C256.197 227.384 256.197 228.128 255.454 228.499C254.711 229.057 253.224 229.057 252.481 228.499C251.738 227.942 251.738 227.199 252.481 226.827C253.224 226.455 254.711 226.455 255.454 226.827Z" fill="#DADADA"/>
<path d="M255.454 223.296C256.197 223.854 256.197 224.597 255.454 224.968C254.711 225.526 253.224 225.526 252.481 224.968C251.738 224.411 251.738 223.668 252.481 223.296C253.224 222.739 254.711 222.739 255.454 223.296Z" fill="#9D9D9C"/>
<path d="M257.864 219.394H250.061V224.597H257.864V219.394Z" fill="#9D9D9C"/>
<path d="M256.749 222.924C258.236 223.853 258.236 225.34 256.749 226.083C255.263 227.012 252.662 227.012 251.175 226.083C249.689 225.154 249.689 223.667 251.175 222.924C252.662 221.995 255.263 221.995 256.749 222.924Z" fill="#9D9D9C"/>
<path d="M256.749 217.723C258.236 218.652 258.236 220.138 256.749 220.881C255.263 221.81 252.662 221.81 251.175 220.881C249.689 219.952 249.689 218.466 251.175 217.723C252.662 216.794 255.263 216.794 256.749 217.723Z" fill="#9D9D9C"/>
<path d="M259.535 211.405H248.387V218.652H259.535V211.405Z" fill="#3C3C3B"/>
<path d="M257.862 216.421C260.092 217.722 260.092 219.766 257.862 221.066C255.633 222.367 252.103 222.367 250.059 221.066C247.829 219.766 247.829 217.722 250.059 216.421C252.288 215.121 255.819 215.121 257.862 216.421Z" fill="#3C3C3B"/>
<path d="M257.858 209.176C260.087 210.476 260.087 212.52 257.858 213.821C255.628 215.121 252.098 215.121 250.054 213.821C248.011 212.52 247.825 210.476 250.054 209.176C252.284 207.875 255.814 207.875 257.858 209.176Z" fill="#9D9D9C"/>
<path d="M273.463 195.614H265.846V208.434H273.463V195.614Z" fill="#276CD3"/>
<path d="M258.613 218.28L271.805 210.663C273.477 209.734 274.035 208.247 273.106 207.132L267.532 198.4L235.017 179.634L204.732 184.651V197.285L237.247 215.865L252.482 219.024C254.526 219.581 256.941 219.209 258.613 218.28Z" fill="#276CD3"/>
<path d="M258.613 205.647L271.805 198.029C273.477 197.1 274.035 195.614 273.106 194.499L267.532 185.767L235.017 167.001L204.732 184.466L237.247 203.232L252.482 206.39C254.526 206.948 256.941 206.762 258.613 205.647Z" fill="#3F81E3"/>
<path d="M237.24 203.232L218.103 192.269L204.725 184.466L197.108 205.09C193.206 215.68 191.162 226.828 191.162 238.162V262.688L204.539 270.491L217.917 278.295V205.09L237.054 216.052V203.232H237.24Z" fill="#276CD3"/>
<path d="M192.834 261.573V238.162C192.834 227.014 194.692 216.237 198.594 205.833L205.468 187.067L235.381 204.346V213.079L216.43 201.931V275.136L192.834 261.573Z" fill="#2361BE"/>
<path d="M259.546 193.385H248.213V196.172H259.546V193.385Z" fill="#3C3C3B"/>
<path d="M258.056 193.756C260.286 195.057 260.286 197.101 258.056 198.401C255.826 199.702 252.296 199.702 250.067 198.401C247.837 197.101 247.837 195.057 250.067 193.756C252.11 192.641 255.826 192.641 258.056 193.756Z" fill="#3C3C3B"/>
<path d="M258.056 191.155C260.286 192.456 260.286 194.5 258.056 195.8C255.826 197.101 252.296 197.101 250.067 195.8C247.837 194.5 247.837 192.456 250.067 191.155C252.11 189.855 255.826 189.855 258.056 191.155Z" fill="#DADADA"/>
<path d="M256.396 190.412C257.697 191.155 257.697 192.456 256.396 193.199C255.096 193.942 252.866 193.942 251.38 193.199C250.079 192.456 250.079 191.155 251.38 190.412C252.866 189.483 255.096 189.483 256.396 190.412Z" fill="#9D9D9C"/>
<path d="M236.128 260.661L234.68 261.497L238.21 267.612L239.658 266.775L236.128 260.661Z" fill="#3C3C3B"/>
<path d="M235.395 262.316C235.395 260.83 236.509 260.087 237.81 260.83C239.11 261.573 240.225 263.617 240.225 265.103C240.225 266.59 239.11 267.333 237.81 266.59C236.509 265.846 235.395 263.803 235.395 262.316Z" fill="#3C3C3B"/>
<path d="M233.906 263.059C233.906 261.573 235.021 260.829 236.322 261.573C237.622 262.316 238.737 264.36 238.737 265.846C238.737 267.332 237.622 268.076 236.322 267.332C235.021 266.589 233.906 264.731 233.906 263.059Z" fill="#706F6F"/>
<path d="M234.086 264.174C234.086 263.245 234.829 262.874 235.572 263.245C236.315 263.803 237.059 264.917 237.059 265.846C237.059 266.775 236.315 267.147 235.572 266.775C234.643 266.404 234.086 265.103 234.086 264.174Z" fill="#3C3C3B"/>
<path d="M233.292 261.204L232.648 261.576L237.015 269.138L237.658 268.766L233.292 261.204Z" fill="#706F6F"/>
<path d="M232.412 263.246C232.412 261.202 233.713 260.459 235.571 261.388C237.243 262.317 238.729 264.733 238.729 266.776C238.729 268.82 237.429 269.563 235.571 268.634C233.713 267.705 232.412 265.29 232.412 263.246Z" fill="#575756"/>
<path d="M231.67 263.619C231.67 261.575 232.97 260.832 234.828 261.761C236.501 262.69 237.987 265.105 237.987 267.149C237.987 269.193 236.686 269.936 234.828 269.007C233.156 268.078 231.67 265.662 231.67 263.619Z" fill="#9D9D9C"/>
<path d="M232.6 264.174C232.6 262.688 233.529 262.13 234.829 262.874C236.13 263.617 237.059 265.289 237.059 266.59C237.059 267.89 236.13 268.633 234.829 267.89C233.529 267.333 232.6 265.661 232.6 264.174Z" fill="#DADADA"/>
<path d="M234.465 265.289C234.465 264.918 234.651 264.918 234.836 265.104C235.022 265.289 235.208 265.661 235.208 265.847C235.208 266.218 235.022 266.218 234.836 266.033C234.651 265.847 234.465 265.475 234.465 265.289Z" fill="#575756"/>
<path d="M231.809 262.799L228.592 264.657L229.242 265.784L232.46 263.925L231.809 262.799Z" fill="#3C3C3B"/>
<path d="M231.865 263.06C231.865 262.689 232.051 262.689 232.237 262.874C232.423 263.06 232.608 263.432 232.608 263.618C232.608 263.989 232.423 263.989 232.237 263.803C232.051 263.803 231.865 263.432 231.865 263.06Z" fill="#3C3C3B"/>
<path d="M228.521 264.918C228.521 264.546 228.707 264.546 228.893 264.732C229.079 264.918 229.265 265.289 229.265 265.475C229.265 265.847 229.079 265.847 228.893 265.661C228.707 265.661 228.521 265.289 228.521 264.918Z" fill="#575756"/>
<path d="M267.226 251.693L262.023 260.704L264.276 262.004L269.478 252.994L267.226 251.693Z" fill="#3C3C3B"/>
<path d="M268.281 253.956C268.281 251.54 266.609 250.611 264.566 251.912C262.522 253.027 260.85 256 260.85 258.229C260.85 260.645 262.522 261.574 264.566 260.273C266.609 259.344 268.281 256.371 268.281 253.956Z" fill="#3C3C3B"/>
<path d="M270.506 255.257C270.506 252.842 268.834 251.913 266.79 253.214C264.746 254.328 263.074 257.301 263.074 259.531C263.074 261.946 264.746 262.875 266.79 261.575C268.834 260.46 270.506 257.673 270.506 255.257Z" fill="#706F6F"/>
<path d="M270.324 256.929C270.324 255.443 269.395 254.885 268.095 255.629C266.794 256.372 265.865 258.044 265.865 259.53C265.865 261.017 266.794 261.574 268.095 260.831C269.21 260.088 270.324 258.416 270.324 256.929Z" fill="#3C3C3B"/>
<path d="M271.313 252.486L264.811 263.749L265.776 264.306L272.279 253.043L271.313 252.486Z" fill="#706F6F"/>
<path d="M272.737 255.442C272.737 252.469 270.693 251.354 268.092 252.841C265.491 254.327 263.447 257.857 263.447 260.83C263.447 263.803 265.491 264.918 268.092 263.431C270.693 262.131 272.737 258.415 272.737 255.442Z" fill="#575756"/>
<path d="M273.665 256.185C273.665 253.212 271.621 252.097 269.02 253.583C266.419 255.07 264.375 258.6 264.375 261.573C264.375 264.546 266.419 265.66 269.02 264.174C271.621 262.688 273.665 258.972 273.665 256.185Z" fill="#9D9D9C"/>
<path d="M272.366 256.928C272.366 254.885 270.88 253.956 269.022 255.07C267.164 256.185 265.678 258.601 265.678 260.83C265.678 262.874 267.164 263.803 269.022 262.688C270.88 261.573 272.366 258.972 272.366 256.928Z" fill="#DADADA"/>
<path d="M269.772 258.415C269.772 258.043 269.4 257.857 269.028 258.043C268.657 258.229 268.285 258.786 268.285 259.158C268.285 259.53 268.657 259.715 269.028 259.53C269.4 259.344 269.772 258.786 269.772 258.415Z" fill="#575756"/>
<path d="M273.48 254.911L272.551 256.52L277.378 259.307L278.307 257.698L273.48 254.911Z" fill="#3C3C3B"/>
<path d="M273.672 255.255C273.672 254.884 273.3 254.698 272.929 254.884C272.557 255.07 272.186 255.627 272.186 255.999C272.186 256.37 272.557 256.556 272.929 256.37C273.3 256.184 273.672 255.627 273.672 255.255Z" fill="#3C3C3B"/>
<path d="M278.502 258.042C278.502 257.671 278.13 257.485 277.759 257.671C277.387 257.856 277.016 258.414 277.016 258.785C277.016 259.157 277.387 259.343 277.759 259.157C278.13 258.971 278.502 258.414 278.502 258.042Z" fill="#575756"/>
<path d="M357.175 200.814L324.254 181.654V148.463L357.175 167.622V200.814Z" fill="#276CD3"/>
<path d="M390.099 121.477L371.749 132.271L338.559 113.112L357.178 102.588L390.099 121.477Z" fill="#3F81E3"/>
<path d="M357.176 200.814L390.097 181.654V121.477L371.747 132.271L357.176 167.622V200.814Z" fill="#2361BE"/>
<path d="M357.175 167.622L371.746 132.272L338.556 113.112L324.254 148.463L357.175 167.622Z" fill="#3F81E3"/>
<path d="M359.078 156.287L368.523 133.35L339.919 116.889L330.475 139.826L359.078 156.287Z" fill="#276CD3"/>
<path d="M329.387 142.795L327.498 147.383L355.832 163.844L357.721 159.256L329.387 142.795Z" fill="#276CD3"/>
<path d="M366.076 166.273V187.861L450.807 236.705L452.966 247.229L461.601 252.086V221.323L366.076 166.273Z" fill="#276CD3"/>
<path d="M480.483 210.258L461.594 221.322V252.085L480.483 241.021V210.258Z" fill="#2361BE"/>
<path d="M366.076 166.273L384.965 155.209L480.49 210.259L461.601 221.322L366.076 166.273Z" fill="#3FA2E5"/>
<path d="M366.076 166.273V168.432L461.601 223.482V221.323L366.076 166.273Z" fill="#276CD3"/>
<path d="M480.483 210.258L461.594 221.322V223.481L480.483 212.417V210.258Z" fill="#2361BE"/>
<path d="M366.076 166.273L384.965 155.209L480.49 210.259L461.601 221.322L366.076 166.273Z" fill="#DADADA"/>
<path d="M366.076 163.844V166.273L461.601 221.323V219.164L366.076 163.844Z" fill="#3C3C3B"/>
<path d="M466.451 216.195L461.594 219.164V221.323L466.451 218.624V216.195Z" fill="#878787"/>
<path d="M366.076 163.844L370.933 161.146L466.458 216.196L461.601 219.164L366.076 163.844Z" fill="#9D9D9C"/>
<path d="M380.102 155.75V157.909L475.626 213.228V210.8L380.102 155.75Z" fill="#3C3C3B"/>
<path d="M480.478 208.1L475.621 210.799V213.228L480.478 210.259V208.1Z" fill="#878787"/>
<path d="M380.102 155.75L384.959 153.051L480.483 208.101L475.626 210.8L380.102 155.75Z" fill="#9D9D9C"/>
<path d="M386.639 131.244L374.227 152.744L388.248 160.839L400.66 139.34L386.639 131.244Z" fill="#B2B2B2"/>
<path d="M389.278 136.86C389.278 131.193 385.5 129.035 380.643 131.733C375.786 134.432 372.008 141.178 372.008 146.845C372.008 152.512 375.786 154.671 380.643 151.972C385.23 149.274 389.278 142.527 389.278 136.86Z" fill="#B2B2B2"/>
<path d="M403.043 144.956C403.043 139.289 399.266 137.13 394.408 139.829C389.551 142.527 385.773 149.273 385.773 154.94C385.773 160.607 389.551 162.766 394.408 160.068C399.266 157.369 403.043 150.623 403.043 144.956Z" fill="#DADADA"/>
<path d="M396.836 148.734C396.836 147.114 395.756 146.575 394.407 147.384C393.058 148.194 391.979 150.083 391.979 151.432C391.979 153.051 393.058 153.591 394.407 152.781C395.756 151.972 396.836 150.083 396.836 148.734Z" fill="#3C3C3B"/>
<path d="M393.33 154.401V158.989L396.298 160.608L398.457 154.941L395.489 153.322L393.33 154.401Z" fill="#3C3C3B"/>
<path d="M397.646 147.925L400.614 149.544L402.773 143.877L399.805 142.258L396.566 146.306L397.646 147.925Z" fill="#3C3C3B"/>
<path d="M396.299 156.291V160.609L398.458 159.259V154.942L396.299 156.291Z" fill="#9D9D9C"/>
<path d="M400.615 149.545L403.853 145.497L402.773 143.878L399.535 147.925L400.615 149.545Z" fill="#9D9D9C"/>
<path d="M395.727 145.892L391.68 152.903L404.299 160.189L408.346 153.178L395.727 145.892Z" fill="#878787"/>
<path d="M396.567 147.924C396.567 146.035 395.218 145.496 393.599 146.305C391.98 147.115 390.631 149.543 390.631 151.163C390.631 153.052 391.98 153.591 393.599 152.782C395.218 151.972 396.567 149.543 396.567 147.924Z" fill="#878787"/>
<path d="M409.249 155.211C409.249 153.322 407.9 152.783 406.281 153.592C404.662 154.402 403.312 156.831 403.312 158.45C403.312 160.339 404.662 160.878 406.281 160.069C407.9 158.989 409.249 156.831 409.249 155.211Z" fill="#DADADA"/>
<path d="M392.517 148.734L389.009 148.464L387.93 151.163L390.898 152.782L395.485 150.353L392.517 148.734Z" fill="#3C3C3B"/>
<path d="M395.494 150.353L391.986 150.083L390.906 152.782L394.144 153.321L395.494 150.353Z" fill="#9D9D9C"/>
<path d="M402.514 185.163V204.593L391.721 198.386V178.957L402.514 185.163Z" fill="#B2B2B2"/>
<path d="M417.896 176.258L402.514 185.163L391.721 178.957L406.832 170.052L417.896 176.258Z" fill="#EDEDED"/>
<path d="M410.881 189.751L417.897 185.703V176.259L402.516 185.164V204.593L410.881 199.736V189.751Z" fill="#DADADA"/>
<path d="M405.211 162.225V163.574L401.973 161.685V160.606L405.211 162.225Z" fill="#B2B2B2"/>
<path d="M406.56 161.415L405.211 162.225L401.973 160.606V158.717L406.56 161.415Z" fill="#3C3C3B"/>
<path d="M405.205 162.225V163.574L406.554 162.765V161.415L405.205 162.225Z" fill="#878787"/>
<path d="M397.922 172.21L405.477 176.528V180.306L397.922 175.988V172.21Z" fill="#706F6F"/>
<path d="M404.938 168.162L412.224 172.48L405.477 176.528L397.922 172.21L404.938 168.162Z" fill="#9D9D9C"/>
<path d="M412.227 176.258V172.48L405.48 176.528V180.306L412.227 176.258Z" fill="#878787"/>
<path d="M396.033 164.925L405.478 170.322V175.179L396.033 169.782V164.925Z" fill="#3C3C3B"/>
<path d="M404.668 159.797L414.383 165.195L405.478 170.322L396.033 164.925L404.668 159.797Z" fill="#9D9D9C"/>
<path d="M414.378 170.322V165.195L405.473 170.322V175.179L414.378 170.322Z" fill="#3C3C3B"/>
<path d="M407.91 163.304C409.26 164.114 409.26 165.463 407.91 166.273C406.561 167.082 404.133 167.082 402.783 166.273C401.434 165.463 401.434 164.114 402.783 163.304C404.133 162.495 406.561 162.495 407.91 163.304Z" fill="#DADADA"/>
<path d="M449.993 187.321L429.215 199.194L454.85 214.036L475.628 202.163L449.993 187.321Z" fill="#3F81E3"/>
<path d="M429.215 203.512V199.194L454.85 214.036V218.084L429.215 203.512Z" fill="#276CD3"/>
<path d="M454.854 214.036V218.084L455.933 217.544V215.655L460.79 212.957L462.139 213.766L469.965 209.449V207.56L474.822 204.861L475.631 205.131V202.163L454.854 214.036Z" fill="#2361BE"/>
<path d="M460.795 191.368V211.068L435.16 196.226V176.526L460.795 191.368Z" fill="#276CD3"/>
<path d="M469.7 186.241L460.795 191.368L435.16 176.527L444.065 171.399L469.7 186.241Z" fill="#9D9D9C"/>
<path d="M460.795 191.368V211.067L469.7 205.94V186.241L460.795 191.368Z" fill="#2361BE"/>
<path d="M475.898 174.098L465.105 180.305L460.787 188.401V197.845L475.898 189.21V174.098Z" fill="#2361BE"/>
<path d="M444.056 155.749L432.992 161.956L465.104 180.306L475.897 174.099L444.056 155.749Z" fill="#3F81E3"/>
<path d="M428.943 179.496V169.781L460.785 188.401V197.846L428.943 179.496Z" fill="#3F81E3"/>
<path d="M431.639 178.147V174.369L458.353 189.751V193.529L431.639 178.147Z" fill="#276CD3"/>
<path d="M460.789 188.401L428.947 169.781L432.995 161.956L465.106 180.306L460.789 188.401Z" fill="#3F81E3"/>
<path d="M391.621 182.596L390.219 183.406L398.584 197.895L399.986 197.085L391.621 182.596Z" fill="#706F6F"/>
<path d="M389.828 186.783C389.828 183.005 392.527 181.386 395.765 183.275C399.003 185.164 401.701 189.751 401.701 193.529C401.701 197.307 399.003 198.926 395.765 197.037C392.527 195.148 389.828 190.561 389.828 186.783Z" fill="#3C3C3B"/>
<path d="M388.479 187.323C388.479 183.545 391.177 181.926 394.415 183.815C397.653 185.704 400.352 190.291 400.352 194.069C400.352 197.847 397.653 199.466 394.415 197.577C391.177 195.688 388.479 191.101 388.479 187.323Z" fill="#3C3C3B"/>
<path d="M390.094 188.402C390.094 185.704 391.983 184.624 394.411 185.974C396.84 187.323 398.729 190.561 398.729 193.26C398.729 195.958 396.84 197.038 394.411 195.688C391.983 194.339 390.094 191.101 390.094 188.402Z" fill="#706F6F"/>
<path d="M393.602 190.292C393.602 189.752 393.871 189.482 394.411 189.752C394.951 190.022 395.221 190.832 395.221 191.371C395.221 191.911 394.951 192.181 394.411 191.911C393.871 191.641 393.602 190.832 393.602 190.292Z" fill="#575756"/>
<path d="M388.94 185.614L382.631 189.257L383.845 191.36L390.155 187.717L388.94 185.614Z" fill="#3C3C3B"/>
<path d="M388.736 186.243C388.736 185.704 389.006 185.434 389.546 185.704C390.086 185.973 390.355 186.513 390.355 187.053C390.355 187.592 390.086 187.862 389.546 187.592C389.006 187.592 388.736 186.783 388.736 186.243Z" fill="#3C3C3B"/>
<path d="M382.268 190.021C382.268 189.481 382.537 189.211 383.077 189.481C383.617 189.751 383.887 190.291 383.887 190.83C383.887 191.37 383.617 191.64 383.077 191.37C382.537 191.1 382.268 190.561 382.268 190.021Z" fill="#575756"/>
<path d="M479.046 172.531L468.252 191.226L469.888 192.171L480.681 173.475L479.046 172.531Z" fill="#706F6F"/>
<path d="M481.301 177.607C481.301 172.749 477.793 170.86 473.745 173.289C469.428 175.718 466.189 181.654 466.189 186.512C466.189 191.369 469.697 193.258 473.745 190.829C477.793 188.131 481.301 182.464 481.301 177.607Z" fill="#3C3C3B"/>
<path d="M482.92 178.416C482.92 173.559 479.412 171.67 475.364 174.099C471.047 176.527 467.809 182.464 467.809 187.322C467.809 192.179 471.317 194.068 475.364 191.639C479.682 189.211 482.92 183.274 482.92 178.416Z" fill="#3C3C3B"/>
<path d="M480.762 179.767C480.762 176.259 478.334 174.909 475.366 176.528C472.397 178.148 469.969 182.465 469.969 185.973C469.969 189.481 472.397 190.831 475.366 189.211C478.334 187.323 480.762 183.275 480.762 179.767Z" fill="#706F6F"/>
<path d="M476.442 182.194C476.442 181.384 475.902 181.114 475.363 181.654C474.823 181.924 474.283 183.003 474.283 183.543C474.283 184.353 474.823 184.623 475.363 184.083C475.902 183.813 476.442 183.003 476.442 182.194Z" fill="#575756"/>
<path d="M482.496 176.427L481.012 178.998L488.957 183.586L490.441 181.015L482.496 176.427Z" fill="#3C3C3B"/>
<path d="M482.655 177.068C482.655 176.258 482.115 175.988 481.575 176.528C481.036 176.798 480.496 177.607 480.496 178.417C480.496 179.226 481.036 179.496 481.575 178.957C482.385 178.687 482.655 177.877 482.655 177.068Z" fill="#3C3C3B"/>
<path d="M490.752 181.655C490.752 180.845 490.213 180.575 489.673 181.115C489.133 181.385 488.594 182.195 488.594 183.004C488.594 183.814 489.133 184.084 489.673 183.544C490.213 183.274 490.752 182.464 490.752 181.655Z" fill="#575756"/>
<path d="M400.267 166.179L399.332 166.719L405.269 177.001L406.203 176.461L400.267 166.179Z" fill="#706F6F"/>
<path d="M403.044 176.258C405.472 177.607 407.091 176.528 407.091 173.829C407.091 171.131 405.202 167.893 403.044 166.543C400.615 165.194 398.996 166.273 398.996 168.972C398.996 171.67 400.885 174.909 403.044 176.258Z" fill="#DADADA"/>
<path d="M402.235 176.798C404.664 178.147 406.283 177.068 406.283 174.369C406.283 171.671 404.394 168.433 402.235 167.083C399.807 165.734 398.188 166.813 398.188 169.512C397.918 172.211 399.807 175.449 402.235 176.798Z" fill="#9D9D9C"/>
<path d="M402.236 175.179C403.855 176.258 405.204 175.448 405.204 173.56C405.204 171.671 403.855 169.242 402.236 168.432C400.617 167.353 399.268 168.162 399.268 170.051C399.268 171.94 400.617 174.369 402.236 175.179Z" fill="#EDEDED"/>
<path d="M402.231 172.481C402.501 172.751 402.771 172.481 402.771 172.211C402.771 171.941 402.501 171.402 402.231 171.132C401.961 170.862 401.691 171.132 401.691 171.402C401.691 171.671 401.961 172.481 402.231 172.481Z" fill="#575756"/>
<path d="M402.557 175.577L398.117 178.14L398.927 179.542L403.367 176.979L402.557 175.577Z" fill="#3C3C3B"/>
<path d="M403.048 177.067C403.318 177.337 403.588 177.067 403.588 176.797C403.588 176.528 403.318 175.988 403.048 175.718C402.778 175.448 402.508 175.718 402.508 175.988C402.238 176.258 402.508 176.797 403.048 177.067Z" fill="#3C3C3B"/>
<path d="M398.46 179.495C398.729 179.765 398.999 179.495 398.999 179.225C398.999 178.956 398.729 178.416 398.46 178.146C398.19 177.876 397.92 178.146 397.92 178.416C397.92 178.956 398.19 179.225 398.46 179.495Z" fill="#575756"/>
<path d="M348.683 167.573L347.047 168.517L350.69 174.827L352.326 173.883L348.683 167.573Z" fill="#B2B2B2"/>
<path d="M347.723 169.242C347.723 167.623 348.802 166.813 350.421 167.623C351.77 168.432 353.12 170.591 353.12 172.21C353.12 173.83 352.04 174.639 350.421 173.83C348.802 173.02 347.723 171.131 347.723 169.242Z" fill="#B2B2B2"/>
<path d="M346.104 170.321C346.104 168.702 347.183 167.892 348.802 168.702C350.151 169.511 351.5 171.67 351.5 173.289C351.5 174.908 350.421 175.718 348.802 174.908C347.453 174.099 346.104 171.94 346.104 170.321Z" fill="#878787"/>
<path d="M346.377 171.401C346.377 170.321 347.187 170.051 347.996 170.591C348.806 171.131 349.615 172.48 349.615 173.29C349.615 174.369 348.806 174.639 347.996 174.099C346.917 173.559 346.377 172.48 346.377 171.401Z" fill="#3C3C3B"/>
<path d="M347.724 169.242C347.994 169.512 347.724 169.782 347.454 170.052C347.185 170.321 346.915 170.052 346.645 170.052L340.708 162.766C340.438 162.496 340.978 161.686 341.248 161.686C341.518 161.686 342.327 161.146 342.327 161.416L347.724 169.242Z" fill="#3C3C3B"/>
<path d="M358.252 151.969L338.014 140.366L345.569 122.556L365.808 134.159L358.252 151.969Z" fill="#F6F6F6"/>
<path d="M346.368 124.445L349.607 126.334L348.527 128.763L345.289 126.874L346.368 124.445Z" fill="#E75221"/>
<path d="M350.156 126.603L353.124 128.492L352.314 130.651L349.076 129.032L350.156 126.603Z" fill="#C6C6C6"/>
<path d="M343.675 130.652L346.913 132.271L345.834 134.7L342.865 133.081L343.675 130.652Z" fill="#C6C6C6"/>
<path d="M347.458 132.811L350.696 134.43L349.617 136.859L346.379 134.97L347.458 132.811Z" fill="#C6C6C6"/>
<path d="M353.401 130.381L351.243 135.778C350.973 136.588 351.243 137.398 351.782 137.667L359.338 141.985C359.878 142.255 360.687 141.985 361.227 141.445L363.386 136.048C363.655 135.239 363.386 134.429 362.846 134.159L355.29 129.842C354.481 129.302 353.671 129.842 353.401 130.381Z" fill="#FFE394"/>
<path d="M342.599 133.62L345.567 135.509L344.488 137.668L341.52 136.049L342.599 133.62Z" fill="#C6C6C6"/>
<path d="M349.886 137.938L356.632 141.716L355.823 144.145L348.807 140.367L349.886 137.938Z" fill="#6AC6D0"/>
<path d="M357.443 142.255L360.411 143.874L359.332 146.303L356.363 144.414L357.443 142.255Z" fill="#C6C6C6"/>
<path d="M341.249 136.858L344.218 138.478L343.408 140.906L340.17 139.017L341.249 136.858Z" fill="#E75221"/>
<path d="M345.023 138.747L347.991 140.636L346.912 143.064L343.943 141.175L345.023 138.747Z" fill="#6AC6D0"/>
<path d="M352.32 143.065L355.288 144.954L354.478 147.113L351.24 145.493L352.32 143.065Z" fill="#3685BA"/>
<path d="M356.087 145.224L359.055 146.843L357.976 149.272L355.008 147.653L356.087 145.224Z" fill="#C6C6C6"/>
<path d="M379.041 150.891C379.041 151.971 378.231 152.511 377.422 151.971C376.612 151.431 375.803 150.082 375.803 149.002C375.803 147.923 376.612 147.383 377.422 147.923C378.501 148.733 379.041 149.812 379.041 150.891Z" fill="#3C3C3B"/>
<path d="M115.498 119.575L136.397 131.605L139.07 135.371L147.09 166.234V178.506L143.323 179.842V192.479L99.3379 182.394V153.962L112.582 120.304L115.498 119.575Z" fill="#427BBD"/>
<path d="M84.3985 137.558L105.176 149.587L107.971 153.354L115.99 184.216V196.488L112.224 197.825V210.462L85.6136 190.292L81.4824 164.168V138.287L84.3985 137.558Z" fill="#9095A3"/>
<path d="M110.277 196.489L114.165 195.152V184.459L106.267 154.204L103.959 150.924L84.0317 139.502L83.3027 139.745L87.5555 189.198L110.277 207.181V196.489Z" fill="#6C707A"/>
<path d="M94.36 159.915L67.1426 175.711L85.1256 197.825L112.343 182.029L94.36 159.915Z" fill="#AEB2B3"/>
<path d="M94.36 143.269L67.1426 159.064V175.711L94.36 159.915V143.269Z" fill="#7B7D78"/>
<path d="M85.127 197.824V206.937L112.344 191.142V182.029L85.127 197.824Z" fill="#949799"/>
<path d="M115.99 193.329L88.7721 209.003L85.127 206.938L112.344 191.142L115.99 193.329Z" fill="#C2C7C8"/>
<path d="M97.0307 177.29C95.2081 174.86 93.264 172.551 91.4414 170.121L102.134 163.924C102.742 163.56 103.471 163.681 104.443 164.167C106.144 165.139 107.602 167.691 107.602 169.635C107.602 170.607 107.237 171.215 106.751 171.579H106.63L97.0307 177.29Z" fill="url(#paint0_linear_1_2178)"/>
<path d="M96.7812 164.532C97.6317 164.046 98.8468 164.046 100.183 164.775C102.856 166.233 104.922 170 104.922 172.916C104.922 174.495 104.315 175.468 103.464 175.954L93.136 181.907L86.4531 170.364L96.7812 164.532Z" fill="url(#paint1_linear_1_2178)"/>
<path d="M85.1211 173.401C85.1211 176.439 87.1867 180.084 89.8598 181.542C92.5329 183 94.5986 181.785 94.5986 178.869C94.5986 175.832 92.5329 172.186 89.8598 170.728C87.1867 169.27 85.1211 170.485 85.1211 173.401Z" fill="#CFCFD2"/>
<path d="M84.7608 184.337C84.7608 184.337 82.9382 178.505 80.9941 176.075L87.5555 172.308C88.163 171.944 88.892 172.065 89.8641 172.551C91.5652 173.523 93.0233 176.075 93.0233 178.019C93.0233 178.991 92.6588 179.599 92.1727 179.963H92.0512L84.7608 184.337Z" fill="url(#paint2_linear_1_2178)"/>
<path d="M57.0527 153.231L84.3917 137.557L94.3552 143.268L67.1378 159.064L57.0527 153.231Z" fill="#D6D9DE"/>
<path d="M26.918 170.607L57.0515 153.232L77.9507 165.261L47.8171 182.637L26.918 170.607Z" fill="#3F81E3"/>
<path d="M84.3926 137.558L115.498 119.575L136.397 131.604L105.17 149.587L84.3926 137.558Z" fill="#3F81E3"/>
<path d="M24 171.336L112.578 120.304L115.494 119.575L26.9162 170.607L24 171.336Z" fill="#9095A3"/>
<path d="M50.4993 186.525L80.7544 169.149L77.9597 165.261L47.8262 182.636L50.4993 186.525Z" fill="#276CD3"/>
<path d="M107.97 153.354L139.076 135.371L136.403 131.604L105.176 149.587L107.97 153.354Z" fill="#EEF2F7"/>
<path d="M54.752 237.8L143.33 186.767V179.842L54.752 230.996V237.8Z" fill="#A2A7AB"/>
<path d="M58.6328 229.659L147.09 178.505V166.233L115.984 184.216V193.329L88.7665 209.003V199.89L58.6328 217.266V229.659Z" fill="#276CD3"/>
<path d="M80.7492 169.148L88.7687 199.889L58.635 217.265L50.4941 186.524L80.7492 169.148Z" fill="#1D5DBC"/>
<path d="M53.8965 190.535L59.3643 211.312L63.0095 209.247L57.5417 188.469L54.261 189.806L53.8965 190.535Z" fill="#BFC5C9"/>
<path d="M76.3745 177.898L81.8423 198.675L67.626 206.938L62.1582 186.039L62.5227 185.31L76.3745 177.898Z" fill="#BFC5C9"/>
<path d="M139.076 135.37L147.096 166.233L115.99 184.216L107.971 153.353L139.076 135.37Z" fill="#D6D9DE"/>
<path d="M57.903 187.619L60.3331 210.705L59.7256 210.583L54.2578 189.806L57.903 187.619Z" fill="#A3AAB6"/>
<path d="M58.632 187.74L57.903 187.619L54.2578 189.806L54.9868 189.927L58.632 187.74Z" fill="#E3E8E9"/>
<path d="M54.9922 189.927L60.3385 210.705L64.1052 208.639L58.6374 187.74L54.9922 189.927Z" fill="#C0C0C8"/>
<path d="M61.3067 206.33C61.4282 206.208 61.5497 206.208 61.7927 206.208H61.9142C62.0357 206.33 62.2787 206.451 62.2787 206.816C62.4002 207.423 62.1572 208.031 61.7927 208.274C61.7927 208.274 61.6712 208.274 61.6712 208.395V208.517H61.4282C61.1852 208.517 60.9422 208.274 60.8207 207.909C60.6992 207.18 60.9421 206.573 61.3067 206.33Z" fill="#847F8D"/>
<path d="M61.5501 206.329C61.0641 206.572 60.8211 207.18 61.0641 207.788C61.1856 208.395 61.6716 208.638 62.1577 208.395C62.6437 208.152 62.8867 207.545 62.6437 206.937C62.5222 206.329 62.0362 206.086 61.5501 206.329Z" fill="#9996A1"/>
<path d="M57.4192 190.899C57.5407 190.778 57.6623 190.778 57.9053 190.778H58.0267C58.1483 190.899 58.3913 191.021 58.3913 191.385C58.5128 191.993 58.2698 192.6 57.9053 192.843C57.9053 192.843 57.7838 192.843 57.7838 192.965V193.086H57.5408C57.2978 193.086 57.0547 192.843 56.9332 192.479C56.6902 191.75 56.9332 191.142 57.4192 190.899Z" fill="#847F8D"/>
<path d="M57.6692 190.899C57.1832 191.142 56.9402 191.75 57.1832 192.357C57.3047 192.965 57.7907 193.208 58.2767 192.965C58.7628 192.722 59.0058 192.114 58.7628 191.507C58.5198 190.899 58.0337 190.656 57.6692 190.899Z" fill="#9996A1"/>
<path d="M54.7441 243.632L143.322 192.478V186.768L54.7441 237.8V243.632Z" fill="#1F56A9"/>
<path d="M61.0703 153.961L73.707 161.251V162.831L61.0703 155.541V153.961Z" fill="#276CD3"/>
<path d="M67.1426 153.961L73.704 157.849V161.251L67.1426 157.485V153.961Z" fill="#3A3F47"/>
<path d="M85.3652 161.738L92.5341 157.728V152.017L85.3652 156.149V161.738Z" fill="#565A61"/>
<path d="M78.8086 157.971L85.3699 161.737V156.148L78.8086 152.26V157.971Z" fill="#3A3F47"/>
<path d="M88.2878 138.165L101.046 145.455L73.707 161.251L61.0703 153.961L88.2878 138.165Z" fill="#276CD3"/>
<path d="M130.93 133.304L131.902 133.79L104.685 149.586L103.713 148.979L130.93 133.304Z" fill="#5A5E64"/>
<path d="M142.717 174.009V172.916L115.5 188.59V189.683L142.717 174.009Z" fill="#5A5E64"/>
<path d="M101.042 145.455L73.7031 161.251V162.831L101.042 147.157V145.455Z" fill="#3F81E3"/>
<path d="M85.3652 145.091L92.5341 141.081V152.26L85.3652 156.27V145.091Z" fill="#565A61"/>
<path d="M85.3699 145.091L92.5388 141.081L85.9774 137.193L78.8086 141.324L85.3699 145.091Z" fill="#6D7075"/>
<path d="M78.8086 141.324L85.3699 145.091V154.568L78.8086 150.68V141.324Z" fill="#3A3F47"/>
<path d="M76.7358 177.169L68.7164 206.209L67.9873 206.087L62.5195 185.31L76.7358 177.169Z" fill="#A3AAB6"/>
<path d="M77.3467 177.291L82.8145 198.068L68.7197 206.209L63.252 185.431L77.3467 177.291Z" fill="#C0C0C8"/>
<path d="M76.1283 182.029C76.2498 181.907 76.3713 181.907 76.6143 181.907H76.7358C76.8573 182.029 77.1003 182.15 77.1003 182.515C77.2218 183.122 76.9788 183.73 76.6143 183.973C76.6143 183.973 76.4928 183.973 76.4928 184.094V184.216H76.2497C76.0067 184.216 75.7637 183.973 75.6422 183.608C75.3992 182.879 75.6422 182.272 76.1283 182.029Z" fill="#847F8D"/>
<path d="M74.1876 183.122C74.3091 183.001 74.4306 183.001 74.6736 183.001H74.7951C74.9166 183.122 75.1596 183.244 75.1596 183.609C75.2811 184.216 75.0381 184.824 74.6736 185.067C74.6736 185.067 74.5521 185.067 74.5521 185.188V185.31H74.3091C74.066 185.31 73.823 185.067 73.7015 184.702C73.58 183.973 73.8231 183.366 74.1876 183.122Z" fill="#847F8D"/>
<path d="M79.17 193.815C79.2915 193.694 79.413 193.694 79.6561 193.694H79.7775C79.899 193.815 80.142 193.937 80.142 194.301C80.2635 194.909 80.0206 195.516 79.6561 195.759C79.6561 195.759 79.5345 195.759 79.5345 195.881V196.002H79.2915C79.0485 196.002 78.8055 195.759 78.6839 195.395C78.5624 194.787 78.8055 194.058 79.17 193.815Z" fill="#847F8D"/>
<path d="M77.349 194.908C77.4705 194.787 77.592 194.787 77.835 194.787H77.9565C78.078 194.908 78.321 195.03 78.321 195.394C78.4425 196.002 78.1995 196.609 77.835 196.852C77.835 196.852 77.7135 196.852 77.7135 196.974V197.095H77.4704C77.2274 197.095 76.9844 196.852 76.8629 196.488C76.6199 195.88 76.8629 195.273 77.349 194.908Z" fill="#847F8D"/>
<path d="M77.3475 191.264C76.8615 191.507 76.6184 192.236 76.7399 192.843C76.8615 193.451 77.469 193.694 77.955 193.451C78.441 193.208 78.6841 192.479 78.5625 191.871C78.3195 191.264 77.8335 191.021 77.3475 191.264Z" fill="#827E8C"/>
<path d="M77.3433 177.29L76.7358 177.169L62.5195 185.31L63.2486 185.431L77.3433 177.29Z" fill="#E3E8E9"/>
<path d="M81.3524 196.61C81.4739 196.488 81.7169 196.61 81.7169 196.853C81.7169 197.096 81.717 197.339 81.474 197.46C81.3524 197.582 81.1094 197.46 81.1094 197.217C81.1094 196.974 81.2309 196.731 81.3524 196.61Z" fill="#8F8F8E"/>
<path d="M69.8133 203.293C69.9348 203.172 70.1778 203.293 70.1778 203.536C70.1778 203.779 70.1779 204.022 69.9349 204.144C69.8134 204.265 69.5703 204.144 69.5703 203.901C69.5703 203.658 69.5703 203.415 69.8133 203.293Z" fill="#8F8F8E"/>
<path d="M76.8629 179.356C76.9844 179.235 77.2275 179.356 77.2275 179.599C77.2275 179.842 77.2275 180.085 76.9844 180.207C76.8629 180.328 76.6199 180.207 76.6199 179.964C76.4984 179.721 76.6199 179.356 76.8629 179.356Z" fill="#8F8F8E"/>
<path d="M64.952 186.161C65.0735 186.039 65.3165 186.161 65.3165 186.404C65.3165 186.647 65.3166 186.89 65.0736 187.011C64.9521 187.133 64.709 187.011 64.709 186.768C64.709 186.525 64.8305 186.282 64.952 186.161Z" fill="#8F8F8E"/>
<path d="M76.3696 187.375C76.4912 187.254 76.7341 187.254 76.8556 187.254H77.0987C77.4632 187.375 77.7062 187.618 77.8277 188.104C78.0708 188.833 77.7062 189.805 77.0987 190.17C76.9772 190.17 76.9771 190.291 76.8556 190.291V190.413H76.6127C76.1267 190.413 75.7621 190.048 75.6406 189.441C75.3976 188.712 75.7621 187.74 76.3696 187.375Z" fill="#FF812C"/>
<path d="M76.6177 187.375C76.0102 187.74 75.6456 188.712 75.8886 189.441C76.1316 190.17 76.7392 190.534 77.3467 190.17C77.9542 189.805 78.3187 188.833 78.0757 188.104C77.9542 187.375 77.2252 187.011 76.6177 187.375Z" fill="#FFC52C"/>
<path d="M76.3665 182.029C75.8805 182.272 75.6375 182.88 75.8805 183.487C76.002 184.095 76.488 184.338 76.9741 184.095C77.4601 183.852 77.7031 183.244 77.4601 182.637C77.217 182.029 76.7311 181.786 76.3665 182.029Z" fill="#9996A1"/>
<path d="M76.3767 182.273C76.4982 182.151 76.6197 182.151 76.7412 182.151H76.8627C76.9842 182.273 77.1057 182.394 77.1057 182.516C77.2272 183.002 76.9842 183.488 76.7412 183.609H76.6197H76.3767C76.1337 183.609 76.0121 183.366 75.8906 183.123C75.8906 183.002 76.0122 182.516 76.3767 182.273Z" fill="#347952"/>
<path d="M74.427 183.123C73.941 183.366 73.698 183.973 73.941 184.581C74.0626 185.188 74.5485 185.431 75.0346 185.188C75.5206 184.945 75.7636 184.338 75.5206 183.73C75.2776 183.123 74.9131 182.88 74.427 183.123Z" fill="#9996A1"/>
<path d="M74.4281 183.366C74.5496 183.245 74.6711 183.245 74.7927 183.245H74.9141C75.0356 183.366 75.1572 183.488 75.1572 183.609C75.2787 184.095 75.0357 184.581 74.7927 184.703H74.6711H74.4281C74.1851 184.703 74.0636 184.46 74.0636 184.217C73.9421 184.095 74.1851 183.609 74.4281 183.366Z" fill="#DE1610"/>
<path d="M79.4115 193.937C78.9254 194.18 78.6824 194.788 78.9254 195.395C79.0469 196.003 79.533 196.246 80.019 196.003C80.505 195.76 80.748 195.152 80.505 194.545C80.3835 193.937 79.8975 193.694 79.4115 193.937Z" fill="#9996A1"/>
<path d="M79.5326 194.179C79.6541 194.058 79.7756 194.058 79.8971 194.058H80.1402C80.2617 194.179 80.3832 194.301 80.3832 194.422C80.5047 194.908 80.2617 195.394 80.0187 195.516H79.8971H79.6542C79.4112 195.516 79.2896 195.273 79.1681 195.03C78.9251 194.787 79.1681 194.301 79.5326 194.179Z" fill="#347952"/>
<path d="M77.5931 195.031C77.1071 195.274 76.864 195.881 77.107 196.489C77.2286 197.096 77.7146 197.339 78.2006 197.096C78.6867 196.853 78.9296 196.246 78.6866 195.638C78.4436 195.031 77.9576 194.788 77.5931 195.031Z" fill="#9996A1"/>
<path d="M77.5902 195.274C77.7117 195.152 77.8332 195.152 77.9547 195.152H78.1977C78.3192 195.274 78.4407 195.395 78.4407 195.517C78.5622 196.003 78.3192 196.489 78.0761 196.61H77.9547H77.7116C77.4686 196.61 77.3471 196.367 77.3471 196.124C77.1041 195.881 77.2256 195.395 77.5902 195.274Z" fill="#DE1610"/>
<path d="M76.6152 182.273C76.9797 182.03 77.3442 182.273 77.4657 182.759C77.5872 183.245 77.3442 183.731 77.1012 183.852C76.7367 184.095 76.3721 183.852 76.2506 183.366C76.1291 183.002 76.2507 182.516 76.6152 182.273Z" fill="#449E6B"/>
<path d="M74.6737 183.488C75.0383 183.245 75.4028 183.488 75.5243 183.974C75.6458 184.46 75.4028 184.946 75.1598 185.067C74.7953 185.31 74.4307 185.067 74.3092 184.581C74.1877 184.095 74.3092 183.609 74.6737 183.488Z" fill="#F5403B"/>
<path d="M79.7768 194.18C80.1413 193.937 80.5058 194.18 80.6273 194.666C80.7488 195.152 80.5058 195.638 80.2628 195.759C79.8983 196.002 79.5338 195.759 79.4123 195.273C79.1693 194.909 79.4123 194.423 79.7768 194.18Z" fill="#449E6B"/>
<path d="M77.834 195.273C78.1985 195.03 78.5629 195.273 78.6844 195.759C78.806 196.245 78.563 196.731 78.3199 196.853C77.9554 197.096 77.5909 196.853 77.4694 196.367C77.3479 196.002 77.4694 195.516 77.834 195.273Z" fill="#F5403B"/>
<path d="M77.7108 191.385C77.2247 191.628 76.9817 192.357 77.1032 192.965C77.2247 193.572 77.8323 193.815 78.3183 193.572C78.8043 193.329 79.0473 192.6 78.9258 191.993C78.6828 191.385 78.1968 191.021 77.7108 191.385Z" fill="#9996A1"/>
<path d="M77.8257 191.628C77.9472 191.506 78.0686 191.506 78.3116 191.506L78.6762 191.628V191.749C78.7977 191.871 78.7977 191.992 78.7977 192.114C78.9192 192.6 78.6762 193.086 78.4332 193.329V193.45H78.0686C77.8256 193.45 77.5826 193.207 77.4611 192.843C77.2181 192.357 77.4611 191.871 77.8257 191.628Z" fill="#C7CFD3"/>
<path d="M78.2032 191.628C78.5677 191.385 78.9323 191.628 79.0538 192.114C79.1753 192.6 78.9322 193.086 78.5677 193.329C78.2032 193.572 77.8387 193.329 77.7172 192.843C77.5956 192.478 77.8387 191.871 78.2032 191.628Z" fill="#EEF3F5"/>
<path d="M78.1991 191.75C78.5637 191.628 78.8066 191.75 78.9281 192.114C79.0496 192.479 78.8067 192.965 78.5636 193.086C78.1991 193.208 77.9561 193.086 77.8346 192.722C77.7131 192.479 77.8346 191.993 78.1991 191.75Z" fill="#E3E7E9"/>
<path d="M76.8608 188.104C77.2253 187.861 77.5898 188.104 77.7113 188.469C77.8328 188.833 77.5898 189.441 77.3468 189.562C76.9823 189.806 76.6178 189.562 76.4963 189.198C76.2532 188.712 76.4962 188.226 76.8608 188.104Z" fill="#C21E34"/>
<path d="M77.2232 189.684H76.8586L76.4941 188.833L76.8586 188.226L77.1017 187.983H77.4662L77.2232 189.684Z" fill="#C21E34"/>
<path d="M77.1034 188.104C77.468 187.861 77.8325 188.104 77.954 188.469C78.0755 188.833 77.8325 189.441 77.5895 189.562C77.225 189.806 76.8604 189.562 76.7389 189.198C76.6174 188.833 76.7389 188.226 77.1034 188.104Z" fill="#C21E34"/>
<path d="M77.468 187.983C77.8326 187.74 78.3186 187.983 78.4402 188.469C78.5617 188.955 78.3186 189.684 77.9541 189.927C77.5896 190.17 77.1036 189.927 76.9821 189.441C76.739 188.834 76.982 188.226 77.468 187.983Z" fill="#DE1610"/>
<path d="M77.831 187.862H78.1955L77.831 190.049L77.4664 189.927L76.9805 189.077L77.345 188.226L77.831 187.862Z" fill="#E6243E"/>
<path d="M77.8314 187.983C78.1959 187.74 78.6819 187.983 78.8034 188.469C78.9249 188.955 78.6819 189.684 78.3174 189.927C77.9528 190.17 77.4668 189.927 77.3453 189.441C77.1023 188.834 77.3454 188.226 77.8314 187.983Z" fill="#F5403B"/>
<path d="M69.9277 200.012H70.4137L70.6567 200.863H70.1707L69.9277 200.012Z" fill="#E4E5F2"/>
<path d="M71.1504 195.152L72.3655 194.423L72.6084 195.273L71.3933 196.002L71.1504 195.152Z" fill="#F5FFFC"/>
<path d="M72.4785 194.181H72.843L73.086 195.031H72.6L72.4785 194.181Z" fill="#E4E5F2"/>
<path d="M72.7246 195.518L73.2106 195.396L73.4536 196.247L72.9676 196.368L72.7246 195.518Z" fill="#E4E5F2"/>
<path d="M70.6582 195.153H71.1443L71.3872 196.003H70.9012L70.6582 195.153Z" fill="#E4E5F2"/>
<path d="M71.0273 196.489H71.3918L71.6349 197.34H71.2704L71.0273 196.489Z" fill="#E4E5F2"/>
<path d="M68.957 196.125H69.3216L69.5646 196.976L69.2001 197.097L68.957 196.125Z" fill="#E4E5F2"/>
<path d="M69.3262 197.462H69.6907L69.9337 198.312H69.5691L69.3262 197.462Z" fill="#E4E5F2"/>
<path d="M73.4531 198.069L73.8176 197.947L74.0607 198.919H73.6962L73.4531 198.069Z" fill="#E4E5F2"/>
<path d="M71.75 199.041H72.1145L72.3575 199.891H71.8715L71.75 199.041Z" fill="#E4E5F2"/>
<path d="M72.8438 194.181L74.0588 193.452L74.3018 194.302L73.0868 195.031L72.8438 194.181Z" fill="#F5FFFC"/>
<path d="M73.2109 195.396L74.426 194.789L74.669 195.639L73.454 196.247L73.2109 195.396Z" fill="#F5FFFC"/>
<path d="M71.5098 196.489L72.6033 195.76L72.8463 196.611L71.6312 197.34L71.5098 196.489Z" fill="#F5FFFC"/>
<path d="M69.3262 196.125L70.5412 195.396L70.7842 196.368L69.5691 196.975L69.3262 196.125Z" fill="#F5FFFC"/>
<path d="M69.3216 196.125L70.5367 195.396L70.1721 195.518L68.957 196.125H69.3216Z" fill="#F0F8F6"/>
<path d="M69.6907 197.461L70.9057 196.732H70.5412L69.3262 197.461H69.6907Z" fill="#F0F8F6"/>
<path d="M71.1443 195.153L72.3593 194.424H71.8733L70.6582 195.153H71.1443Z" fill="#F0F8F6"/>
<path d="M71.5134 196.489L72.6069 195.76H72.2424L71.0273 196.489H71.5134Z" fill="#F0F8F6"/>
<path d="M72.843 194.18L74.0581 193.451H73.5721L72.4785 194.18H72.843Z" fill="#F0F8F6"/>
<path d="M73.2106 195.396L74.4257 194.789H73.9397L72.7246 195.518L73.2106 195.396Z" fill="#F0F8F6"/>
<path d="M70.4196 200.012L71.6346 199.283H71.1487L69.9336 200.012H70.4196Z" fill="#F0F8F6"/>
<path d="M72.1145 199.04L73.3296 198.311H72.9651L71.75 199.04H72.1145Z" fill="#F0F8F6"/>
<path d="M73.8176 197.947L75.0327 197.34H74.6682L73.4531 198.069L73.8176 197.947Z" fill="#F0F8F6"/>
<path d="M69.6895 197.462L70.9045 196.733L71.1475 197.583L69.9325 198.312L69.6895 197.462Z" fill="#F5FFFC"/>
<path d="M73.8184 197.948L75.0334 197.34L75.2765 198.191L74.0614 198.92L73.8184 197.948Z" fill="#F5FFFC"/>
<path d="M72.1191 199.041L73.3342 198.312L73.5772 199.162L72.3622 199.891L72.1191 199.041Z" fill="#F5FFFC"/>
<path d="M70.4141 200.013L71.6291 199.284L71.8722 200.134L70.6571 200.863L70.4141 200.013Z" fill="#F5FFFC"/>
<path d="M65.6816 187.983L67.6257 195.395L74.3086 191.506L72.3645 184.095L65.6816 187.983Z" fill="#3A3F47"/>
<path d="M66.4102 188.348L71.9994 185.189L73.5791 191.264L67.9897 194.423L66.4102 188.348Z" fill="#6C7178"/>
<path d="M116.965 177.411C116.843 177.29 116.965 177.29 116.965 177.411L136.649 165.868L131.181 144.848L110.89 156.512C110.647 155.419 110.404 154.325 110.039 153.232L132.761 140.109L133.611 139.623L140.902 167.569L140.051 168.055L118.301 180.571C117.937 179.477 117.451 178.383 116.965 177.411Z" fill="#D0D2D5"/>
<path d="M101.029 146.063V147.036L104.674 149.101L107.469 152.989L115.61 183.973V195.273L116.461 195.881L142.828 168.299L134.687 137.315L131.892 133.427L129.462 131.969L101.029 146.063ZM118.283 178.141L111.965 154.083L132.742 142.054L139.061 166.112L118.283 178.141Z" fill="#276CD3"/>
<path d="M101.029 146.064L128.247 130.389L132.742 132.941L105.403 148.737L101.029 146.064Z" fill="#3F81E3"/>
<path d="M108.201 152.504L135.418 136.829L132.745 132.941L105.406 148.737L108.201 152.504Z" fill="#276CD3"/>
<path d="M143.551 167.813V180.207L116.334 196.003V183.488L143.551 167.813Z" fill="#276CD3"/>
<path d="M108.197 152.503L116.338 183.487L142.705 168.299L143.556 167.813L135.415 136.829L134.564 137.315L108.197 152.503ZM118.282 178.141L111.964 154.083L132.741 142.054L139.06 166.112L118.282 178.141Z" fill="#1D5DBC"/>
<path d="M110.984 153.718L117.91 180.085L140.996 166.841L134.071 140.474L110.984 153.718ZM112.078 154.083L132.856 142.054L139.174 166.112L118.396 178.141L112.078 154.083Z" fill="#3A3F47"/>
<path d="M118.287 178.141L118.409 178.506L139.794 166.234L133.354 141.811L132.868 142.054L139.186 166.112L118.287 178.141Z" fill="#C1C1C9"/>
<path opacity="0.26" d="M112.088 154.083L118.285 178.141L139.184 166.112L132.866 142.054L112.088 154.083Z" fill="#BEBEBE"/>
<path d="M26.9162 170.608L47.8153 182.637L50.4885 186.525L58.6293 217.266V229.66L54.7412 230.996V243.633L24 225.893V197.339V171.337L26.9162 170.608Z" fill="#B1B6C3"/>
<path d="M47.4478 218.118L27.1562 206.453V179.965L47.4478 191.63V218.118ZM27.5208 206.21L47.0833 217.51V191.873L27.5208 180.573V206.21Z" fill="#9EA2AF"/>
<path d="M24 225.893L54.7412 243.633V237.801L24 220.061V225.893Z" fill="#0078A6"/>
<path d="M53.4046 230.874L57.1713 229.538V217.873L49.1518 187.254L46.6002 183.609L26.1872 171.823L24 172.309V225.893L53.4046 242.782V230.874Z" fill="#276CD3"/>
<path d="M138.219 146.306C138.948 145.941 139.799 146.549 140.042 147.764L142.594 157.363C142.958 158.578 142.594 159.915 141.865 160.279L140.893 160.887C140.649 161.008 140.163 160.887 140.163 160.522V160.279C140.163 160.036 140.164 159.793 140.407 159.672L141.622 158.943C141.743 158.943 141.865 158.457 141.622 157.849L139.07 148.25C138.948 147.643 138.584 147.4 138.584 147.521L137.612 148.129C137.369 148.25 136.883 148.129 136.883 147.764V147.521C136.883 147.278 136.883 147.035 137.126 146.914L138.219 146.306Z" fill="#6C707A"/>
<path d="M58.8782 190.535C59.6073 190.049 60.4579 190.899 60.8224 192.357L63.8601 204.022C64.2246 205.48 63.9816 206.817 63.2525 207.303L62.2804 207.91C62.0374 208.032 61.5514 207.91 61.5514 207.546C61.4299 207.181 61.6729 206.817 61.9159 206.695L63.0095 206.088C63.131 205.966 63.131 205.359 63.0095 204.629L59.9718 192.965C59.7288 192.236 59.4858 191.871 59.3643 191.871L58.3923 192.479C58.1492 192.6 57.6632 192.479 57.6632 192.114C57.5417 191.75 57.7847 191.385 58.0277 191.142L58.8782 190.535Z" fill="#EEF2F7"/>
<path d="M45.1484 221.397C45.1484 221.64 45.2699 222.005 45.5129 222.126C45.756 222.248 45.8774 222.126 45.8774 221.883C45.8774 221.64 45.756 221.276 45.5129 221.154C45.3914 221.033 45.1484 221.154 45.1484 221.397Z" fill="#3A3F47"/>
<path d="M43.5664 220.425C43.5664 220.668 43.6879 221.033 43.9309 221.154C44.1739 221.276 44.2954 221.154 44.2954 220.911C44.2954 220.668 44.1739 220.304 43.9309 220.182C43.8094 220.061 43.5664 220.182 43.5664 220.425Z" fill="#3A3F47"/>
<path d="M41.9883 219.453C41.9883 219.696 42.1098 220.06 42.3528 220.182C42.5958 220.303 42.7173 220.182 42.7173 219.939C42.7173 219.696 42.5958 219.331 42.3528 219.21C42.1098 219.088 41.9883 219.21 41.9883 219.453Z" fill="#3A3F47"/>
<path d="M40.4082 218.602C40.4082 218.845 40.5298 219.21 40.7728 219.331C41.0158 219.453 41.1373 219.331 41.1373 219.088C41.1373 218.845 41.0158 218.481 40.7728 218.359C40.5298 218.238 40.4082 218.359 40.4082 218.602Z" fill="#3A3F47"/>
<path d="M38.7109 217.63C38.7109 217.873 38.8324 218.238 39.0754 218.359C39.3185 218.481 39.4399 218.359 39.4399 218.116C39.4399 217.873 39.3185 217.509 39.0754 217.387C38.9539 217.266 38.7109 217.387 38.7109 217.63Z" fill="#3A3F47"/>
<path d="M37.1309 216.658C37.1309 216.901 37.2524 217.266 37.4954 217.387C37.7384 217.509 37.8599 217.387 37.8599 217.144C37.8599 216.901 37.7384 216.537 37.4954 216.415C37.2524 216.294 37.1309 216.415 37.1309 216.658Z" fill="#3A3F47"/>
<path d="M35.5527 215.807C35.5527 216.05 35.6743 216.415 35.9173 216.536C36.1603 216.658 36.2818 216.536 36.2818 216.293C36.2818 216.05 36.1603 215.686 35.9173 215.564C35.6743 215.443 35.5527 215.564 35.5527 215.807Z" fill="#3A3F47"/>
<path d="M33.8496 214.835C33.8496 215.078 33.9711 215.443 34.2141 215.565C34.4571 215.686 34.5786 215.565 34.5786 215.322C34.5786 215.078 34.4571 214.714 34.2141 214.592C34.0926 214.471 33.8496 214.592 33.8496 214.835Z" fill="#3A3F47"/>
<path d="M32.2715 213.864C32.2715 214.107 32.393 214.471 32.636 214.593C32.879 214.714 33.0005 214.593 33.0005 214.35C33.0005 214.107 32.879 213.742 32.636 213.621C32.393 213.499 32.2715 213.621 32.2715 213.864Z" fill="#3A3F47"/>
<path d="M30.6934 213.013C30.6934 213.256 30.8149 213.62 31.0579 213.742C31.301 213.863 31.4224 213.742 31.4224 213.499C31.4224 213.256 31.301 212.891 31.0579 212.77C30.8149 212.648 30.6934 212.648 30.6934 213.013Z" fill="#3A3F47"/>
<path d="M28.9863 212.04C28.9863 212.283 29.1078 212.648 29.3508 212.769C29.5938 212.891 29.7153 212.769 29.7153 212.526C29.7153 212.283 29.5938 211.919 29.3508 211.797C29.2293 211.676 28.9863 211.797 28.9863 212.04Z" fill="#3A3F47"/>
<path d="M27.4102 211.069C27.4102 211.312 27.5316 211.676 27.7747 211.798C28.0177 211.919 28.1392 211.798 28.1392 211.555C28.1392 211.312 28.0177 210.947 27.7747 210.826C27.6532 210.704 27.4102 210.826 27.4102 211.069Z" fill="#3A3F47"/>
<path d="M45.1484 223.341C45.1484 223.584 45.2699 223.949 45.5129 224.07C45.756 224.192 45.8774 224.07 45.8774 223.827C45.8774 223.584 45.756 223.22 45.5129 223.098C45.3914 223.098 45.1484 223.098 45.1484 223.341Z" fill="#3A3F47"/>
<path d="M43.5664 222.491C43.5664 222.734 43.6879 223.099 43.9309 223.22C44.1739 223.342 44.2954 223.22 44.2954 222.977C44.2954 222.734 44.1739 222.37 43.9309 222.248C43.8094 222.127 43.5664 222.248 43.5664 222.491Z" fill="#3A3F47"/>
<path d="M41.9883 221.519C41.9883 221.762 42.1098 222.126 42.3528 222.248C42.5958 222.369 42.7173 222.248 42.7173 222.005C42.7173 221.762 42.5958 221.397 42.3528 221.276C42.1098 221.154 41.9883 221.276 41.9883 221.519Z" fill="#3A3F47"/>
<path d="M40.4082 220.547C40.4082 220.79 40.5298 221.155 40.7728 221.276C41.0158 221.398 41.1373 221.276 41.1373 221.033C41.1373 220.79 41.0158 220.426 40.7728 220.304C40.5298 220.183 40.4082 220.304 40.4082 220.547Z" fill="#3A3F47"/>
<path d="M38.7109 219.696C38.7109 219.939 38.8324 220.304 39.0754 220.425C39.3185 220.547 39.4399 220.425 39.4399 220.182C39.4399 219.939 39.3185 219.575 39.0754 219.453C38.9539 219.332 38.7109 219.453 38.7109 219.696Z" fill="#3A3F47"/>
<path d="M37.1309 218.724C37.1309 218.967 37.2524 219.332 37.4954 219.453C37.7384 219.575 37.8599 219.453 37.8599 219.21C37.8599 218.967 37.7384 218.603 37.4954 218.481C37.2524 218.36 37.1309 218.481 37.1309 218.724Z" fill="#3A3F47"/>
<path d="M35.5527 217.753C35.5527 217.996 35.6743 218.36 35.9173 218.482C36.1603 218.603 36.2818 218.482 36.2818 218.239C36.2818 217.996 36.1603 217.631 35.9173 217.51C35.6743 217.388 35.5527 217.51 35.5527 217.753Z" fill="#3A3F47"/>
<path d="M33.8496 216.902C33.8496 217.145 33.9711 217.509 34.2141 217.631C34.4571 217.752 34.5786 217.631 34.5786 217.388C34.5786 217.145 34.4571 216.78 34.2141 216.659C34.0926 216.537 33.8496 216.659 33.8496 216.902Z" fill="#3A3F47"/>
<path d="M32.2715 215.93C32.2715 216.173 32.393 216.537 32.636 216.659C32.879 216.78 33.0005 216.659 33.0005 216.416C33.0005 216.173 32.879 215.808 32.636 215.687C32.393 215.565 32.2715 215.687 32.2715 215.93Z" fill="#3A3F47"/>
<path d="M30.6934 214.957C30.6934 215.2 30.8149 215.565 31.0579 215.686C31.301 215.808 31.4224 215.686 31.4224 215.443C31.4224 215.2 31.301 214.836 31.0579 214.714C30.8149 214.593 30.6934 214.714 30.6934 214.957Z" fill="#3A3F47"/>
<path d="M28.9863 214.107C28.9863 214.35 29.1078 214.714 29.3508 214.836C29.5938 214.957 29.7153 214.836 29.7153 214.593C29.7153 214.35 29.5938 213.985 29.3508 213.864C29.2293 213.742 28.9863 213.864 28.9863 214.107Z" fill="#3A3F47"/>
<path d="M27.4102 213.135C27.4102 213.378 27.5316 213.743 27.7747 213.864C28.0177 213.986 28.1392 213.864 28.1392 213.621C28.1392 213.378 28.0177 213.014 27.7747 212.892C27.6532 212.771 27.4102 212.892 27.4102 213.135Z" fill="#3A3F47"/>
<path d="M45.1484 225.406C45.1484 225.649 45.2699 226.014 45.5129 226.135C45.756 226.257 45.8774 226.135 45.8774 225.892C45.8774 225.649 45.756 225.285 45.5129 225.163C45.3914 225.042 45.1484 225.163 45.1484 225.406Z" fill="#3A3F47"/>
<path d="M43.5664 224.435C43.5664 224.678 43.6879 225.042 43.9309 225.164C44.1739 225.285 44.2954 225.164 44.2954 224.921C44.2954 224.678 44.1739 224.313 43.9309 224.192C43.8094 224.192 43.5664 224.192 43.5664 224.435Z" fill="#3A3F47"/>
<path d="M41.9883 223.584C41.9883 223.827 42.1098 224.191 42.3528 224.313C42.5958 224.434 42.7173 224.313 42.7173 224.07C42.7173 223.827 42.5958 223.462 42.3528 223.341C42.1098 223.219 41.9883 223.341 41.9883 223.584Z" fill="#3A3F47"/>
<path d="M40.4082 222.613C40.4082 222.856 40.5298 223.22 40.7728 223.342C41.0158 223.463 41.1373 223.342 41.1373 223.099C41.1373 222.856 41.0158 222.491 40.7728 222.37C40.5298 222.248 40.4082 222.37 40.4082 222.613Z" fill="#3A3F47"/>
<path d="M38.7109 221.64C38.7109 221.883 38.8324 222.248 39.0754 222.369C39.3185 222.491 39.4399 222.369 39.4399 222.126C39.4399 221.883 39.3185 221.519 39.0754 221.397C38.9539 221.397 38.7109 221.397 38.7109 221.64Z" fill="#3A3F47"/>
<path d="M37.1309 220.789C37.1309 221.032 37.2524 221.397 37.4954 221.518C37.7384 221.64 37.8599 221.518 37.8599 221.275C37.8599 221.032 37.7384 220.668 37.4954 220.546C37.2524 220.425 37.1309 220.546 37.1309 220.789Z" fill="#3A3F47"/>
<path d="M35.5527 219.818C35.5527 220.061 35.6743 220.425 35.9173 220.547C36.1603 220.668 36.2818 220.547 36.2818 220.304C36.2818 220.061 36.1603 219.696 35.9173 219.575C35.6743 219.453 35.5527 219.575 35.5527 219.818Z" fill="#3A3F47"/>
<path d="M33.8496 218.846C33.8496 219.089 33.9711 219.453 34.2141 219.575C34.4571 219.696 34.5786 219.575 34.5786 219.332C34.5786 219.089 34.4571 218.724 34.2141 218.603C34.0926 218.481 33.8496 218.603 33.8496 218.846Z" fill="#3A3F47"/>
<path d="M32.2715 217.995C32.2715 218.238 32.393 218.602 32.636 218.724C32.879 218.845 33.0005 218.724 33.0005 218.481C33.0005 218.238 32.879 217.873 32.636 217.752C32.393 217.63 32.2715 217.752 32.2715 217.995Z" fill="#3A3F47"/>
<path d="M30.6934 217.023C30.6934 217.266 30.8149 217.631 31.0579 217.752C31.301 217.874 31.4224 217.752 31.4224 217.509C31.4224 217.266 31.301 216.901 31.0579 216.78C30.8149 216.658 30.6934 216.78 30.6934 217.023Z" fill="#3A3F47"/>
<path d="M28.9863 216.051C28.9863 216.294 29.1078 216.659 29.3508 216.78C29.5938 216.902 29.7153 216.78 29.7153 216.537C29.7153 216.294 29.5938 215.93 29.3508 215.808C29.2293 215.687 28.9863 215.808 28.9863 216.051Z" fill="#3A3F47"/>
<path d="M27.4102 215.2C27.4102 215.443 27.5316 215.808 27.7747 215.929C28.0177 216.051 28.1392 215.929 28.1392 215.686C28.1392 215.443 28.0177 215.079 27.7747 214.957C27.6532 214.836 27.4102 214.957 27.4102 215.2Z" fill="#3A3F47"/>
<path d="M45.1484 227.472C45.1484 227.715 45.2699 228.08 45.5129 228.201C45.756 228.323 45.8774 228.201 45.8774 227.958C45.8774 227.715 45.756 227.351 45.5129 227.229C45.3914 227.108 45.1484 227.229 45.1484 227.472Z" fill="#3A3F47"/>
<path d="M43.5664 226.5C43.5664 226.743 43.6879 227.108 43.9309 227.229C44.1739 227.351 44.2954 227.229 44.2954 226.986C44.2954 226.743 44.1739 226.379 43.9309 226.257C43.8094 226.136 43.5664 226.257 43.5664 226.5Z" fill="#3A3F47"/>
<path d="M41.9883 225.65C41.9883 225.893 42.1098 226.258 42.3528 226.379C42.5958 226.501 42.7173 226.379 42.7173 226.136C42.7173 225.893 42.5958 225.529 42.3528 225.407C42.1098 225.286 41.9883 225.286 41.9883 225.65Z" fill="#3A3F47"/>
<path d="M40.4082 224.678C40.4082 224.921 40.5298 225.285 40.7728 225.407C41.0158 225.528 41.1373 225.407 41.1373 225.164C41.1373 224.921 41.0158 224.556 40.7728 224.435C40.5298 224.313 40.4082 224.435 40.4082 224.678Z" fill="#3A3F47"/>
<path d="M38.7109 223.705C38.7109 223.948 38.8324 224.313 39.0754 224.435C39.3185 224.556 39.4399 224.435 39.4399 224.192C39.4399 223.948 39.3185 223.584 39.0754 223.462C38.9539 223.341 38.7109 223.462 38.7109 223.705Z" fill="#3A3F47"/>
<path d="M37.1309 222.733C37.1309 222.976 37.2524 223.341 37.4954 223.462C37.7384 223.584 37.8599 223.462 37.8599 223.219C37.8599 222.976 37.7384 222.612 37.4954 222.49C37.2524 222.49 37.1309 222.49 37.1309 222.733Z" fill="#3A3F47"/>
<path d="M35.5527 221.884C35.5527 222.127 35.6743 222.491 35.9173 222.613C36.1603 222.734 36.2818 222.613 36.2818 222.37C36.2818 222.127 36.1603 221.762 35.9173 221.641C35.6743 221.519 35.5527 221.641 35.5527 221.884Z" fill="#3A3F47"/>
<path d="M33.8496 220.911C33.8496 221.154 33.9711 221.519 34.2141 221.64C34.4571 221.762 34.5786 221.64 34.5786 221.397C34.5786 221.154 34.4571 220.79 34.2141 220.668C34.0926 220.547 33.8496 220.668 33.8496 220.911Z" fill="#3A3F47"/>
<path d="M32.2715 219.939C32.2715 220.182 32.393 220.547 32.636 220.668C32.879 220.79 33.0005 220.668 33.0005 220.425C33.0005 220.182 32.879 219.818 32.636 219.696C32.393 219.575 32.2715 219.696 32.2715 219.939Z" fill="#3A3F47"/>
<path d="M30.6934 219.088C30.6934 219.331 30.8149 219.696 31.0579 219.817C31.301 219.939 31.4224 219.817 31.4224 219.574C31.4224 219.331 31.301 218.967 31.0579 218.845C30.8149 218.724 30.6934 218.845 30.6934 219.088Z" fill="#3A3F47"/>
<path d="M28.9863 218.116C28.9863 218.359 29.1078 218.723 29.3508 218.845C29.5938 218.966 29.7153 218.845 29.7153 218.602C29.7153 218.359 29.5938 217.994 29.3508 217.873C29.2293 217.751 28.9863 217.873 28.9863 218.116Z" fill="#3A3F47"/>
<path d="M27.4102 217.145C27.4102 217.388 27.5316 217.752 27.7747 217.874C28.0177 217.995 28.1392 217.874 28.1392 217.631C28.1392 217.388 28.0177 217.023 27.7747 216.902C27.6532 216.78 27.4102 216.902 27.4102 217.145Z" fill="#3A3F47"/>
<defs>
<linearGradient id="paint0_linear_1_2178" x1="102.389" y1="174.143" x2="97.8984" y2="166.365" gradientUnits="userSpaceOnUse">
<stop offset="0.1179" stop-color="#A5A7B3"/>
<stop offset="0.127" stop-color="#B3B4BE"/>
<stop offset="0.473" stop-color="#C3C3CA"/>
<stop offset="0.5695" stop-color="#E3E3E3"/>
<stop offset="0.583" stop-color="#E6E7E8"/>
<stop offset="0.626" stop-color="#ECEFF3"/>
<stop offset="0.6726" stop-color="#EEF2F7"/>
<stop offset="0.7428" stop-color="#EDF0F5"/>
<stop offset="0.7844" stop-color="#E8EAEC"/>
<stop offset="0.8106" stop-color="#E2E2E2"/>
<stop offset="1" stop-color="#D7D7D9"/>
</linearGradient>
<linearGradient id="paint1_linear_1_2178" x1="100.028" y1="178.041" x2="93.3412" y2="166.458" gradientUnits="userSpaceOnUse">
<stop offset="0.1179" stop-color="#A5A7B3"/>
<stop offset="0.127" stop-color="#B3B4BE"/>
<stop offset="0.473" stop-color="#C3C3CA"/>
<stop offset="0.5695" stop-color="#E3E3E3"/>
<stop offset="0.583" stop-color="#E6E7E8"/>
<stop offset="0.626" stop-color="#ECEFF3"/>
<stop offset="0.6726" stop-color="#EEF2F7"/>
<stop offset="0.7428" stop-color="#EDF0F5"/>
<stop offset="0.7844" stop-color="#E8EAEC"/>
<stop offset="0.8106" stop-color="#E2E2E2"/>
<stop offset="1" stop-color="#D7D7D9"/>
</linearGradient>
<linearGradient id="paint2_linear_1_2178" x1="89.569" y1="181.546" x2="85.0787" y2="173.768" gradientUnits="userSpaceOnUse">
<stop offset="0.1179" stop-color="#A5A7B3"/>
<stop offset="0.127" stop-color="#B3B4BE"/>
<stop offset="0.473" stop-color="#C3C3CA"/>
<stop offset="0.5695" stop-color="#E3E3E3"/>
<stop offset="0.583" stop-color="#E6E7E8"/>
<stop offset="0.626" stop-color="#ECEFF3"/>
<stop offset="0.6726" stop-color="#EEF2F7"/>
<stop offset="0.7428" stop-color="#EDF0F5"/>
<stop offset="0.7844" stop-color="#E8EAEC"/>
<stop offset="0.8106" stop-color="#E2E2E2"/>
<stop offset="1" stop-color="#D7D7D9"/>
</linearGradient>
</defs>
</svg>
