<svg width="240" height="240" viewBox="0 0 240 240" fill="none" xmlns="http://www.w3.org/2000/svg">
<g clip-path="url(#clip0_27_21346)">
<rect width="240" height="240" rx="20" fill="white"/>
<path d="M74.4351 228.211C70.2833 228.211 66.6106 225.975 64.5348 222.462L39.3049 178.869C37.2291 175.356 37.2291 170.885 39.3049 167.372L64.5348 123.778C66.6106 120.265 70.443 118.03 74.4351 118.03H124.735C128.887 118.03 132.559 120.265 134.635 123.778L159.865 167.372C161.941 170.885 161.941 175.356 159.865 178.869L134.635 222.462C132.559 225.975 128.727 228.211 124.735 228.211H74.4351Z" fill="#C8C8C8"/>
<path d="M158.747 168.01L133.518 124.417C131.761 121.223 128.248 119.307 124.575 119.307H74.2755C70.6028 119.307 67.2495 121.223 65.3333 124.417L40.4228 168.01C38.6663 171.204 38.6663 175.036 40.4228 178.23L65.6527 221.823C67.4092 225.017 70.9222 226.933 74.5948 226.933H124.895C128.567 226.933 131.921 225.017 133.837 221.823L159.067 178.23C160.664 175.196 160.664 171.204 158.747 168.01Z" fill="url(#paint0_linear_27_21346)"/>
<path d="M99.6654 220.546C125.77 220.546 146.931 199.384 146.931 173.28C146.931 147.175 125.77 126.014 99.6654 126.014C73.5611 126.014 52.3994 147.175 52.3994 173.28C52.3994 199.384 73.5611 220.546 99.6654 220.546Z" fill="url(#paint1_linear_27_21346)"/>
<path d="M78.984 180V164.16L80.016 165.288H75.192V163.2H81.36V180H78.984ZM91.8988 180.192C90.5868 180.192 89.4108 179.856 88.3708 179.184C87.3468 178.512 86.5308 177.536 85.9228 176.256C85.3308 174.976 85.0348 173.424 85.0348 171.6C85.0348 169.776 85.3308 168.224 85.9228 166.944C86.5308 165.664 87.3468 164.688 88.3708 164.016C89.4108 163.344 90.5868 163.008 91.8988 163.008C93.1948 163.008 94.3628 163.344 95.4028 164.016C96.4428 164.688 97.2588 165.664 97.8508 166.944C98.4428 168.224 98.7388 169.776 98.7388 171.6C98.7388 173.424 98.4428 174.976 97.8508 176.256C97.2588 177.536 96.4428 178.512 95.4028 179.184C94.3628 179.856 93.1948 180.192 91.8988 180.192ZM91.8988 178.056C92.7788 178.056 93.5468 177.816 94.2028 177.336C94.8748 176.856 95.3948 176.136 95.7628 175.176C96.1468 174.216 96.3388 173.024 96.3388 171.6C96.3388 170.176 96.1468 168.984 95.7628 168.024C95.3948 167.064 94.8748 166.344 94.2028 165.864C93.5468 165.384 92.7788 165.144 91.8988 165.144C91.0188 165.144 90.2428 165.384 89.5708 165.864C88.8988 166.344 88.3708 167.064 87.9868 168.024C87.6188 168.984 87.4348 170.176 87.4348 171.6C87.4348 173.024 87.6188 174.216 87.9868 175.176C88.3708 176.136 88.8988 176.856 89.5708 177.336C90.2428 177.816 91.0188 178.056 91.8988 178.056ZM102.345 180.144C101.897 180.144 101.513 179.992 101.193 179.688C100.873 179.368 100.713 178.968 100.713 178.488C100.713 178.008 100.873 177.616 101.193 177.312C101.513 177.008 101.897 176.856 102.345 176.856C102.777 176.856 103.145 177.008 103.449 177.312C103.769 177.616 103.929 178.008 103.929 178.488C103.929 178.968 103.769 179.368 103.449 179.688C103.145 179.992 102.777 180.144 102.345 180.144ZM111.647 163.008C113.167 163.008 114.447 163.336 115.487 163.992C116.543 164.648 117.343 165.6 117.887 166.848C118.431 168.08 118.703 169.592 118.703 171.384C118.703 173.288 118.367 174.896 117.695 176.208C117.023 177.52 116.095 178.512 114.911 179.184C113.727 179.856 112.343 180.192 110.759 180.192C109.975 180.192 109.215 180.112 108.479 179.952C107.759 179.792 107.127 179.544 106.583 179.208L107.495 177.336C107.943 177.624 108.439 177.832 108.983 177.96C109.543 178.072 110.127 178.128 110.735 178.128C112.431 178.128 113.783 177.6 114.791 176.544C115.799 175.472 116.303 173.888 116.303 171.792C116.303 171.456 116.287 171.056 116.255 170.592C116.223 170.128 116.151 169.672 116.039 169.224L116.831 170.04C116.607 170.776 116.231 171.4 115.703 171.912C115.191 172.408 114.567 172.784 113.831 173.04C113.111 173.28 112.319 173.4 111.455 173.4C110.351 173.4 109.367 173.192 108.503 172.776C107.639 172.36 106.959 171.776 106.463 171.024C105.967 170.256 105.719 169.352 105.719 168.312C105.719 167.224 105.975 166.288 106.487 165.504C107.015 164.704 107.727 164.088 108.623 163.656C109.535 163.224 110.543 163.008 111.647 163.008ZM111.743 164.952C111.023 164.952 110.383 165.088 109.823 165.36C109.263 165.632 108.823 166.008 108.503 166.488C108.199 166.968 108.047 167.544 108.047 168.216C108.047 169.208 108.391 170 109.079 170.592C109.767 171.168 110.695 171.456 111.863 171.456C112.631 171.456 113.303 171.312 113.879 171.024C114.471 170.736 114.927 170.344 115.247 169.848C115.583 169.352 115.751 168.8 115.751 168.192C115.751 167.6 115.599 167.064 115.295 166.584C114.991 166.104 114.543 165.712 113.951 165.408C113.359 165.104 112.623 164.952 111.743 164.952Z" fill="#969696"/>
<path d="M166.288 228.084C160.821 228.084 155.985 225.141 153.252 220.515L120.03 163.112C117.296 158.486 117.296 152.598 120.03 147.973L153.252 90.5696C155.985 85.9437 161.032 83 166.288 83H232.522C237.989 83 242.826 85.9437 245.559 90.5696L278.781 147.973C281.515 152.598 281.515 158.486 278.781 163.112L245.559 220.515C242.826 225.141 237.779 228.084 232.522 228.084H166.288Z" fill="#C8C8C8"/>
<path d="M277.31 148.814L244.088 91.4107C241.775 87.2053 237.149 84.6821 232.313 84.6821H166.079C161.243 84.6821 156.827 87.2053 154.304 91.4107L121.502 148.814C119.189 153.019 119.189 158.065 121.502 162.271L154.724 219.674C157.037 223.879 161.663 226.402 166.499 226.402H232.734C237.57 226.402 241.985 223.879 244.509 219.674L277.731 162.271C279.833 158.276 279.833 153.019 277.31 148.814Z" fill="url(#paint2_linear_27_21346)"/>
<path d="M199.511 217.991C233.884 217.991 261.75 190.126 261.75 155.752C261.75 121.379 233.884 93.5132 199.511 93.5132C165.137 93.5132 137.271 121.379 137.271 155.752C137.271 190.126 165.137 217.991 199.511 217.991Z" fill="url(#paint3_linear_27_21346)"/>
<path d="M171.976 168V144.24L173.524 145.932H166.288V142.8H175.54V168H171.976ZM180.656 168V165.552L190.916 155.652C191.828 154.788 192.5 154.032 192.932 153.384C193.388 152.712 193.688 152.1 193.832 151.548C194 150.972 194.084 150.42 194.084 149.892C194.084 148.596 193.628 147.576 192.716 146.832C191.804 146.088 190.472 145.716 188.72 145.716C187.376 145.716 186.164 145.944 185.084 146.4C184.004 146.832 183.068 147.516 182.276 148.452L179.828 146.328C180.788 145.104 182.072 144.168 183.68 143.52C185.312 142.848 187.1 142.512 189.044 142.512C190.796 142.512 192.32 142.8 193.616 143.376C194.912 143.928 195.908 144.732 196.604 145.788C197.324 146.844 197.684 148.092 197.684 149.532C197.684 150.348 197.576 151.152 197.36 151.944C197.144 152.736 196.736 153.576 196.136 154.464C195.536 155.352 194.672 156.348 193.544 157.452L184.4 166.272L183.536 164.868H198.764V168H180.656ZM204.452 168.216C203.78 168.216 203.204 167.988 202.724 167.532C202.244 167.052 202.004 166.452 202.004 165.732C202.004 165.012 202.244 164.424 202.724 163.968C203.204 163.512 203.78 163.284 204.452 163.284C205.1 163.284 205.652 163.512 206.108 163.968C206.588 164.424 206.828 165.012 206.828 165.732C206.828 166.452 206.588 167.052 206.108 167.532C205.652 167.988 205.1 168.216 204.452 168.216ZM218.404 142.512C220.684 142.512 222.604 143.004 224.164 143.988C225.748 144.972 226.948 146.4 227.764 148.272C228.58 150.12 228.988 152.388 228.988 155.076C228.988 157.932 228.484 160.344 227.476 162.312C226.468 164.28 225.076 165.768 223.3 166.776C221.524 167.784 219.448 168.288 217.072 168.288C215.896 168.288 214.756 168.168 213.652 167.928C212.572 167.688 211.624 167.316 210.808 166.812L212.176 164.004C212.848 164.436 213.592 164.748 214.408 164.94C215.248 165.108 216.124 165.192 217.036 165.192C219.58 165.192 221.608 164.4 223.12 162.816C224.632 161.208 225.388 158.832 225.388 155.688C225.388 155.184 225.364 154.584 225.316 153.888C225.268 153.192 225.16 152.508 224.992 151.836L226.18 153.06C225.844 154.164 225.28 155.1 224.488 155.868C223.72 156.612 222.784 157.176 221.68 157.56C220.6 157.92 219.412 158.1 218.116 158.1C216.46 158.1 214.984 157.788 213.688 157.164C212.392 156.54 211.372 155.664 210.628 154.536C209.884 153.384 209.512 152.028 209.512 150.468C209.512 148.836 209.896 147.432 210.664 146.256C211.456 145.056 212.524 144.132 213.868 143.484C215.236 142.836 216.748 142.512 218.404 142.512ZM218.548 145.428C217.468 145.428 216.508 145.632 215.668 146.04C214.828 146.448 214.168 147.012 213.688 147.732C213.232 148.452 213.004 149.316 213.004 150.324C213.004 151.812 213.52 153 214.552 153.888C215.584 154.752 216.976 155.184 218.728 155.184C219.88 155.184 220.888 154.968 221.752 154.536C222.64 154.104 223.324 153.516 223.804 152.772C224.308 152.028 224.56 151.2 224.56 150.288C224.56 149.4 224.332 148.596 223.876 147.876C223.42 147.156 222.748 146.568 221.86 146.112C220.972 145.656 219.868 145.428 218.548 145.428Z" fill="#969696"/>
</g>
<defs>
<linearGradient id="paint0_linear_27_21346" x1="150.213" y1="230.623" x2="41.6392" y2="107.492" gradientUnits="userSpaceOnUse">
<stop stop-color="#E4E4E4" stop-opacity="0.79"/>
<stop offset="1" stop-color="#C2C2C2"/>
</linearGradient>
<linearGradient id="paint1_linear_27_21346" x1="60.8902" y1="134.512" x2="145.496" y2="219.118" gradientUnits="userSpaceOnUse">
<stop stop-color="#D4D4D4"/>
<stop offset="1" stop-color="white"/>
</linearGradient>
<linearGradient id="paint2_linear_27_21346" x1="266.073" y1="231.261" x2="123.104" y2="69.1238" gradientUnits="userSpaceOnUse">
<stop stop-color="#E4E4E4" stop-opacity="0.43"/>
<stop offset="1" stop-color="#C2C2C2" stop-opacity="0.8"/>
</linearGradient>
<linearGradient id="paint3_linear_27_21346" x1="148.452" y1="104.704" x2="259.859" y2="216.111" gradientUnits="userSpaceOnUse">
<stop stop-color="#D4D4D4"/>
<stop offset="1" stop-color="white"/>
</linearGradient>
<clipPath id="clip0_27_21346">
<rect width="240" height="240" rx="20" fill="white"/>
</clipPath>
</defs>
</svg>
