<svg width="102" height="102" viewBox="0 0 102 102" fill="none" xmlns="http://www.w3.org/2000/svg">
<path d="M25.4535 1.62319L27.9156 0.20894L27.916 0.209537C28.3021 -0.0735527 28.8312 -0.081123 29.4153 0.256354L92.8131 36.8588C93.9951 37.5411 94.9531 39.372 94.9531 40.9478V98.6369C94.9531 99.5412 94.6368 100.163 94.1445 100.402L94.1449 100.402L91.6608 101.836L25.4535 1.62319Z" fill="#F3F3F4"/>
<path d="M26.8374 1.74457L90.235 38.3472C91.417 39.0296 92.375 40.8604 92.375 42.4362V100.125C92.375 101.701 91.417 102.426 90.235 101.743L26.8374 65.1406C25.6554 64.4582 24.6974 62.6274 24.6974 61.0516V3.36242C24.6974 1.7866 25.6556 1.06224 26.8374 1.74457Z" fill="white"/>
<path d="M69.187 34.8359L45.1263 20.7107C43.922 20.0086 42.4102 20.8774 42.4102 22.2712C42.4102 23.1051 42.6288 23.9245 43.0443 24.6476C43.4598 25.3707 44.0576 25.9722 44.7781 26.3922L68.8387 40.5174C70.043 41.2195 71.5549 40.3507 71.5549 38.9567C71.5548 38.1228 71.3361 37.3035 70.9207 36.5804C70.5052 35.8574 69.9074 35.2559 69.187 34.8359ZM82.9589 58.1106L34.445 29.8118C33.2991 29.1438 31.8605 29.9704 31.8605 31.2968C31.8605 32.0903 32.0686 32.87 32.464 33.5581C32.8593 34.2461 33.4281 34.8185 34.1137 35.2182L82.6274 63.517C83.7734 64.185 85.2119 63.3584 85.2119 62.0321C85.212 61.2385 85.004 60.4588 84.6087 59.7707C84.2134 59.0826 83.6445 58.5102 82.9589 58.1106ZM82.9589 70.5921L34.445 42.2933C33.2991 41.6253 31.8605 42.4518 31.8605 43.7782C31.8605 44.5718 32.0686 45.3515 32.4639 46.0396C32.8593 46.7276 33.4281 47.3 34.1137 47.6997L82.6274 75.9985C83.7734 76.6665 85.2119 75.8399 85.2119 74.5135C85.212 73.72 85.004 72.9403 84.6087 72.2522C84.2133 71.5641 83.6445 70.9917 82.9589 70.5921ZM82.9589 83.0737L34.445 54.7749C33.2991 54.1069 31.8605 54.9335 31.8605 56.2599C31.8605 57.0534 32.0686 57.8331 32.4639 58.5212C32.8593 59.2093 33.4281 59.7817 34.1137 60.1813L82.6274 88.4801C83.7734 89.1481 85.2119 88.3216 85.2119 86.9952C85.212 86.2016 85.004 85.4219 84.6087 84.7338C84.2134 84.0457 83.6445 83.4733 82.9589 83.0737Z" fill="#EAF1FB"/>
<path d="M22.5826 43.2479L36.9821 44.8052L48.1444 93.5425C48.4661 94.9472 46.7323 95.8823 45.7352 94.8416L40.0649 88.9228L36.717 94.1491C36.0382 95.2088 34.4186 94.9269 34.1375 93.7003L22.5826 43.2479Z" fill="#276CD3"/>
<path d="M28.7725 53.9151L16.8128 41.3988L7.113 72.5508C6.84126 73.4238 7.43275 74.3281 8.34138 74.4289L14.2526 75.0845L17.0684 82.7313C17.5485 84.0352 19.4088 83.9878 19.822 82.6612L28.7725 53.9151Z" fill="#276CD3"/>
<path d="M13.1433 26.405L20.3548 22.2094C20.6927 21.924 21.1718 21.8985 21.7049 22.2062L25.9724 24.67C26.0547 24.7169 26.1405 24.7575 26.229 24.7913L30.2996 22.4216C31.023 21.8747 32.1958 22.5519 32.9192 23.9341L35.9367 29.6997C36.2842 30.3633 36.7553 30.8956 37.2464 31.1793L41.5139 33.643C42.5368 34.2337 43.3662 35.8183 43.3662 37.1821V42.8722C43.3662 43.5272 43.5614 44.2681 43.9087 44.9317L46.9262 50.6973C47.6496 52.0795 47.6496 53.6432 46.9262 54.19L43.9087 56.4713C43.5612 56.7338 43.3662 57.2494 43.3662 57.9044V63.5943C43.3662 64.3854 43.0863 64.9261 42.6524 65.1275L35.6564 69.1834L13.1433 26.405Z" fill="#F3F3F4"/>
<path d="M17.3784 31.8002C16.9473 31.7293 16.4321 31.6598 15.8685 31.5825L13.1438 26.405L20.3553 22.2094C20.6932 21.924 21.1723 21.8985 21.7054 22.2062L25.9729 24.67C26.0552 24.7169 26.141 24.7575 26.2295 24.7913L23.0794 26.6251C23.0794 26.6253 21.2181 32.4313 17.3784 31.8002Z" fill="#EAF1FB"/>
<path d="M23.0787 26.6253L20.0612 28.9065C19.7137 29.1691 19.2426 29.1574 18.7515 28.8737L14.484 26.4099C13.461 25.8193 12.6317 26.4462 12.6317 27.8102V33.5001C12.6317 34.1552 12.4365 34.6707 12.0892 34.9333L9.07165 37.2146C8.34829 37.7614 8.34829 39.3251 9.07165 40.7073L12.0892 46.4729C12.4367 47.1367 12.6317 47.8774 12.6317 48.5324V54.2225C12.6317 55.5865 13.461 57.1709 14.484 57.7616L18.7515 60.2253C19.2428 60.509 19.7139 61.0411 20.0612 61.7049L23.0787 67.4705C23.8021 68.8527 24.9749 69.5298 25.6983 68.983L28.7158 66.7017C29.0633 66.4392 29.5344 66.4509 30.0257 66.7346L34.2931 69.1985C35.3161 69.7892 36.1455 69.1623 36.1455 67.7982V62.1083C36.1455 61.4533 36.3407 60.9377 36.688 60.6752L39.7055 58.3939C40.4289 57.8471 40.4289 56.2834 39.7055 54.9012L36.688 49.1356C36.3405 48.4718 36.1455 47.7311 36.1455 47.0761V41.386C36.1455 40.022 35.3161 38.4376 34.2931 37.8469L30.0257 35.3831C29.5344 35.0995 29.0633 34.5673 28.7158 33.9035L25.6983 28.138C24.9751 26.7556 23.8023 26.0784 23.0787 26.6253Z" fill="white"/>
<path d="M14.5898 42.1844C14.5898 35.5056 18.6505 32.4356 23.6597 35.3277C28.6688 38.2197 32.7295 45.9783 32.7295 52.6573C32.7295 59.3361 28.6688 62.4061 23.6597 59.514C18.6507 56.6218 14.5898 48.8632 14.5898 42.1844Z" fill="#EAF1FB"/>
<path d="M19.1959 34.3148C18.0719 35.6797 17.4067 37.7912 17.4067 40.4942C17.4067 47.173 21.4674 54.9318 26.4765 57.8238C28.0994 58.7608 29.6226 59.0711 30.9404 58.8367C29.2873 60.844 26.6417 61.2355 23.6598 59.5138C18.6506 56.6217 14.59 48.8632 14.59 42.1844C14.59 37.6693 16.4461 34.8043 19.1959 34.3148Z" fill="#C9DAF4"/>
</svg>
